<?xml version="1.0" standalone="no"?>
<!DOCTYPE svg PUBLIC "-//W3C//DTD SVG 1.1//EN" "http://www.w3.org/Graphics/SVG/1.1/DTD/svg11.dtd" >
<svg xmlns="http://www.w3.org/2000/svg" xmlns:xlink="http://www.w3.org/1999/xlink" version="1.1">
<metadata>
Created by FontForge 20170910 at Fri Jan 15 00:49:49 2010
 By Jimmy Wärting
Copyright 1990, 1991, 1992, 1994, 1997, 1998, 2000, 2002, 2004 Adobe Systems Incorporated. All rights reserved. Minion is either a registered trademark or a trademark of Adobe Systems Incorporated in the United States and/or other countries.
</metadata>
<defs>
<font id="MinionPro-BoldCn" horiz-adv-x="400" >
  <font-face 
    font-family="Minion Pro"
    font-weight="700"
    font-stretch="condensed"
    units-per-em="1000"
    panose-1="2 4 7 6 6 2 1 2 2 3"
    ascent="727"
    descent="-273"
    x-height="442"
    cap-height="642"
    bbox="-317 -360 1684 1008"
    underline-thickness="50"
    underline-position="-100"
    stemh="39"
    stemv="122"
    unicode-range="U+0020-FB06"
  />
<missing-glyph horiz-adv-x="500" 
d="M500 0h-500v700h500v-700zM420 650h-340l170 -255zM450 95v510l-170 -255zM80 50h340l-170 255zM50 605v-510l170 255z" />
    <glyph glyph-name="T_h" unicode="Th" horiz-adv-x="1012" 
d="M995 0h-222v31c43 7 47 12 47 66v186c0 74 -31 98 -66 98c-24 0 -45 -6 -65 -27v-257c0 -55 5 -60 41 -66v-31h-224v31c55 6 61 10 61 70v494c-44 4 -95 6 -164 6h-45v-479c0 -78 9 -83 81 -89v-33h-287v33c69 6 78 12 78 89v479h-45c-62 0 -81 -9 -94 -30
c-12 -18 -24 -44 -34 -87h-34c3 66 9 133 10 183h23c15 -21 27 -25 53 -25h359c87 0 99 7 99 21v13c38 6 88 15 122 26v-309c30 31 73 61 122 61c87 0 131 -57 131 -160v-194c0 -59 5 -63 53 -69v-31z" />
    <glyph glyph-name="f_b" unicode="fb" horiz-adv-x="791" 
d="M474 418l32 18c22 11 41 18 63 18c113 0 193 -99 193 -212c0 -146 -104 -254 -247 -254c-47 0 -98 10 -163 37v573c-22 28 -58 48 -87 48c-24 0 -39 -16 -47 -46c-8 -27 -11 -64 -11 -132v-26h90c3 -11 0 -40 -11 -48h-79v-288c0 -63 6 -68 68 -75v-31h-246v31
c48 7 56 11 56 75v288h-60l-5 11l28 37h37v17c0 26 5 50 14 75c9 26 31 68 81 107c39 30 80 47 122 52c40 -2 60 -11 77 -21c29 5 65 13 89 21l6 -7v-268zM474 382v-272c0 -15 1 -28 5 -38c6 -15 23 -45 53 -45c48 -1 98 61 98 190c0 123 -54 172 -115 172
c-18 0 -27 -3 -41 -7z" />
    <glyph glyph-name="f_f" unicode="ff" horiz-adv-x="570" 
d="M84 442v13c0 25 6 49 20 78c15 31 37 60 74 87c41 31 88 51 132 53c60 -1 94 -20 116 -42c40 37 79 57 123 63c44 -2 71 -17 88 -37c11 -13 11 -27 5 -40c-4 -11 -15 -23 -28 -32c-11 -8 -23 -7 -31 2c-20 19 -54 53 -82 53c-18 0 -27 -14 -30 -31c-4 -19 -6 -52 0 -140
l1 -27h104c5 -11 2 -38 -10 -46h-94v-290c0 -64 9 -68 73 -75v-31h-239v31c38 6 44 11 44 73v292h-144v-290c0 -60 6 -69 49 -75v-31h-227v31c48 6 56 12 56 75v290h-60l-6 10l29 36h37zM350 442v17c0 21 3 43 7 60c4 13 10 26 16 39c-14 25 -53 70 -103 70
c-31 0 -47 -24 -55 -57c-9 -32 -10 -61 -10 -105v-24h145z" />
    <glyph glyph-name="f_f_b" unicode="ffb" horiz-adv-x="1059" 
d="M740 688v-271c11 6 22 11 33 16c26 13 42 21 63 21c113 0 192 -99 192 -212c0 -146 -104 -254 -248 -254c-47 0 -97 10 -162 37v569c-18 30 -49 54 -80 54c-26 0 -45 -19 -55 -51c-8 -27 -10 -65 -10 -131v-24h92c4 -10 2 -38 -12 -46h-80v-293c0 -62 9 -65 60 -72v-31
h-226v31c38 6 44 10 44 74v291h-144v-293c0 -61 6 -65 48 -72v-31h-226v31c50 7 56 11 56 70v295h-60l-5 10l28 36h37v12c0 21 6 44 19 73c16 32 40 63 80 91c36 26 84 49 133 53c58 -2 94 -23 115 -42c43 38 93 60 139 64c35 0 60 -10 78 -21c28 5 60 13 86 21zM351 442v15
c0 34 12 75 29 104c-15 23 -50 62 -103 62c-32 0 -53 -26 -62 -61c-8 -30 -9 -65 -9 -96v-24h145zM740 381v-274c0 -15 1 -27 5 -38c6 -15 23 -42 53 -42c52 -1 98 69 98 190s-56 172 -117 172c-15 0 -28 -3 -39 -8z" />
    <glyph glyph-name="f_f_h" unicode="ffh" horiz-adv-x="1064" 
d="M1046 0h-221v31c43 7 47 10 47 62v190c0 74 -29 100 -64 100c-24 0 -48 -9 -68 -30v-258c0 -54 5 -58 41 -64v-31h-209v31c41 6 46 9 46 63v501c-18 30 -51 51 -83 51c-25 0 -42 -20 -52 -54c-8 -28 -10 -60 -10 -126v-24h90c4 -10 1 -38 -12 -46h-78v-298
c0 -56 7 -60 56 -67v-31h-222v31c38 6 44 10 44 68v297h-144v-298c0 -56 6 -60 48 -67v-31h-224v31c48 6 54 12 54 68v297h-59l-5 10l28 36h36v12c0 24 8 50 20 76c16 30 41 63 79 90c37 27 84 48 135 51c57 -2 92 -22 113 -42c43 37 89 59 138 62c33 -1 58 -9 74 -19
c30 6 67 14 91 21l5 -6v-294c30 32 73 61 122 61c87 0 132 -58 132 -161v-198c0 -54 4 -58 52 -64v-31zM351 442v16c0 35 13 78 29 104c-15 23 -49 61 -102 61c-35 0 -55 -28 -63 -62c-7 -32 -9 -63 -9 -95v-24h145z" />
    <glyph glyph-name="f_f_i" unicode="ffi" horiz-adv-x="809" 
d="M795 0h-223v31c38 5 44 12 44 69v225c0 64 -3 71 -47 71h-97v-290c0 -64 9 -69 51 -75v-31h-219v31c40 6 46 11 46 73v292h-144v-294c0 -59 6 -65 49 -71v-31h-225v31c47 7 54 12 54 75v290h-58l-5 11l28 35h35v14c0 24 6 53 19 79c16 31 38 60 78 89c41 30 83 49 130 53
c66 -2 100 -24 121 -47c44 37 93 62 149 65c56 -1 92 -24 112 -44c16 -18 19 -35 13 -51c-3 -12 -15 -26 -31 -36c-17 -11 -32 -10 -43 2c-14 16 -49 80 -103 80c-26 0 -42 -26 -49 -63c-7 -35 -8 -81 -8 -115v-26h91c46 0 117 1 175 12v-354c0 -56 4 -63 57 -69v-31z
M350 442v17c0 21 3 43 8 60c5 15 9 30 17 42c-13 24 -53 69 -105 69c-32 0 -48 -24 -56 -54c-9 -35 -9 -75 -9 -110v-24h145z" />
    <glyph glyph-name="f_f_j" unicode="ffj" horiz-adv-x="800" 
d="M472 442h91c46 0 116 1 174 12v-329c0 -64 -8 -101 -26 -148c-39 -102 -113 -183 -133 -199c-13 -10 -22 -14 -33 -14c-13 0 -39 21 -39 52c0 19 11 26 24 27c42 3 64 9 70 20c5 12 9 35 11 66c3 46 4 93 4 163v233c0 65 -2 71 -46 71h-97v-290c0 -64 8 -68 54 -75v-31
h-222v31c40 6 46 10 46 73v292h-144v-294c0 -60 6 -65 49 -71v-31h-227v31c49 6 56 11 56 75v290h-60l-6 10l29 36h37v14c0 23 5 49 20 78c15 32 37 60 77 90c42 30 85 48 131 52c66 -2 99 -24 119 -47c45 37 93 62 148 65c56 -1 91 -22 110 -42c17 -18 19 -36 14 -51
c-4 -12 -16 -26 -32 -36c-16 -11 -31 -10 -42 2c-14 16 -48 77 -101 77c-27 0 -41 -25 -49 -62c-7 -35 -7 -80 -7 -114v-26zM350 442v17c0 20 3 38 8 58c5 15 9 31 17 43c-13 24 -51 69 -104 69c-31 0 -48 -24 -56 -55c-9 -35 -10 -73 -10 -108v-24h145z" />
    <glyph glyph-name="f_f_k" unicode="ffk" horiz-adv-x="1036" 
d="M1051 0l-167 -2c-25 31 -75 126 -114 195c-10 18 -16 24 -22 25h-9v-116c0 -61 7 -65 60 -71v-31h-227v31c41 6 46 9 46 71v492c-18 30 -52 52 -83 52c-26 0 -43 -19 -53 -53c-8 -28 -9 -61 -9 -127v-24h92c4 -12 0 -40 -11 -46h-81v-292c0 -64 9 -66 56 -73v-31h-224v31
c40 6 46 10 46 71v294h-145v-293c0 -59 6 -65 50 -72v-31h-228v31c49 7 56 11 56 71v294h-60l-6 10l29 36h37v11c0 23 6 50 21 80s39 58 77 86s86 48 136 52c58 -2 93 -23 114 -42c42 37 91 59 137 63c33 -2 62 -9 76 -20c31 6 64 14 89 21l5 -5v-440c23 4 47 18 62 36
c17 21 40 58 53 84c14 26 14 37 -28 41v30l193 9v-30c-61 -12 -83 -22 -110 -53c-21 -23 -39 -48 -63 -81c36 -64 100 -164 131 -203c24 -30 40 -42 74 -50v-31zM351 442v16c0 35 11 74 29 102c-17 24 -51 64 -103 64c-35 0 -55 -28 -63 -63c-7 -29 -9 -64 -9 -95v-24h146z
" />
    <glyph glyph-name="f_f_l" unicode="ffl" horiz-adv-x="808" 
d="M795 0h-222v31c37 5 43 9 43 66v507c-16 24 -38 48 -71 48c-22 0 -40 -12 -52 -33c-13 -22 -21 -57 -21 -122v-55h96c5 -11 1 -38 -13 -46h-83v-293c0 -62 8 -66 52 -72v-31h-220v31c40 6 46 10 46 70v295h-144v-296c0 -58 6 -63 49 -69v-31h-224v31c47 7 53 11 53 72
v293h-57l-6 11l29 35h34v15c0 23 6 51 20 80c15 29 39 58 75 85c42 30 87 51 139 54c55 -2 95 -21 117 -42c43 35 91 56 137 60c51 0 76 -9 104 -26c18 7 33 14 51 21l11 -5v-587c0 -58 6 -60 57 -66v-31zM350 442v17c0 23 4 42 9 61c4 16 10 30 18 45
c-18 30 -51 66 -101 66c-35 0 -53 -27 -62 -62c-7 -28 -9 -64 -9 -104v-23h145z" />
    <glyph glyph-name="f_f_t" unicode="fft" horiz-adv-x="861" 
d="M854 33l-80 -36c-16 -8 -30 -11 -41 -11c-71 0 -114 34 -114 123v287h-145v-295c0 -60 9 -63 65 -70v-31h-232v31c40 6 45 10 45 71v294h-145v-296c0 -58 6 -62 49 -69v-31h-227v31c50 7 56 10 56 70v295h-60l-6 11l29 35h37v14c0 22 7 48 19 73c16 31 41 60 76 86
c40 31 89 52 143 56c53 -2 87 -20 109 -39c42 35 86 57 133 60c39 -2 67 -14 82 -29c11 -11 15 -23 12 -36c-1 -13 -18 -32 -33 -42c-12 -9 -21 -7 -30 1c-24 24 -59 55 -85 55c-18 0 -29 -17 -34 -41s-7 -65 -4 -132l1 -26h145v59l107 80l15 -8v-131h95c9 -11 7 -40 -7 -46
h-88v-254c0 -74 27 -90 49 -90c18 0 40 7 53 13zM352 442v16c0 35 13 76 28 103c-17 23 -55 62 -107 62c-29 0 -49 -26 -58 -59c-8 -31 -9 -64 -9 -98v-24h146z" />
    <glyph glyph-name="f_h" unicode="fh" horiz-adv-x="798" 
d="M781 0h-222v31c43 7 47 12 47 66v185c0 73 -31 98 -67 98c-24 0 -46 -6 -66 -27v-256c0 -55 5 -60 42 -66v-31h-212v31c43 6 48 10 48 68v498c-19 29 -53 49 -85 49c-22 0 -37 -14 -46 -40c-8 -24 -13 -61 -13 -139v-25h88c7 -11 4 -39 -10 -47h-78v-294
c0 -60 5 -63 50 -70v-31h-228v31c50 7 56 10 56 70v294h-58l-6 11l28 36h36v16c0 29 5 53 14 76c10 27 33 68 83 107c38 31 80 47 123 52c37 -2 59 -10 75 -21c32 6 64 13 87 21l6 -6v-294c30 32 74 61 123 61c90 0 132 -61 132 -161v-193c0 -59 5 -63 53 -69v-31z" />
    <glyph glyph-name="f_i" unicode="fi" horiz-adv-x="542" 
d="M530 0h-224v32c39 5 44 13 44 71v223c0 60 -3 69 -47 69h-97v-294c0 -55 7 -63 51 -69v-32h-227v32c48 6 54 14 54 69v294h-58l-5 12l27 35h36v17c0 33 8 62 22 92s37 58 69 83c46 37 93 56 143 59c52 -1 90 -22 108 -43c15 -17 17 -36 12 -51c-4 -12 -16 -28 -32 -37
c-17 -10 -32 -9 -42 4c-13 17 -47 77 -100 77c-27 0 -42 -24 -50 -62c-7 -29 -8 -76 -8 -116v-23h90c47 0 118 1 176 12v-351c0 -58 4 -65 58 -71v-32z" />
    <glyph glyph-name="f_j" unicode="fj" horiz-adv-x="537" 
d="M207 442h93c47 0 115 1 173 12v-330c0 -63 -7 -100 -26 -147c-39 -102 -113 -182 -133 -198c-13 -10 -22 -15 -33 -15c-14 0 -41 21 -41 53c0 19 10 25 24 26c40 1 65 10 71 21c6 12 10 35 12 66c2 46 4 92 4 162v233c0 61 0 70 -45 70h-99v-300c0 -52 8 -57 55 -64v-31
h-230v31c48 7 53 12 53 64v300h-57l-5 11l28 36h34v17c0 33 7 61 21 91s38 59 70 84c45 36 95 56 144 59c54 -2 88 -21 107 -42c15 -17 17 -36 12 -51c-4 -12 -17 -26 -32 -36c-18 -10 -32 -9 -42 4c-12 17 -46 75 -99 75c-29 0 -43 -25 -51 -62c-7 -33 -8 -74 -8 -116v-23z
" />
    <glyph glyph-name="f_k" unicode="fk" horiz-adv-x="775" 
d="M785 0l-167 -2c-42 65 -74 127 -112 194c-11 18 -18 25 -24 25c-3 1 -6 1 -9 1v-117c0 -60 7 -64 61 -70v-31h-230v31c43 6 48 10 48 70v497c-20 28 -54 48 -85 48c-23 0 -38 -14 -47 -43c-8 -25 -13 -58 -13 -136v-25h89c6 -11 2 -40 -10 -47h-79v-292
c0 -60 5 -65 50 -72v-31h-228v31c50 7 56 10 56 72v292h-60l-5 11l28 36h37v16c0 27 5 52 13 75c12 31 36 71 83 108c39 30 81 47 123 52c38 -2 61 -11 75 -21c29 5 65 13 88 21l6 -6v-440c23 4 49 16 64 37c20 25 39 58 51 82c11 25 14 37 -29 41v32l194 9v-32
c-61 -12 -84 -23 -109 -53c-22 -24 -37 -47 -61 -80c23 -41 90 -154 128 -204c22 -28 40 -41 74 -48v-31z" />
    <glyph glyph-name="f_l" unicode="fl" horiz-adv-x="542" 
d="M530 0h-224v32c38 5 44 13 44 70v503c-15 22 -39 44 -70 44c-23 0 -41 -14 -54 -37c-13 -24 -20 -62 -20 -118v-52h95c5 -12 1 -40 -12 -47h-83v-295c0 -54 5 -61 50 -68v-32h-226v32c48 7 54 11 54 68v295h-59l-6 12l30 35h35v17c0 33 7 61 22 93c14 30 36 58 71 85
c37 29 82 54 139 57c42 1 68 -8 94 -23c17 5 32 12 51 18l11 -5v-582c0 -58 4 -64 58 -70v-32z" />
    <glyph glyph-name="f_t" unicode="ft" horiz-adv-x="595" 
d="M587 35l-80 -36c-16 -8 -30 -11 -41 -11c-71 0 -114 34 -114 123v284h-145v-296c0 -56 5 -61 57 -68v-31h-235v31c51 7 56 12 56 68v296h-59l-6 12l28 35h37v15c0 26 4 50 14 75c9 27 31 69 77 106c37 31 76 50 119 55c42 -2 68 -13 82 -28c12 -11 16 -23 13 -36
c-1 -14 -18 -33 -33 -43c-12 -9 -21 -7 -30 2c-24 24 -58 50 -84 50c-17 0 -28 -14 -33 -38s-7 -67 -4 -134l1 -24h145v62l107 78l15 -8v-132h95c9 -11 7 -39 -7 -47h-88v-251c0 -74 27 -90 49 -90c19 0 40 7 54 13z" />
    <glyph glyph-name="longs_b" unicode="&#x17f;b" horiz-adv-x="785" 
d="M469 416l33 17c26 14 42 21 63 21c113 0 191 -98 191 -212c0 -146 -103 -254 -247 -254c-48 0 -97 10 -162 37v578c-21 24 -42 43 -77 43c-25 0 -41 -14 -51 -41c-9 -27 -13 -66 -13 -185v-318c0 -62 7 -64 54 -71v-31h-229v31c50 7 53 11 53 71v294h-57l-6 11l29 35h34
v16c0 21 4 41 10 63c8 27 32 76 85 119c36 29 78 47 122 53c32 0 56 -9 77 -21c26 5 61 13 85 21l6 -7v-270zM470 381v-274c0 -15 1 -27 5 -37c6 -15 22 -41 52 -42c52 -1 98 64 98 190c0 119 -54 171 -115 171c-14 0 -27 -3 -40 -8z" />
    <glyph glyph-name="longs_h" unicode="&#x17f;h" horiz-adv-x="795" 
d="M775 0h-221v31c43 7 47 12 47 62v192c0 72 -30 97 -66 97c-24 0 -46 -7 -66 -28v-259c0 -53 5 -58 42 -64v-31h-211v31c42 6 47 9 47 67v505c-22 25 -47 42 -77 42c-25 0 -40 -14 -49 -37c-10 -27 -15 -64 -15 -188v-323c0 -55 7 -59 52 -66v-31h-229v31
c49 7 55 11 55 66v299h-60l-5 11l28 35h37v16c0 21 4 41 10 62c8 27 31 76 86 119c36 29 77 48 123 54c29 -1 54 -9 72 -20c31 5 66 12 89 20l5 -6v-293c30 31 73 60 123 60c87 0 131 -57 131 -160v-198c0 -55 5 -59 52 -65v-31z" />
    <glyph glyph-name="longs_i" unicode="&#x17f;i" horiz-adv-x="540" 
d="M49 442h35v13c0 33 7 57 21 87c15 33 38 63 70 89c45 37 94 58 147 62c51 -2 86 -21 105 -41c16 -17 19 -34 13 -49c-3 -12 -16 -27 -32 -37c-16 -12 -31 -10 -41 2c-14 17 -48 75 -104 75c-27 0 -41 -25 -49 -62c-7 -36 -8 -90 -8 -180v-306c0 -53 7 -58 50 -64v-31
h-226v31c50 7 54 10 54 64v301h-58l-5 11zM527 0h-227v31c43 6 48 9 48 72v212c0 59 -2 62 -54 75v27c54 7 122 20 176 38v-352c0 -63 6 -64 57 -72v-31z" />
    <glyph glyph-name="longs_k" unicode="&#x17f;k" horiz-adv-x="764" 
d="M779 0l-166 -2c-23 34 -73 127 -111 194c-10 19 -18 25 -24 25c-3 1 -5 1 -8 1v-118c0 -59 7 -63 63 -69v-31h-232v31c43 6 48 9 48 68v503c-21 24 -50 44 -80 44c-28 0 -44 -17 -52 -50c-7 -29 -11 -67 -11 -159v-336c0 -60 6 -63 51 -70v-31h-229v31c50 7 56 10 56 70
v295h-60l-5 11l28 35h37v15c0 23 4 43 9 62c9 32 34 80 88 121c37 28 75 47 118 53c30 -1 59 -9 77 -21c30 6 65 13 88 21l6 -6v-439c23 4 43 18 59 36c20 22 39 56 53 83c14 29 13 38 -28 42v30l193 9v-30c-60 -11 -84 -19 -111 -52c-23 -29 -37 -48 -60 -81
c22 -40 85 -148 129 -206c23 -31 41 -41 74 -48v-31z" />
    <glyph glyph-name="longs_l" unicode="&#x17f;l" horiz-adv-x="540" 
d="M526 0h-227v31c43 6 48 13 48 71v500c-21 25 -45 44 -75 44c-27 0 -42 -17 -50 -38c-11 -28 -16 -74 -16 -187v-319c0 -60 5 -64 49 -71v-31h-225v31c50 7 54 10 54 71v294h-58l-5 11l28 35h35v16c0 23 4 43 10 64c8 26 32 76 85 117c37 29 80 48 124 54
c35 -1 58 -9 77 -20c28 5 61 12 84 20l5 -5v-586c0 -61 6 -65 57 -71v-31z" />
    <glyph glyph-name="longs_longs" unicode="&#x17f;&#x17f;" horiz-adv-x="540" 
d="M84 442v8c0 20 6 38 17 62c13 35 39 71 80 102c43 33 86 51 137 55c53 -2 88 -17 111 -39c39 34 79 56 127 63c35 -2 58 -12 73 -26c13 -11 18 -23 15 -36c-1 -13 -17 -32 -32 -42c-12 -9 -21 -7 -30 1c-23 24 -54 49 -79 49c-17 0 -27 -13 -31 -39
c-5 -26 -3 -81 -2 -195v-299c0 -65 8 -68 56 -75v-31h-230v31c46 7 52 10 52 75v290h-60l-5 10l28 36h37v14c0 36 9 73 29 106c-18 25 -54 62 -100 62c-32 0 -51 -28 -60 -69c-9 -37 -11 -88 -11 -165v-295c0 -53 5 -58 48 -64v-31h-225v31c50 7 55 11 55 64v301h-60l-4 10
l28 36h36z" />
    <glyph glyph-name="longs_t" unicode="&#x17f;t" horiz-adv-x="587" 
d="M47 442h37v13c0 25 5 48 14 73c9 27 31 70 79 109c36 32 79 51 125 56c40 -2 65 -13 82 -29c13 -12 18 -25 15 -40c-1 -14 -17 -33 -34 -43c-13 -8 -23 -7 -32 3c-18 20 -54 56 -84 56c-19 0 -30 -16 -35 -44c-7 -30 -8 -89 -8 -186v-313c0 -55 6 -60 58 -66v-31h-236v31
c51 7 56 11 56 66v299h-60l-5 11zM579 34l-77 -35c-16 -8 -31 -11 -42 -11c-71 0 -114 35 -114 124v284h-58l-6 12l28 34h36v62l107 78l15 -8v-132h96c8 -9 7 -40 -7 -46h-89v-252c0 -74 27 -90 53 -90c18 0 36 6 49 12z" />
    <glyph glyph-name="longs_longs_i" unicode="&#x17f;&#x17f;i" horiz-adv-x="806" 
d="M85 442v8c0 21 5 39 16 65c13 31 39 67 80 99c42 32 91 51 142 55c53 -2 86 -19 111 -44c39 37 101 65 156 68c51 -2 86 -22 105 -41c17 -17 19 -35 14 -49c-4 -13 -15 -27 -31 -37c-17 -11 -32 -10 -42 2c-14 18 -52 74 -107 74c-27 0 -42 -26 -50 -63
c-7 -36 -7 -78 -7 -158v-314c0 -62 5 -70 53 -76v-31h-227v31c47 7 52 13 52 76v288h-61l-5 11l29 36h37v14c0 38 8 76 28 107c-18 25 -51 59 -98 59c-31 0 -54 -28 -64 -69c-8 -34 -9 -83 -9 -150v-304c0 -55 5 -62 48 -68v-31h-226v31c50 7 56 13 56 68v296h-60l-5 11
l28 36h37zM794 0h-226v31c42 6 47 11 47 75v208c0 61 -2 63 -54 75v28c54 7 120 20 176 38v-347c0 -66 5 -71 57 -77v-31z" />
    <glyph glyph-name="longs_longs_l" unicode="&#x17f;&#x17f;l" horiz-adv-x="807" 
d="M796 0h-230v31c43 6 49 12 49 77v494c-22 24 -44 43 -78 43c-25 0 -42 -13 -51 -37c-9 -23 -14 -68 -14 -179v-321c0 -64 5 -70 51 -77v-31h-226v31c48 7 53 12 53 77v287h-61l-5 11l29 36h37v15c0 35 9 70 30 104c-18 27 -54 61 -103 61c-29 0 -49 -23 -60 -66
c-8 -34 -10 -81 -10 -158v-298c0 -56 5 -62 48 -69v-31h-225v31c50 7 55 13 55 69v295h-60l-5 11l28 36h37v7c0 20 5 39 15 62c15 35 42 73 85 105c41 31 90 49 138 53c54 -2 87 -18 111 -42c38 34 84 61 140 66c30 -1 57 -9 73 -20c30 5 62 13 85 20l5 -5v-580
c0 -65 6 -71 59 -77v-31z" />
    <glyph glyph-name="Tcommaaccent_h" unicode="&#x162;h" horiz-adv-x="1012" 
d="M995 0h-222v31c43 7 47 12 47 66v186c0 74 -31 98 -66 98c-24 0 -45 -6 -65 -27v-257c0 -55 5 -60 41 -66v-31h-224v31c55 6 61 10 61 70v494c-44 4 -95 6 -164 6h-45v-479c0 -78 9 -83 81 -89v-33h-286v33c68 6 78 12 78 89v479h-45c-63 0 -82 -9 -95 -30
c-12 -18 -24 -44 -34 -87h-34c3 66 9 133 10 183h23c15 -21 27 -25 53 -25h359c87 0 99 7 99 21v13c38 6 88 15 122 26v-309c30 31 73 61 122 61c87 0 131 -57 131 -160v-194c0 -59 5 -63 53 -69v-31zM277 -31c43 0 83 -37 83 -90c0 -65 -50 -100 -115 -116l-13 29
c41 20 62 40 62 64c0 23 -20 39 -49 46c-6 2 -14 11 -14 25c0 28 24 42 46 42z" />
    <glyph glyph-name="Tcaron_h" unicode="&#x164;h" horiz-adv-x="1012" 
d="M995 0h-222v31c43 7 47 12 47 66v186c0 74 -31 98 -66 98c-24 0 -45 -6 -65 -27v-257c0 -55 5 -60 41 -66v-31h-224v31c55 6 61 10 61 70v494c-44 4 -95 6 -164 6h-45v-479c0 -78 9 -83 81 -89v-33h-287v33c69 6 78 12 78 89v479h-45c-62 0 -81 -9 -94 -30
c-12 -18 -24 -44 -34 -87h-34c3 66 9 133 10 183h23c15 -21 27 -25 53 -25h359c87 0 99 7 99 21v13c38 6 88 15 122 26v-309c30 31 73 61 122 61c87 0 131 -57 131 -160v-194c0 -59 5 -63 53 -69v-31zM414 822l17 -27c-45 -38 -89 -83 -126 -123h-28c-35 41 -82 84 -126 123
l18 27c45 -22 86 -43 122 -62c37 19 77 40 123 62z" />
    <glyph glyph-name=".notdef" horiz-adv-x="500" 
d="M500 0h-500v700h500v-700zM420 650h-340l170 -255zM450 95v510l-170 -255zM80 50h340l-170 255zM50 605v-510l170 255z" />
    <glyph glyph-name="space" unicode=" " horiz-adv-x="195" 
 />
    <glyph glyph-name="exclam" unicode="!" horiz-adv-x="267" 
d="M134 655c58 0 75 -18 75 -41c0 -17 -3 -34 -9 -71c-17 -109 -30 -215 -45 -327c-3 -12 -42 -13 -44 0c-15 112 -29 218 -46 327c-6 37 -8 54 -8 71c0 23 15 41 77 41zM132 -12c-41 0 -73 32 -73 78s32 79 74 79c43 0 75 -33 75 -79s-32 -78 -76 -78z" />
    <glyph glyph-name="quotedbl" unicode="&#x22;" horiz-adv-x="346" 
d="M135 699l11 -9c-3 -35 -24 -182 -35 -252l-36 -17c-13 89 -34 230 -39 245zM302 699l11 -9c-3 -35 -24 -184 -35 -252l-36 -17c-14 89 -34 230 -40 245z" />
    <glyph glyph-name="numbersign" unicode="#" horiz-adv-x="466" 
d="M434 468l-10 -79h-84l-27 -122h75l-12 -79h-81l-35 -163h-49l36 163h-88l-36 -163h-48l36 163h-85l9 79h94l26 122h-80l9 79h88l31 140h48l-31 -140h89l31 140h48l-31 -140h77zM292 389h-89l-26 -122h88z" />
    <glyph glyph-name="dollar" unicode="$" horiz-adv-x="466" 
d="M255 381l35 -15c72 -30 142 -79 142 -172c-1 -102 -69 -169 -177 -182v-83h-39v80c-80 1 -138 30 -158 42c-7 24 -17 90 -24 138l32 9c16 -45 58 -138 150 -149v213l-29 13c-85 37 -141 88 -141 166c0 87 60 158 170 173v75h39v-72c30 0 63 -5 87 -13c14 -4 23 -6 34 -8
c8 -36 14 -70 22 -128l-33 -9c-14 47 -42 107 -110 118v-196zM216 396v181c-52 -7 -77 -48 -77 -89c0 -46 34 -73 77 -92zM255 248v-198c43 7 76 37 76 95c0 28 -7 66 -63 96z" />
    <glyph glyph-name="percent" unicode="%" horiz-adv-x="730" 
d="M573 625l-390 -664l-37 25l390 663zM187 635c104 0 147 -101 147 -178c0 -78 -41 -180 -148 -180c-105 0 -147 102 -147 180c0 77 42 178 148 178zM186 601c-44 0 -53 -96 -53 -143c0 -51 9 -146 54 -146s52 97 52 145c0 47 -6 144 -53 144zM544 345
c104 0 147 -101 147 -178c0 -78 -41 -179 -148 -179c-105 0 -148 101 -148 178c0 78 43 179 149 179zM543 311c-45 0 -54 -94 -54 -144s8 -145 55 -145c45 0 52 97 52 145s-6 144 -53 144z" />
    <glyph glyph-name="ampersand" unicode="&#x26;" horiz-adv-x="667" 
d="M676 420v-33c-57 -8 -76 -20 -109 -66c-26 -34 -47 -70 -79 -117c60 -63 115 -136 159 -205l-8 -12c-94 1 -148 22 -161 36c-12 14 -37 45 -66 78c-57 -79 -117 -114 -180 -114c-128 0 -196 96 -196 180c0 81 48 119 136 181c-41 41 -68 86 -68 143c0 89 78 164 172 164
s162 -60 162 -142c0 -33 -15 -59 -40 -81c-21 -19 -46 -38 -77 -58c30 -31 86 -80 141 -138c19 28 30 51 44 81c22 48 10 62 -49 70l1 33h218zM268 617c-35 0 -62 -39 -62 -85s26 -85 89 -135c25 23 46 60 46 119c0 52 -24 101 -73 101zM278 72c41 0 81 25 108 59
c-60 69 -105 114 -188 193c-28 -31 -43 -73 -43 -115c0 -92 63 -137 123 -137z" />
    <glyph glyph-name="quoteright" unicode="&#x2019;" horiz-adv-x="226" 
d="M88 699c46 0 106 -46 106 -122c0 -88 -76 -138 -148 -158l-13 35c52 24 79 54 79 92c0 36 -25 64 -64 72c-5 1 -13 12 -13 35c0 27 26 46 53 46z" />
    <glyph glyph-name="parenleft" unicode="(" horiz-adv-x="328" 
d="M292 -142l-26 -28c-139 105 -204 257 -204 440v1c0 183 65 334 204 440l26 -27c-79 -81 -135 -242 -135 -414s56 -336 135 -412z" />
    <glyph glyph-name="parenright" unicode=")" horiz-adv-x="328" 
d="M263 270c0 -182 -65 -334 -200 -440l-27 27c77 81 132 242 132 414s-58 336 -132 414l27 26c135 -106 200 -257 200 -441z" />
    <glyph glyph-name="asterisk" unicode="*" horiz-adv-x="385" 
d="M355 482l-124 -28l34 -133l-29 -11l-68 122l-116 -71l-19 27l95 91l-98 100l19 25l115 -74l57 126l29 -8l-22 -134l125 -4z" />
    <glyph glyph-name="plus" unicode="+" horiz-adv-x="577" 
d="M531 222h-205v-222h-73v222h-206v63h206v200h73v-200h205v-63z" />
    <glyph glyph-name="comma" unicode="," horiz-adv-x="248" 
d="M101 161c48 0 109 -50 109 -127c0 -93 -82 -148 -160 -168l-13 34c56 27 85 55 85 98c0 35 -25 63 -66 73c-6 3 -15 12 -15 34c0 34 28 56 60 56z" />
    <glyph glyph-name="hyphen" unicode="-" horiz-adv-x="309" 
d="M273 268l-14 -73h-222l14 73h222z" />
    <glyph glyph-name="period" unicode="." horiz-adv-x="248" 
d="M122 -12c-40 0 -72 32 -72 77c0 44 32 76 73 76c42 0 74 -32 74 -76c0 -45 -32 -77 -75 -77z" />
    <glyph glyph-name="slash" unicode="/" horiz-adv-x="303" 
d="M279 655l-194 -700h-69l194 700h69z" />
    <glyph glyph-name="zero" unicode="0" horiz-adv-x="466" 
d="M235 635c159 0 208 -178 208 -323c0 -146 -49 -324 -210 -324c-160 0 -211 178 -211 325c1 153 58 322 213 322zM231 596c-61 0 -78 -142 -78 -282c0 -143 20 -287 82 -287c60 0 77 142 77 286c0 143 -19 283 -81 283z" />
    <glyph glyph-name="one" unicode="1" horiz-adv-x="466" 
d="M381 0h-285v31c71 5 81 16 81 85v372c0 51 -4 58 -49 63l-38 4v28c68 11 137 29 212 52v-519c0 -68 8 -80 79 -85v-31z" />
    <glyph glyph-name="two" unicode="2" horiz-adv-x="466" 
d="M412 170l31 -12c-15 -54 -25 -116 -35 -158h-384v29c51 51 106 108 152 166c65 84 104 152 104 235c0 67 -32 115 -98 115c-53 0 -95 -38 -124 -82l-27 22l61 91c34 36 79 59 140 59c95 0 174 -66 174 -175c0 -84 -49 -150 -134 -235l-121 -120h167c50 0 62 2 94 65z" />
    <glyph glyph-name="three" unicode="3" horiz-adv-x="466" 
d="M284 385v-4c93 -19 141 -84 141 -155c0 -168 -208 -238 -268 -238c-44 0 -84 17 -102 32c-15 14 -21 25 -21 39c0 18 16 33 29 43c10 8 22 9 35 -2c22 -19 62 -56 117 -56c50 0 84 46 84 129c0 103 -61 139 -116 139c-18 0 -38 -4 -52 -9l-9 33c88 30 143 67 143 132
c0 61 -39 91 -83 90c-43 0 -75 -26 -108 -70l-25 22l47 66c27 31 72 59 133 59h1c98 0 155 -57 155 -135c0 -27 -13 -50 -31 -67c-16 -15 -35 -27 -70 -48z" />
    <glyph glyph-name="four" unicode="4" horiz-adv-x="466" 
d="M452 173h-80v-69c0 -57 6 -68 73 -72v-32h-275v32c71 5 81 15 81 73v68h-237v37c98 153 200 301 290 419h68v-402h80v-54zM251 227v263h-2c-52 -80 -106 -164 -163 -263h165z" />
    <glyph glyph-name="five" unicode="5" horiz-adv-x="466" 
d="M145 518l-27 -154c45 17 92 31 118 31c121 0 189 -80 189 -168c0 -63 -29 -122 -96 -172c-53 -41 -120 -66 -175 -67c-40 0 -80 16 -99 33c-14 12 -20 22 -20 36c0 15 15 35 29 46c10 8 21 8 30 -1c22 -20 66 -59 125 -59c57 0 86 55 86 134c0 87 -54 147 -142 147
c-38 0 -77 -10 -98 -17l42 316h293l6 -10l-27 -95h-234z" />
    <glyph glyph-name="six" unicode="6" horiz-adv-x="466" 
d="M167 361l42 21c22 11 40 19 58 19c106 0 179 -78 179 -189c0 -124 -88 -224 -213 -224c-120 0 -210 96 -210 254c0 209 139 329 254 369c41 14 92 24 131 30l7 -36c-30 -6 -66 -19 -99 -36c-47 -26 -120 -83 -149 -208zM215 333c-21 0 -38 -4 -55 -11
c-4 -22 -5 -51 -5 -82c0 -133 49 -212 97 -212c55 0 67 74 67 146c0 93 -43 159 -104 159z" />
    <glyph glyph-name="seven" unicode="7" horiz-adv-x="466" 
d="M437 623l9 -11c-87 -203 -182 -411 -266 -612l-97 -12l-7 13c107 175 202 352 282 517h-198c-61 0 -68 -6 -92 -64h-35c13 75 19 126 25 169h379z" />
    <glyph glyph-name="eight" unicode="8" horiz-adv-x="466" 
d="M243 635c104 0 173 -67 172 -155c0 -28 -10 -49 -29 -71c-12 -13 -33 -31 -72 -59c64 -36 126 -84 126 -172c0 -126 -117 -190 -209 -190c-117 0 -203 65 -203 170c0 47 23 71 39 88c17 18 62 45 89 62c-55 35 -104 82 -104 155c0 93 77 172 191 172zM229 595
c-44 0 -69 -43 -69 -88c0 -65 49 -100 121 -137c14 15 33 48 33 106c0 85 -49 119 -85 119zM242 28c55 0 85 45 84 108c-1 75 -56 110 -137 153c-28 -24 -49 -66 -49 -121c0 -95 57 -140 102 -140z" />
    <glyph glyph-name="nine" unicode="9" horiz-adv-x="466" 
d="M238 635c135 0 203 -116 203 -252c0 -176 -95 -306 -229 -363c-38 -16 -114 -32 -161 -33l-6 35c139 29 232 130 255 253l-43 -23c-21 -12 -36 -17 -51 -17c-116 0 -183 83 -183 188c0 90 70 212 215 212zM218 595c-49 0 -67 -72 -67 -135c0 -85 40 -157 106 -157
c22 0 37 7 49 13c4 32 5 53 5 74c0 96 -23 205 -93 205z" />
    <glyph glyph-name="colon" unicode=":" horiz-adv-x="248" 
d="M126 420c39 0 70 -31 70 -75c0 -45 -31 -76 -71 -76c-41 0 -72 31 -72 76c0 44 31 75 73 75zM124 -12c-40 0 -71 31 -71 76c0 43 31 75 72 75s72 -32 72 -75c0 -45 -31 -76 -73 -76z" />
    <glyph glyph-name="semicolon" unicode=";" horiz-adv-x="248" 
d="M125 420c40 0 71 -32 71 -75c0 -44 -31 -76 -72 -76s-72 32 -72 76c0 43 31 75 73 75zM101 161c48 0 109 -49 109 -126c0 -94 -82 -149 -160 -169l-11 34c55 27 83 56 83 98c0 35 -25 63 -66 73c-6 3 -15 13 -15 34c0 35 28 56 60 56z" />
    <glyph glyph-name="less" unicode="&#x3c;" horiz-adv-x="554" 
d="M498 0l-441 220v66l441 220v-69l-370 -183v-2l370 -184v-68z" />
    <glyph glyph-name="equal" unicode="=" horiz-adv-x="577" 
d="M531 313h-484v63h484v-63zM531 131h-484v63h484v-63z" />
    <glyph glyph-name="greater" unicode="&#x3e;" horiz-adv-x="554" 
d="M498 220l-441 -220v68l369 184v2l-369 183v69l441 -220v-66z" />
    <glyph glyph-name="question" unicode="?" horiz-adv-x="383" 
d="M223 218l-24 -23c-49 19 -120 69 -120 134c0 36 20 71 92 118c53 36 104 69 104 91c0 21 -15 35 -42 35c-63 0 -116 -62 -133 -62c-18 0 -54 31 -54 63c0 17 7 26 21 39c31 28 84 42 111 42h1c79 0 168 -81 168 -174c0 -39 -9 -70 -57 -105c-44 -31 -95 -68 -95 -97
c0 -17 8 -35 28 -61zM182 -12c-40 0 -74 32 -74 79c0 42 34 77 75 77c43 0 75 -35 75 -77c0 -47 -34 -79 -76 -79z" />
    <glyph glyph-name="at" unicode="@" horiz-adv-x="719" 
d="M534 -5l14 -31c-63 -40 -129 -58 -199 -58c-156 0 -298 103 -298 306c0 229 178 364 359 364c177 0 274 -121 274 -251c0 -138 -95 -250 -233 -250c-53 0 -54 28 -47 73l7 39l-2 1c-27 -43 -106 -113 -149 -113c-27 0 -51 30 -51 90c1 60 20 123 73 180
c37 39 105 76 164 76c15 0 38 -5 52 -9c10 -3 19 -4 37 -4c-7 -33 -27 -119 -46 -225c-8 -47 -4 -63 12 -62c54 1 131 66 130 201c-1 132 -98 210 -218 210c-169 0 -291 -132 -291 -313c-1 -130 76 -263 256 -263c57 0 112 12 156 39zM402 377c-21 0 -37 -7 -52 -25
c-24 -27 -45 -97 -46 -161c-1 -33 8 -42 18 -42c15 0 58 32 98 105c11 36 22 84 28 112c-15 7 -29 11 -46 11z" />
    <glyph glyph-name="A" unicode="A" horiz-adv-x="633" 
d="M619 0h-263v33c54 7 59 19 43 68c-10 30 -21 70 -33 103h-172c-8 -25 -19 -58 -30 -97c-15 -54 -11 -65 56 -74v-33h-207v33c56 6 71 17 99 93l188 517l47 12c60 -174 113 -345 174 -517c31 -88 43 -99 98 -105v-33zM349 255l-67 217h-3c-26 -74 -46 -145 -70 -217h140z
" />
    <glyph glyph-name="B" unicode="B" horiz-adv-x="588" 
d="M372 350v-3c104 -14 176 -63 176 -155c0 -70 -36 -119 -86 -149s-123 -43 -200 -43h-232v33c72 6 79 15 79 97v382c0 82 -6 91 -74 97v33h268c74 0 120 -10 156 -35c34 -23 55 -62 55 -110c0 -92 -75 -133 -142 -147zM234 359h23c87 0 124 36 124 121
c0 89 -50 123 -100 123c-20 0 -31 -5 -37 -10c-7 -6 -10 -21 -10 -47v-187zM234 320v-191c0 -68 16 -89 64 -89c51 0 110 40 110 142c0 92 -54 138 -154 138h-20z" />
    <glyph glyph-name="C" unicode="C" horiz-adv-x="583" 
d="M535 171l34 -12c-11 -44 -32 -114 -47 -148c-25 -6 -99 -24 -160 -24c-234 0 -324 168 -324 324c0 202 135 344 348 344c63 0 125 -16 151 -21c7 -54 12 -100 18 -154l-34 -8c-32 109 -89 143 -155 143c-112 0 -184 -135 -184 -284c0 -180 81 -303 190 -303
c71 0 121 54 163 143z" />
    <glyph glyph-name="D" unicode="D" horiz-adv-x="668" 
d="M35 642h258c118 0 204 -25 261 -87c43 -47 76 -118 76 -209c0 -123 -42 -208 -108 -264c-67 -57 -157 -82 -270 -82h-224v33c72 5 81 14 81 98v380c0 85 -8 92 -74 98v33zM237 542v-411c0 -67 16 -90 66 -90c100 0 184 95 184 287c0 101 -25 175 -63 218
c-36 40 -81 57 -132 57c-25 0 -39 -5 -46 -10c-7 -6 -9 -20 -9 -51z" />
    <glyph glyph-name="E" unicode="E" horiz-adv-x="532" 
d="M489 164l34 -8c-6 -39 -24 -127 -32 -156h-465v33c74 7 83 12 83 94v389c0 82 -9 87 -72 93v33h431c1 -17 6 -86 10 -143l-34 -4c-10 36 -20 63 -35 80c-14 18 -40 27 -101 27h-36c-31 0 -35 -3 -35 -36v-210h57c79 0 88 4 103 74h34v-196h-34c-15 71 -23 75 -103 75h-57
v-181c0 -47 5 -69 21 -78c15 -8 42 -10 78 -10c53 0 82 7 103 32c17 20 34 50 50 92z" />
    <glyph glyph-name="F" unicode="F" horiz-adv-x="510" 
d="M483 498l-33 -5c-10 36 -19 61 -35 81c-18 22 -45 28 -98 28h-44c-31 0 -36 -3 -36 -35v-220h77c79 0 88 7 100 71h33v-194h-33c-12 69 -21 76 -100 76h-77v-167c0 -85 7 -94 83 -100v-33h-284v33c64 6 73 14 73 99v380c0 84 -9 92 -73 98v32h437c1 -16 5 -87 10 -144z
" />
    <glyph glyph-name="G" unicode="G" horiz-adv-x="631" 
d="M610 309v-32c-45 -10 -50 -13 -50 -74v-88c0 -36 1 -67 5 -95c-54 -14 -125 -33 -199 -33c-207 0 -328 133 -328 324c0 227 164 344 349 344c69 0 130 -16 164 -24c2 -35 7 -85 15 -155l-34 -7c-31 107 -89 147 -161 147c-103 0 -189 -104 -189 -285
c0 -156 66 -304 192 -304c17 0 32 3 42 11c11 8 16 25 16 53v109c0 61 -5 68 -96 77v32h274z" />
    <glyph glyph-name="H" unicode="H" horiz-adv-x="697" 
d="M665 642v-33c-70 -6 -77 -12 -77 -93v-389c0 -80 8 -87 75 -94v-33h-279v33c68 6 76 14 76 93v191h-223v-191c0 -80 8 -87 73 -93v-33h-277v33c67 6 76 13 76 93v390c0 81 -9 87 -79 93v33h277v-33c-62 -6 -70 -12 -70 -93v-150h223v150c0 81 -8 87 -73 93v33h278z" />
    <glyph glyph-name="I" unicode="I" horiz-adv-x="346" 
d="M311 0h-276v33c66 6 74 15 74 95v384c0 83 -7 91 -74 97v33h276v-33c-68 -6 -74 -14 -74 -97v-384c0 -79 7 -89 74 -95v-33z" />
    <glyph glyph-name="J" unicode="J" horiz-adv-x="332" 
d="M311 642v-33c-64 -7 -70 -14 -70 -97v-341c0 -115 -12 -209 -93 -276c-35 -29 -78 -49 -118 -58l-13 34c48 20 75 55 84 106c10 53 12 119 12 204v331c0 83 -7 90 -76 97v33h274z" />
    <glyph glyph-name="K" unicode="K" horiz-adv-x="634" 
d="M635 0h-187c-30 44 -106 173 -170 280c-17 27 -29 33 -44 31v-181c0 -83 8 -91 75 -97v-33h-274v33c65 6 74 14 74 97v382c0 83 -7 91 -75 97v33h270v-33c-64 -6 -70 -14 -70 -97v-169c18 6 39 21 61 44c47 48 93 113 131 169c21 31 20 46 -22 51l-15 2v33h233v-33
c-59 -6 -92 -15 -146 -71c-51 -54 -88 -102 -122 -145c52 -89 118 -195 186 -291c35 -50 56 -64 95 -69v-33z" />
    <glyph glyph-name="L" unicode="L" horiz-adv-x="504" 
d="M469 169l33 -9c-7 -39 -25 -135 -32 -160h-445v33c76 6 84 14 84 94v385c0 84 -8 91 -75 97v33h278v-33c-68 -6 -75 -13 -75 -97v-388c0 -47 4 -67 22 -76c16 -7 40 -8 68 -8c39 0 71 7 93 32c16 20 33 52 49 97z" />
    <glyph glyph-name="M" unicode="M" horiz-adv-x="801" 
d="M776 0h-272v33c68 7 71 10 71 99l-1 392h-4l-194 -515h-30l-178 502h-5l-10 -256c-3 -83 -4 -131 -1 -160c4 -46 22 -57 84 -62v-33h-220v33c53 5 67 19 73 54c5 31 12 88 19 181l14 213c7 108 2 121 -76 128v33h194l166 -425l169 425h193v-33c-74 -7 -77 -13 -75 -91
l8 -386c2 -88 7 -91 75 -99v-33z" />
    <glyph glyph-name="N" unicode="N" horiz-adv-x="656" 
d="M644 642v-32c-51 -2 -69 -17 -73 -53c-4 -31 -9 -82 -9 -168v-399h-50l-355 485h-3v-219c0 -84 5 -135 8 -165c5 -38 21 -56 90 -59v-32h-228v32c53 3 72 20 76 58c4 31 9 82 9 166v209c0 66 0 84 -16 106c-17 24 -37 36 -78 39v32h171l326 -428h4v175
c0 86 -5 137 -9 167c-5 36 -24 51 -88 54v32h225z" />
    <glyph glyph-name="O" unicode="O" horiz-adv-x="654" 
d="M335 655c159 0 281 -131 281 -329c0 -211 -127 -339 -291 -339c-174 0 -288 142 -288 332c0 164 96 336 298 336zM320 616c-84 0 -137 -117 -137 -276c0 -170 52 -314 157 -314c77 0 130 94 130 274c0 194 -54 316 -150 316z" />
    <glyph glyph-name="P" unicode="P" horiz-adv-x="554" 
d="M40 642h247c76 0 126 -11 165 -37c45 -30 72 -81 72 -147c0 -130 -91 -192 -196 -205c-15 -2 -25 -2 -35 -2l-58 16v-141c0 -82 6 -91 83 -97v-29h-283v29c67 6 74 15 74 97v386c0 82 -7 89 -69 97v33zM235 564v-259c13 -5 27 -9 46 -9c29 0 106 23 106 158
c0 116 -59 151 -110 151c-17 0 -26 -4 -32 -8c-8 -6 -10 -16 -10 -33z" />
    <glyph glyph-name="Q" unicode="Q" horiz-adv-x="651" 
d="M643 -124l-8 -25c-47 -8 -106 -1 -135 7s-91 34 -213 132c-45 1 -122 33 -166 85c-51 58 -83 141 -83 241c0 166 94 339 298 339c159 0 280 -131 280 -325c0 -165 -79 -281 -186 -321c72 -52 152 -103 213 -133zM306 28l66 22c8 -5 15 -10 22 -16c41 26 77 113 77 266
c0 197 -54 316 -153 316c-84 0 -135 -115 -135 -276c0 -153 42 -284 123 -312z" />
    <glyph glyph-name="R" unicode="R" horiz-adv-x="610" 
d="M613 19l-6 -29c-10 0 -23 1 -35 1c-115 6 -149 32 -188 96c-24 40 -51 94 -76 146c-14 31 -28 45 -57 46h-17v-149c0 -82 7 -92 75 -97v-33h-277v33c69 5 77 15 77 97v386c0 80 -8 86 -73 93v33h268c73 0 117 -11 154 -35c40 -27 65 -70 65 -131
c0 -85 -50 -134 -115 -162c12 -30 48 -97 76 -144c31 -53 51 -83 70 -104c21 -25 41 -40 59 -47zM234 318h27c38 0 62 7 83 25c29 24 43 64 43 117c0 106 -57 144 -108 144c-21 0 -32 -4 -38 -10c-5 -6 -7 -14 -7 -36v-240z" />
    <glyph glyph-name="S" unicode="S" horiz-adv-x="471" 
d="M411 491l-34 -6c-21 62 -50 132 -126 132c-47 0 -87 -39 -87 -97c0 -57 35 -89 112 -132c96 -52 164 -107 164 -206c0 -109 -88 -195 -227 -195c-34 0 -64 5 -90 12c-27 8 -44 15 -59 22c-10 26 -21 101 -28 159l34 11c20 -61 70 -165 160 -165c56 0 92 41 92 101
c0 57 -38 96 -108 137c-90 51 -163 107 -163 203c0 104 76 188 214 188c53 0 102 -16 127 -24c3 -38 10 -81 19 -140z" />
    <glyph glyph-name="T" unicode="T" horiz-adv-x="561" 
d="M541 485l-33 -2c-11 50 -22 80 -37 97s-40 22 -80 22h-45v-473c0 -82 7 -90 86 -96v-33h-297v33c76 6 83 14 83 96v473h-36c-55 0 -76 -7 -91 -26c-14 -17 -24 -50 -35 -94h-34c4 66 10 135 11 185h24c15 -21 26 -25 53 -25h346c24 0 37 6 51 25h25c1 -41 5 -121 9 -182z
" />
    <glyph glyph-name="U" unicode="U" horiz-adv-x="655" 
d="M649 642v-33c-51 -2 -71 -20 -75 -54c-4 -32 -8 -66 -8 -146v-107c0 -99 -13 -185 -63 -243c-41 -46 -103 -72 -168 -72c-60 0 -119 13 -162 51c-50 43 -71 110 -71 225v246c0 86 -7 94 -73 100v33h271v-33c-63 -6 -70 -14 -70 -100v-242c0 -141 45 -213 141 -213
c99 0 147 76 147 238v117c0 78 -4 117 -7 146c-5 33 -24 51 -90 54v33h228z" />
    <glyph glyph-name="V" unicode="V" horiz-adv-x="638" 
d="M632 642v-33c-58 -8 -74 -15 -111 -112c-32 -80 -116 -306 -186 -508h-45c-62 182 -147 423 -184 527c-28 76 -42 87 -97 93v33h275l-1 -33c-63 -8 -66 -16 -53 -62c21 -65 91 -264 127 -372h2c36 100 87 246 115 344c20 68 17 81 -56 90v33h214z" />
    <glyph glyph-name="W" unicode="W" horiz-adv-x="879" 
d="M870 642v-33c-61 -9 -75 -19 -101 -101c-21 -68 -75 -241 -151 -519h-47c-48 145 -96 280 -145 428h-2c-45 -143 -89 -289 -130 -428h-48c-49 177 -96 346 -146 525c-22 79 -39 88 -90 95v33h274v-33c-67 -8 -70 -17 -57 -70c28 -113 58 -229 87 -337h2
c43 141 85 288 126 434h47c47 -147 97 -292 145 -439h2c32 116 72 264 84 328c12 62 9 77 -67 84v33h217z" />
    <glyph glyph-name="X" unicode="X" horiz-adv-x="617" 
d="M624 0h-292v33c55 9 56 20 38 57c-9 19 -30 58 -92 177c-40 -69 -77 -137 -94 -177c-18 -40 -8 -48 50 -57v-33h-227v33c50 7 79 18 106 53c32 44 93 136 142 222c-43 80 -78 149 -123 229c-29 53 -49 65 -111 72v33h276v-33c-50 -8 -53 -18 -41 -41
c18 -37 45 -94 80 -157c27 42 60 104 78 141c17 37 15 47 -46 57v33h219v-33c-60 -7 -84 -17 -121 -68c-30 -42 -64 -95 -108 -166c54 -96 95 -173 145 -259c36 -62 56 -77 121 -83v-33z" />
    <glyph glyph-name="Y" unicode="Y" horiz-adv-x="595" 
d="M585 642v-33c-55 -6 -71 -17 -106 -79c-34 -63 -58 -107 -103 -203c-11 -25 -15 -33 -15 -68v-127c0 -85 7 -92 87 -99v-33h-298v33c75 6 83 14 83 99v115c0 25 -3 35 -10 52c-24 56 -57 119 -115 234c-32 62 -47 69 -95 76v33h262v-33c-58 -9 -57 -18 -40 -56
c32 -70 66 -143 102 -216c25 53 70 146 95 214c14 39 11 50 -59 58v33h212z" />
    <glyph glyph-name="Z" unicode="Z" horiz-adv-x="553" 
d="M509 181l33 -7c-6 -42 -24 -138 -34 -174h-473l-10 16c104 178 239 422 333 585h-98c-93 0 -111 -11 -125 -31c-12 -18 -25 -47 -36 -93l-32 2c3 67 10 137 11 188h26c14 -23 26 -25 52 -25h356l7 -14c-109 -192 -216 -381 -327 -581c30 -4 55 -6 110 -6
c67 0 123 7 149 32c22 22 39 52 58 108z" />
    <glyph glyph-name="bracketleft" unicode="[" horiz-adv-x="325" 
d="M279 -163h-179v866h179v-34c-92 -9 -95 -11 -95 -90v-623c0 -73 2 -75 95 -84v-35z" />
    <glyph glyph-name="backslash" unicode="\" horiz-adv-x="305" 
d="M279 -45h-69l-185 700h69z" />
    <glyph glyph-name="bracketright" unicode="]" horiz-adv-x="325" 
d="M225 -163h-179v35c90 9 95 11 95 89v618c0 78 -5 80 -95 89v35h179v-866z" />
    <glyph glyph-name="asciicircum" unicode="^" horiz-adv-x="559" 
d="M501 213h-76l-147 338l-147 -338h-72l188 410h66z" />
    <glyph glyph-name="underscore" unicode="_" horiz-adv-x="500" 
d="M500 -125h-500v50h500v-50z" />
    <glyph glyph-name="quoteleft" unicode="&#x2018;" horiz-adv-x="226" 
d="M180 707l13 -34c-51 -24 -80 -55 -80 -93c0 -36 26 -63 65 -72c4 -1 13 -11 13 -34c0 -28 -27 -47 -52 -47h-1c-47 0 -107 46 -107 122c0 89 77 138 149 158z" />
    <glyph glyph-name="a" unicode="a" horiz-adv-x="439" 
d="M440 42l-105 -54c-24 0 -43 9 -55 21c-14 12 -20 23 -24 34c-30 -22 -75 -55 -99 -55c-80 0 -128 66 -128 125c0 51 22 79 71 99c46 18 127 45 150 66v41c0 58 -25 88 -54 88c-15 0 -25 -5 -36 -19c-10 -13 -18 -35 -25 -67c-6 -24 -18 -32 -36 -32c-26 0 -63 20 -63 48
c0 16 11 30 33 46c39 27 101 62 160 71c41 0 72 -13 97 -34c34 -29 43 -69 43 -116v-179c0 -44 14 -58 32 -58c12 0 22 3 30 6zM250 78v160c-17 -10 -35 -21 -53 -32c-28 -17 -42 -33 -42 -68c0 -48 34 -74 60 -74c14 0 24 4 35 14z" />
    <glyph glyph-name="b" unicode="b" horiz-adv-x="500" 
d="M185 418l33 16c27 14 41 20 61 20c114 0 191 -99 191 -212c0 -146 -103 -254 -246 -254c-47 0 -96 10 -161 37v536c0 58 -3 63 -56 67v30c50 6 124 20 178 35v-275zM185 384v-279c0 -15 1 -26 5 -37c6 -14 23 -41 52 -41c50 -1 96 64 96 189c0 123 -54 175 -115 175
c-11 0 -25 -2 -38 -7z" />
    <glyph glyph-name="c" unicode="c" horiz-adv-x="394" 
d="M371 115l19 -24c-42 -60 -100 -103 -161 -103c-128 0 -199 103 -199 213c0 72 34 143 98 193c54 41 112 60 151 60h1c34 0 63 -11 79 -24c16 -12 20 -23 19 -35c0 -33 -28 -57 -42 -57c-6 0 -12 3 -21 12c-35 36 -63 54 -90 54c-43 0 -76 -53 -76 -152
c0 -136 80 -176 122 -176c39 0 65 11 100 39z" />
    <glyph glyph-name="d" unicode="d" horiz-adv-x="510" 
d="M501 57v-31c-27 -4 -113 -16 -183 -38v53l-50 -34c-22 -16 -38 -19 -52 -19c-81 0 -186 71 -186 218c0 136 107 248 250 248c10 0 21 -2 38 -5v114c0 54 -3 60 -60 66v29c62 7 138 21 182 35v-573c0 -51 5 -56 35 -60zM318 75v286c-14 36 -37 52 -61 52
c-22 0 -91 -24 -91 -179c0 -121 63 -172 106 -172c17 0 29 2 46 13z" />
    <glyph glyph-name="e" unicode="e" horiz-adv-x="415" 
d="M376 117l18 -25c-54 -82 -126 -104 -167 -104c-126 0 -197 100 -197 213c0 84 36 148 71 183c38 40 89 70 143 70h1c89 0 153 -80 153 -161c0 -22 -4 -33 -27 -37c-14 -3 -132 -12 -223 -16c2 -107 59 -164 125 -164c41 0 71 13 103 41zM227 415c-35 0 -69 -53 -75 -129
c39 1 73 2 109 3c17 0 22 5 22 23c0 50 -20 103 -56 103z" />
    <glyph glyph-name="f" unicode="f" horiz-adv-x="305" 
d="M48 442h36v19c0 21 4 41 11 63c7 25 27 70 78 114c33 29 66 49 112 55c39 -2 63 -13 76 -26c12 -12 15 -24 13 -38s-17 -33 -33 -44c-12 -8 -21 -6 -30 2c-24 25 -52 49 -78 49c-16 0 -23 -12 -27 -28c-5 -17 -5 -52 -1 -140l1 -26h104c5 -11 1 -38 -12 -46h-92v-291
c0 -63 7 -67 73 -74v-31h-251v31c50 7 56 11 56 74v291h-59l-6 11z" />
    <glyph glyph-name="g" unicode="g" horiz-adv-x="454" 
d="M451 438l6 -8c-6 -18 -22 -45 -36 -56l-54 3c16 -20 25 -44 25 -77c0 -102 -83 -153 -178 -153c-8 0 -22 2 -42 4c-9 -8 -16 -20 -16 -31c0 -16 16 -37 56 -37c32 0 60 1 90 1c73 0 144 -30 144 -118c0 -108 -120 -199 -252 -199c-122 0 -178 63 -178 119
c0 19 8 34 26 49c22 19 54 38 75 52c-36 15 -58 39 -69 58c-9 15 -14 34 -12 50c51 20 82 47 99 65c-57 20 -96 69 -96 131c0 110 94 163 181 163h1c43 0 72 -9 104 -28c45 2 88 8 126 12zM214 418c-29 0 -53 -37 -53 -110c0 -75 24 -125 64 -124c34 0 54 36 54 109
s-21 125 -65 125zM220 -18c-49 0 -68 -4 -81 -20c-12 -13 -21 -28 -21 -48c0 -51 54 -95 124 -95c73 0 113 41 113 92c0 36 -23 53 -51 62c-24 7 -48 9 -84 9z" />
    <glyph glyph-name="h" unicode="h" horiz-adv-x="514" 
d="M496 0h-221v31c43 7 47 12 47 69v183c0 73 -29 98 -65 98c-23 0 -45 -7 -65 -28v-253c0 -59 5 -63 41 -69v-31h-223v31c54 5 60 9 60 72v462c0 58 -3 59 -53 65v28c52 6 116 20 175 35v-302c31 31 75 63 125 63c84 0 127 -58 127 -161v-190c0 -63 5 -65 52 -72v-31z" />
    <glyph glyph-name="i" unicode="i" horiz-adv-x="275" 
d="M137 510c-35 0 -66 32 -66 69c0 39 31 68 67 68c38 0 67 -29 67 -68c0 -37 -29 -69 -68 -69zM265 0h-240v31c52 6 58 10 58 78v206c0 62 -5 64 -52 74v28c55 7 116 20 174 37v-345c0 -67 5 -72 60 -78v-31z" />
    <glyph glyph-name="j" unicode="j" horiz-adv-x="271" 
d="M140 509c-36 0 -67 32 -67 69c0 39 31 69 68 69c36 0 66 -30 66 -69c0 -37 -30 -69 -67 -69zM29 389v27c56 8 119 22 179 38v-326c0 -63 -7 -100 -25 -147c-40 -103 -113 -184 -134 -200c-13 -10 -21 -14 -32 -14c-13 0 -39 21 -39 52c0 19 11 27 25 27c40 2 61 8 67 19
c6 12 10 35 12 66c3 46 4 94 4 164v216c0 64 -3 65 -57 78z" />
    <glyph glyph-name="k" unicode="k" horiz-adv-x="486" 
d="M501 0l-167 -2c-27 39 -70 118 -111 194c-11 18 -17 25 -23 25c-3 1 -6 1 -9 1v-110c0 -66 4 -70 62 -77v-31h-244v31c56 6 61 10 61 77v456c0 54 -3 58 -54 66v28c48 6 118 19 175 35v-446c23 5 44 18 59 38c22 28 40 61 53 84c12 23 10 35 -28 40v30l194 9v-30
c-61 -12 -86 -25 -111 -54c-22 -25 -35 -42 -62 -79c24 -43 96 -163 132 -207c26 -33 41 -41 73 -47v-31z" />
    <glyph glyph-name="l" unicode="l" horiz-adv-x="261" 
d="M251 0h-241v31c55 7 59 13 59 77v452c0 60 -2 64 -56 71v27c54 6 122 19 178 35v-585c0 -67 5 -71 60 -77v-31z" />
    <glyph glyph-name="m" unicode="m" horiz-adv-x="782" 
d="M764 0h-220v31c41 5 46 10 46 71v183c0 71 -30 92 -63 92c-22 0 -41 -5 -70 -31c1 -15 2 -27 2 -37v-209c0 -59 5 -63 47 -69v-31h-216v31c43 6 47 9 47 69v187c0 65 -27 90 -64 90c-24 0 -45 -10 -68 -30v-247c0 -59 6 -63 42 -69v-31h-224v31c56 6 60 10 60 72v216
c0 59 -2 63 -47 73v26c54 7 116 21 168 37v-72c18 13 32 24 51 37c31 20 55 34 88 34c52 0 89 -34 105 -76c20 15 40 29 63 45c25 17 51 31 79 31c83 0 122 -60 122 -153v-199c0 -61 4 -64 52 -71v-31z" />
    <glyph glyph-name="n" unicode="n" horiz-adv-x="527" 
d="M509 0h-219v31c40 5 45 8 45 72v183c0 69 -27 92 -62 92c-25 0 -45 -9 -68 -29v-249c0 -60 5 -64 42 -69v-31h-225v31c56 6 61 8 61 72v216c0 60 -3 64 -48 73v26c61 7 119 21 170 37v-70c20 14 36 28 56 41c26 17 44 28 76 28c78 0 120 -61 120 -153v-199
c0 -63 5 -65 52 -71v-31z" />
    <glyph glyph-name="o" unicode="o" horiz-adv-x="488" 
d="M249 454c128 0 209 -105 209 -224c0 -162 -103 -242 -213 -242c-145 0 -215 115 -215 223c0 165 117 243 219 243zM235 416c-37 0 -70 -55 -70 -170c0 -125 32 -220 89 -220c34 0 69 28 69 175c0 134 -32 215 -88 215z" />
    <glyph glyph-name="p" unicode="p" horiz-adv-x="506" 
d="M195 394l69 45c15 10 29 15 45 15c111 0 168 -98 168 -193c0 -149 -103 -244 -225 -273c-26 0 -44 6 -57 12v-117c0 -60 6 -66 76 -72v-30h-261v30c58 5 63 12 63 72v436c0 60 -4 63 -55 70v29c57 9 117 27 177 46v-70zM195 359v-285c18 -21 47 -40 72 -40
c43 0 85 55 85 179c0 119 -55 167 -102 167c-22 0 -41 -9 -55 -21z" />
    <glyph glyph-name="q" unicode="q" horiz-adv-x="502" 
d="M501 -219h-256v31c63 7 72 11 72 72v138l-75 -34c-147 0 -213 116 -213 213c0 145 124 253 262 253c35 -4 52 -11 61 -15c14 -5 21 -6 30 -6s23 3 56 13l3 -4c-1 -21 -2 -39 -2 -107v-452c0 -60 6 -64 62 -71v-31zM317 56v321c-17 23 -39 38 -62 38
c-41 0 -92 -63 -92 -179c0 -121 68 -187 123 -187c10 0 18 1 31 7z" />
    <glyph glyph-name="r" unicode="r" horiz-adv-x="379" 
d="M206 351h2c32 61 66 103 106 103c34 0 59 -28 59 -62c0 -35 -24 -63 -48 -72c-13 -5 -22 -3 -29 3c-15 13 -26 20 -41 20c-17 0 -33 -6 -49 -44v-198c0 -61 5 -65 73 -70v-31h-252v31c51 5 57 11 57 70v220c0 53 -5 58 -49 69v27c60 7 119 20 171 38v-104z" />
    <glyph glyph-name="s" unicode="s" horiz-adv-x="364" 
d="M316 327l-29 -11c-27 67 -56 102 -96 102c-29 0 -51 -27 -51 -57c0 -32 22 -55 68 -77c74 -37 129 -73 129 -150c0 -99 -89 -146 -168 -146c-54 0 -103 19 -122 34c-5 19 -14 88 -15 125l29 6c23 -63 65 -128 121 -128c31 0 52 26 52 57c0 32 -17 58 -70 86
c-49 27 -121 66 -121 145c0 76 57 140 161 141c42 0 68 -8 91 -18c8 -23 19 -94 21 -109z" />
    <glyph glyph-name="t" unicode="t" horiz-adv-x="318" 
d="M310 34l-79 -35c-16 -7 -30 -11 -41 -11c-71 0 -114 35 -114 124v284h-57l-5 11l27 35h35v70l108 76l14 -7v-139h94c10 -11 9 -40 -6 -46h-88v-251c0 -75 28 -89 53 -89c22 0 36 5 49 11z" />
    <glyph glyph-name="u" unicode="u" horiz-adv-x="512" 
d="M501 54v-30c-31 -4 -60 -10 -90 -16c-29 -6 -57 -13 -83 -20l-8 7v58c-14 -14 -24 -24 -43 -37c-27 -18 -52 -28 -84 -28c-80 0 -121 55 -121 137v219c0 42 -4 47 -28 53l-21 5v29c28 1 59 4 90 7s60 8 84 11c-2 -42 -3 -94 -3 -151v-147c0 -65 31 -87 63 -87
c25 0 41 6 63 27v248c0 45 -4 52 -28 58l-27 5v29c28 1 62 5 94 7c33 4 61 8 83 11v-329c0 -50 5 -61 35 -64z" />
    <glyph glyph-name="v" unicode="v" horiz-adv-x="437" 
d="M451 442v-30c-46 -9 -57 -18 -79 -71c-33 -80 -77 -199 -133 -351h-38c-44 121 -86 236 -132 355c-18 48 -29 60 -74 67v30h229v-30c-43 -7 -46 -16 -33 -55c23 -69 61 -179 70 -205c16 42 45 133 65 200c12 39 10 52 -41 60v30h166z" />
    <glyph glyph-name="w" unicode="w" horiz-adv-x="642" 
d="M654 442v-30c-42 -8 -50 -15 -69 -65c-36 -95 -74 -216 -120 -357h-39c-34 92 -70 182 -105 273c-34 -92 -65 -178 -100 -273h-37c-38 126 -79 258 -112 360c-16 49 -27 57 -66 62v30h233v-30c-53 -9 -57 -16 -47 -52c16 -63 35 -131 53 -201h2c34 95 61 186 93 278h37
c32 -89 68 -180 104 -277h2c17 55 42 144 53 191c9 45 1 53 -56 61v30h174z" />
    <glyph glyph-name="x" unicode="x" horiz-adv-x="454" 
d="M461 0h-237v31c39 4 40 15 25 45l-45 88c-19 -27 -34 -58 -50 -89c-15 -29 -11 -38 28 -44v-31h-176v31c47 7 68 18 100 58c21 27 47 67 76 110l-80 147c-26 48 -39 60 -86 66v30h221v-30c-33 -6 -35 -14 -21 -41l42 -78c21 31 34 58 45 78c15 27 7 36 -29 41v30h170v-30
c-47 -6 -60 -14 -90 -49c-23 -28 -43 -57 -75 -104l87 -155c32 -58 55 -70 95 -73v-31z" />
    <glyph glyph-name="y" unicode="y" horiz-adv-x="439" 
d="M452 442v-30c-46 -8 -54 -18 -76 -72c-24 -58 -51 -132 -104 -273c-59 -161 -78 -225 -91 -273c-7 -23 -19 -30 -37 -30c-28 0 -68 28 -68 59c0 16 7 26 27 38c33 19 54 35 69 61c11 23 18 37 21 49c2 14 -1 28 -7 45c-50 151 -99 287 -119 335c-18 44 -28 56 -69 61v30
h233v-30c-48 -6 -48 -17 -37 -54l68 -219c25 73 49 152 68 218c10 37 3 48 -46 55v30h168z" />
    <glyph glyph-name="z" unicode="z" horiz-adv-x="415" 
d="M378 143l30 -13c-17 -50 -31 -94 -43 -130h-332l-9 13c76 134 143 262 208 389h-49c-61 0 -84 -20 -108 -71l-14 -29l-31 11c13 42 28 107 36 150h25c7 -15 18 -21 52 -21h231l8 -13c-72 -135 -133 -250 -204 -389h55c63 0 98 13 130 74z" />
    <glyph glyph-name="braceleft" unicode="{" horiz-adv-x="327" 
d="M284 -133v-35c-81 0 -163 21 -163 138c0 65 6 131 5 198c0 32 -5 79 -81 85v36c78 6 81 52 81 84c0 67 -5 135 -5 196c0 120 85 141 163 141v-35c-71 -8 -80 -48 -80 -93c0 -65 11 -141 11 -192c0 -55 -26 -104 -86 -117v-4c59 -13 86 -63 86 -118
c0 -53 -11 -126 -11 -183c0 -54 9 -92 80 -101z" />
    <glyph glyph-name="bar" unicode="|" horiz-adv-x="245" 
d="M163 -250h-80v1000h80v-1000z" />
    <glyph glyph-name="braceright" unicode="}" horiz-adv-x="327" 
d="M283 289v-36c-79 -5 -82 -46 -82 -93c0 -57 6 -126 6 -190c0 -113 -83 -138 -163 -138v35c71 9 80 50 80 96c0 58 -10 123 -11 188c0 57 23 105 82 118v4c-59 13 -82 61 -82 116c0 66 10 134 11 191c0 46 -9 85 -80 95v34c82 0 163 -21 163 -136c0 -65 -6 -134 -6 -191
c0 -47 2 -87 82 -93z" />
    <glyph glyph-name="asciitilde" unicode="~" horiz-adv-x="577" 
d="M478 321l48 -25c-26 -68 -69 -109 -134 -109c-44 0 -83 21 -117 40c-31 17 -56 30 -87 30c-41 0 -67 -27 -91 -74l-44 33c41 85 100 102 139 102c40 0 69 -11 106 -33c35 -20 69 -36 100 -36c35 0 62 27 80 72z" />
    <glyph glyph-name="exclamdown" unicode="&#xa1;" horiz-adv-x="267" 
d="M134 457c42 0 74 -32 74 -78c0 -45 -32 -78 -75 -78c-42 0 -74 33 -74 78c0 46 32 78 75 78zM133 -216c-58 0 -75 18 -75 41c0 17 3 34 9 71c18 110 31 215 46 328c2 12 41 12 43 0c15 -113 27 -218 45 -328c6 -37 8 -54 8 -71c0 -23 -15 -41 -76 -41z" />
    <glyph glyph-name="cent" unicode="&#xa2;" horiz-adv-x="466" 
d="M406 226l19 -24c-34 -50 -83 -90 -136 -101v-97h-38v94c-132 5 -208 102 -208 202c0 71 34 138 95 184c34 26 74 41 113 49v82h38v-78c7 1 11 1 15 1c29 0 71 -8 93 -24c10 -8 14 -19 14 -27c0 -28 -25 -48 -38 -48c-4 0 -9 2 -18 12c-23 24 -43 39 -66 43v-315
c47 0 85 17 117 47zM251 186v309c-37 -3 -95 -45 -95 -148c0 -100 51 -146 95 -161z" />
    <glyph glyph-name="sterling" unicode="&#xa3;" horiz-adv-x="466" 
d="M372 292h-137v-16c0 -64 -56 -122 -108 -151c36 1 70 -4 102 -18c46 -18 97 -44 130 -44c28 0 36 10 36 24c0 16 -3 30 -7 40c-3 7 -3 14 3 22c12 17 29 28 40 28c16 0 25 -20 25 -41c0 -48 -47 -99 -83 -126c-32 -25 -65 -37 -97 -37c-45 0 -91 37 -133 59
c-29 14 -44 22 -62 22c-14 0 -28 -16 -33 -40c-3 -11 -7 -17 -15 -17c-15 0 -32 15 -23 46c7 28 42 62 61 90c26 36 36 77 36 114c0 16 -1 31 -3 45h-89v45h81c-4 36 -6 56 -6 81c0 51 25 122 91 171c34 26 71 44 110 46c46 0 77 -22 92 -37c10 -12 13 -28 3 -45
c-7 -12 -17 -22 -24 -27c-10 -6 -19 -6 -31 2c-30 22 -60 50 -94 50c-28 0 -38 -19 -38 -62c0 -48 17 -111 30 -179h143v-45z" />
    <glyph glyph-name="fraction" unicode="&#x2044;" horiz-adv-x="168" 
d="M290 621l-374 -661l-38 28l373 660z" />
    <glyph glyph-name="yen" unicode="&#xa5;" horiz-adv-x="466" 
d="M458 623v-33c-43 -5 -51 -14 -78 -66c-22 -41 -44 -89 -88 -188h113v-42h-119v-29v-37h120v-42h-120v-66c0 -72 7 -83 82 -87v-33h-281v33c71 4 77 15 77 87v66h-118v42h118v25v41h-118v42h109c-20 54 -44 120 -73 186c-23 52 -33 63 -73 68v33h231v-33l-24 -5
c-22 -4 -25 -11 -18 -34c26 -77 45 -133 65 -188c27 62 56 133 70 175c11 35 8 45 -18 49l-24 3v33h167z" />
    <glyph glyph-name="florin" unicode="&#x192;" horiz-adv-x="466" 
d="M148 373l5 27c15 86 45 143 103 191c60 51 109 61 132 61c28 0 71 -21 70 -50c-1 -21 -27 -53 -44 -54c-19 0 -44 52 -77 52c-12 0 -19 -7 -24 -22c-8 -18 -18 -56 -36 -205h101v-44h-106l-22 -142c-30 -203 -98 -253 -150 -289c-35 -25 -72 -36 -94 -36
c-31 0 -63 19 -63 47c0 27 31 54 47 54c14 0 47 -44 72 -44c11 0 18 7 22 20c6 18 14 66 25 152l31 238h-80v44h88z" />
    <glyph glyph-name="section" unicode="&#xa7;" horiz-adv-x="464" 
d="M412 202c-1 -80 -50 -163 -94 -214c-45 -51 -92 -83 -149 -98c-18 0 -49 7 -69 21c-13 10 -19 21 -19 31c0 12 19 35 29 42c7 6 14 9 22 4c9 -6 40 -29 86 -29c32 0 54 22 54 44c0 27 -18 51 -65 95c-29 29 -69 67 -98 95c-38 36 -68 90 -68 154c0 78 41 146 85 192
c47 50 83 80 143 95c26 0 55 -14 70 -26c8 -7 12 -15 12 -25c0 -18 -17 -37 -25 -43c-5 -3 -13 -4 -22 3c-13 9 -40 27 -76 27c-31 0 -54 -17 -54 -38c0 -19 13 -39 40 -61c28 -24 69 -60 102 -88c49 -43 97 -96 96 -181zM99 406c0 -46 26 -100 99 -167
c51 -47 86 -81 100 -104c13 -21 27 -48 24 -82l3 -1c19 31 26 63 26 91c0 45 -19 96 -84 153c-27 23 -69 61 -95 86c-20 20 -47 59 -44 106l-2 2c-16 -24 -27 -50 -27 -84z" />
    <glyph glyph-name="currency" unicode="&#xa4;" horiz-adv-x="466" 
d="M440 139l-45 -47l-70 77c-28 -23 -63 -33 -98 -33s-70 10 -99 34l-70 -78l-44 47l74 69c-26 31 -39 74 -39 117c0 42 14 86 40 116l-75 70l44 47l70 -78c29 24 64 34 99 34h1c34 0 69 -10 97 -34l70 78l45 -47l-76 -70c27 -30 41 -74 41 -116c0 -43 -14 -86 -41 -117z
M227 452c-58 0 -98 -55 -98 -127c0 -74 40 -127 99 -127s98 53 98 127c0 72 -39 127 -99 127z" />
    <glyph glyph-name="quotesingle" unicode="'" horiz-adv-x="179" 
d="M135 699l11 -9c-3 -35 -23 -176 -35 -252l-36 -17c-13 89 -35 230 -40 245z" />
    <glyph glyph-name="quotedblleft" unicode="&#x201c;" horiz-adv-x="418" 
d="M180 707l12 -34c-51 -24 -79 -54 -79 -92c0 -37 26 -64 65 -73c4 -1 13 -11 13 -34c0 -28 -27 -47 -52 -47h-1c-47 0 -107 46 -107 122c0 89 77 138 149 158zM372 707l12 -34c-51 -24 -79 -54 -79 -92c0 -37 25 -64 65 -73c4 -1 13 -11 13 -34c0 -28 -27 -47 -52 -47h-1
c-47 0 -107 46 -107 122c0 89 77 138 149 158z" />
    <glyph glyph-name="guillemotleft" unicode="&#xab;" horiz-adv-x="449" 
d="M233 52l-31 -19c-43 65 -101 133 -155 192c54 58 112 128 155 192l31 -20l-79 -172zM401 52l-31 -19c-43 65 -102 133 -155 192c54 58 113 128 155 192l31 -20l-79 -172z" />
    <glyph glyph-name="guilsinglleft" unicode="&#x2039;" horiz-adv-x="276" 
d="M232 52l-31 -19c-43 65 -101 133 -155 192c54 58 112 128 155 192l31 -20l-78 -172z" />
    <glyph glyph-name="guilsinglright" unicode="&#x203a;" horiz-adv-x="276" 
d="M44 398l31 19c44 -64 103 -134 155 -192c-53 -58 -111 -128 -155 -192l-31 18l79 174z" />
    <glyph glyph-name="fi" unicode="&#xfb01;" horiz-adv-x="542" 
d="M530 0h-224v32c39 5 44 13 44 71v223c0 60 -3 69 -47 69h-97v-294c0 -55 7 -63 51 -69v-32h-227v32c48 6 54 14 54 69v294h-58l-5 12l27 35h36v17c0 33 8 62 22 92s37 58 69 83c46 37 93 56 143 59c52 -1 90 -22 108 -43c15 -17 17 -36 12 -51c-4 -12 -16 -28 -32 -37
c-17 -10 -32 -9 -42 4c-13 17 -47 77 -100 77c-27 0 -42 -24 -50 -62c-7 -29 -8 -76 -8 -116v-23h90c47 0 118 1 176 12v-351c0 -58 4 -65 58 -71v-32z" />
    <glyph glyph-name="fl" unicode="&#xfb02;" horiz-adv-x="542" 
d="M530 0h-224v32c38 5 44 13 44 70v503c-15 22 -39 44 -70 44c-23 0 -41 -14 -54 -37c-13 -24 -20 -62 -20 -118v-52h95c5 -12 1 -40 -12 -47h-83v-295c0 -54 5 -61 50 -68v-32h-226v32c48 7 54 11 54 68v295h-59l-6 12l30 35h35v17c0 33 7 61 22 93c14 30 36 58 71 85
c37 29 82 54 139 57c42 1 68 -8 94 -23c17 5 32 12 51 18l11 -5v-582c0 -58 4 -64 58 -70v-32z" />
    <glyph glyph-name="endash" unicode="&#x2013;" horiz-adv-x="504" 
d="M454 197h-404v68h404v-68z" />
    <glyph glyph-name="dagger" unicode="&#x2020;" horiz-adv-x="480" 
d="M262 -105h-51c2 35 2 65 2 110c0 122 -19 222 -35 261c25 47 39 81 38 124c-57 0 -90 -19 -118 -39c-20 6 -48 30 -60 57c12 26 40 51 60 58c28 -20 61 -38 118 -41c-2 65 -18 91 -47 135c14 29 40 53 68 68c30 -15 53 -39 67 -68c-27 -44 -46 -70 -47 -135
c57 2 90 20 118 41c20 -6 48 -31 60 -58c-12 -27 -40 -50 -60 -57c-28 20 -61 38 -118 40c-1 -44 17 -78 41 -125c-16 -39 -38 -139 -38 -261c0 -45 0 -75 2 -110z" />
    <glyph glyph-name="daggerdbl" unicode="&#x2021;" horiz-adv-x="473" 
d="M433 118c-12 -26 -39 -50 -59 -56c-28 20 -61 37 -117 39c2 -67 19 -94 46 -140c-12 -28 -37 -54 -68 -65c-30 11 -55 36 -67 65c27 46 44 73 46 140c-56 -2 -89 -19 -116 -39c-21 6 -48 30 -60 56c12 27 39 52 60 58c27 -20 60 -37 116 -40c-2 69 -17 110 -45 135
c28 29 43 68 45 131c-56 -2 -89 -18 -116 -38c-21 6 -48 30 -60 56c12 26 39 51 60 57c27 -20 60 -36 116 -39c-2 53 -17 79 -46 125c13 28 38 54 68 65c29 -11 56 -37 67 -65c-27 -46 -44 -72 -46 -125c56 3 89 19 117 39c20 -6 47 -31 59 -57c-12 -26 -39 -50 -59 -56
c-28 20 -61 36 -117 38c1 -63 17 -102 45 -131c-27 -25 -44 -63 -45 -132l3 -3c53 2 86 20 114 40c20 -6 47 -31 59 -58z" />
    <glyph glyph-name="periodcentered" unicode="&#xb7;" horiz-adv-x="248" 
d="M123 154c-41 0 -73 32 -73 78c0 44 32 76 74 76s74 -32 74 -76c0 -46 -32 -78 -75 -78z" />
    <glyph glyph-name="paragraph" unicode="&#xb6;" horiz-adv-x="477" 
d="M445 531l-27 -32l-80 -10v-469c0 -82 -24 -141 -71 -188c-35 -36 -85 -53 -96 -53c-26 0 -52 12 -66 25c-9 9 -10 19 -8 29c3 11 13 26 21 32c7 5 14 7 21 4c18 -12 44 -23 67 -23c34 0 73 17 73 152v140l-65 -30c-4 -2 -7 -2 -16 -2c-61 0 -161 79 -161 208
c0 68 29 128 67 165c40 39 99 63 146 63h191z" />
    <glyph glyph-name="bullet" unicode="&#x2022;" horiz-adv-x="384" 
d="M193 357c68 0 127 -57 127 -132s-59 -131 -128 -131c-70 0 -128 56 -128 131s58 132 129 132z" />
    <glyph glyph-name="quotesinglbase" unicode="&#x201a;" horiz-adv-x="236" 
d="M93 158c48 0 111 -48 111 -128c0 -93 -80 -143 -155 -164l-14 35c56 25 85 61 85 99c0 36 -25 65 -69 73c-4 1 -13 13 -13 36c0 29 28 49 55 49z" />
    <glyph glyph-name="quotedblbase" unicode="&#x201e;" horiz-adv-x="440" 
d="M295 158c48 0 110 -48 110 -129c0 -91 -79 -142 -154 -163l-14 34c56 26 85 62 85 100c0 37 -26 65 -69 73c-5 1 -14 13 -14 36c0 29 28 49 56 49zM95 158c48 0 111 -48 111 -128c0 -92 -79 -143 -154 -164l-14 34c55 26 84 62 84 100c0 37 -26 65 -69 73
c-4 1 -13 13 -13 36c0 29 28 49 55 49z" />
    <glyph glyph-name="quotedblright" unicode="&#x201d;" horiz-adv-x="418" 
d="M88 699c46 0 106 -46 106 -122c0 -88 -77 -138 -149 -158l-12 35c52 24 79 54 79 92c0 36 -25 64 -64 72c-5 1 -13 12 -13 35c0 27 26 46 53 46zM281 699c46 0 106 -46 106 -122c0 -88 -78 -138 -149 -158l-12 35c51 24 79 54 79 92c0 36 -25 64 -65 72
c-4 1 -13 12 -13 35c0 27 27 46 54 46z" />
    <glyph glyph-name="guillemotright" unicode="&#xbb;" horiz-adv-x="449" 
d="M49 398l31 19c43 -64 102 -134 155 -192c-53 -58 -112 -128 -155 -192l-31 18l79 174zM216 398l31 19c43 -64 102 -134 155 -192c-53 -58 -112 -128 -155 -192l-31 18l79 174z" />
    <glyph glyph-name="ellipsis" unicode="&#x2026;" horiz-adv-x="899" 
d="M148 -12c-40 0 -72 32 -72 77c0 44 32 76 73 76c42 0 74 -32 74 -76c0 -45 -32 -77 -75 -77zM450 -12c-40 0 -72 32 -72 77c0 44 32 76 73 76c42 0 74 -32 74 -76c0 -45 -32 -77 -75 -77zM748 -12c-41 0 -73 32 -73 77c0 44 32 76 74 76c41 0 73 -32 73 -76
c0 -45 -32 -77 -74 -77z" />
    <glyph glyph-name="perthousand" unicode="&#x2030;" horiz-adv-x="1041" 
d="M568 625l-390 -664l-37 25l389 663zM187 635c104 0 147 -96 147 -173c0 -78 -41 -176 -148 -176c-105 0 -147 98 -147 175c0 78 42 174 148 174zM187 601c-45 0 -54 -92 -54 -139c0 -50 9 -141 55 -141c44 0 51 93 51 141c0 46 -6 139 -52 139zM534 336
c105 0 147 -97 147 -174s-40 -174 -148 -174c-106 0 -148 97 -148 173c0 78 42 175 149 175zM858 336c105 0 147 -97 147 -174s-40 -174 -148 -174c-105 0 -148 97 -148 173c0 78 43 175 149 175zM533 302c-45 0 -54 -91 -54 -139c0 -50 9 -141 55 -141c45 0 52 93 52 140
s-6 140 -53 140zM857 302c-44 0 -53 -91 -53 -139c0 -51 9 -141 54 -141c46 0 53 93 53 140s-6 140 -54 140z" />
    <glyph glyph-name="questiondown" unicode="&#xbf;" horiz-adv-x="383" 
d="M195 457c42 0 74 -33 74 -78c0 -44 -32 -79 -75 -79s-75 35 -75 79c0 45 32 78 76 78zM159 222l23 23c50 -20 120 -70 120 -134c0 -37 -19 -71 -90 -119c-54 -36 -103 -69 -103 -91c0 -21 15 -35 42 -35c62 0 114 62 130 62c19 0 54 -30 54 -63c0 -17 -6 -26 -20 -39
c-31 -28 -84 -42 -111 -42h-1c-78 0 -166 81 -166 175c0 38 8 69 56 104c43 31 94 69 94 97c0 18 -7 36 -28 62z" />
    <glyph glyph-name="grave" unicode="`" 
d="M237 500l-35 -11c-53 70 -104 133 -121 154l3 10c13 8 79 20 98 17c19 -58 36 -111 55 -170z" />
    <glyph glyph-name="acute" unicode="&#xb4;" 
d="M201 489l-35 12c15 45 45 137 52 158c13 7 81 14 103 11l6 -11z" />
    <glyph glyph-name="circumflex" unicode="&#x2c6;" 
d="M318 504l-31 -21c-35 35 -61 63 -88 91c-26 -28 -52 -58 -87 -91l-30 21c38 62 69 113 101 173h32c31 -60 64 -111 103 -173z" />
    <glyph glyph-name="tilde" unicode="&#x2dc;" 
d="M95 511l-31 17c23 72 53 98 84 98c18 0 31 -5 58 -18c23 -13 38 -21 54 -21c19 0 31 19 43 44l31 -14c-22 -82 -55 -101 -81 -101c-21 0 -44 12 -65 24s-31 16 -47 16s-31 -13 -46 -45z" />
    <glyph glyph-name="macron" unicode="&#xaf;" 
d="M313 534h-225v69h225v-69z" />
    <glyph glyph-name="breve" unicode="&#x2d8;" 
d="M279 650h36c0 -112 -51 -147 -116 -147c-64 0 -114 35 -114 147h36c9 -46 37 -73 79 -73c43 0 71 27 79 73z" />
    <glyph glyph-name="dotaccent" unicode="&#x2d9;" 
d="M199 511c-35 0 -66 31 -66 68c0 39 31 69 67 69c38 0 67 -30 67 -69c0 -37 -29 -68 -68 -68z" />
    <glyph glyph-name="dieresis" unicode="&#xa8;" 
d="M102 512c-34 0 -63 29 -63 65c0 37 29 65 64 65c36 0 63 -28 63 -65c0 -36 -27 -65 -64 -65zM296 512c-34 0 -63 29 -63 65c0 37 29 65 64 65c36 0 63 -28 63 -65c0 -36 -27 -65 -64 -65z" />
    <glyph glyph-name="ring" unicode="&#x2da;" 
d="M200 494c-48 0 -93 35 -93 91c0 55 45 89 94 89c46 0 93 -34 93 -89c0 -56 -47 -91 -94 -91zM201 532c27 0 44 23 44 52s-17 51 -45 51c-25 0 -45 -22 -45 -51s20 -52 46 -52z" />
    <glyph glyph-name="cedilla" unicode="&#xb8;" 
d="M243 0l-22 -25c-11 -12 -10 -20 8 -38c22 -27 33 -46 33 -68c0 -41 -40 -76 -110 -101l-14 25c36 21 52 41 52 60c0 14 -10 25 -18 34c-25 26 -30 42 -9 67l38 46h42z" />
    <glyph glyph-name="hungarumlaut" unicode="&#x2dd;" 
d="M140 487l-32 9c11 47 30 148 33 165c12 7 68 15 92 13l5 -11zM279 487l-31 9c11 50 30 148 32 165c13 7 69 15 93 13l5 -11z" />
    <glyph glyph-name="ogonek" unicode="&#x2db;" 
d="M278 -178l-45 -25c-14 -8 -28 -11 -40 -11c-47 0 -77 33 -77 75c0 46 40 101 70 139h37c-18 -32 -34 -75 -34 -110s23 -47 43 -47c14 0 26 2 38 8z" />
    <glyph glyph-name="caron" unicode="&#x2c7;" 
d="M287 687l31 -21c-38 -62 -70 -114 -101 -172h-32c-31 59 -64 110 -103 172l31 21c35 -33 61 -62 87 -92c27 29 54 58 87 92z" />
    <glyph glyph-name="emdash" unicode="&#x2014;" horiz-adv-x="908" 
d="M858 198h-808v67h808v-67z" />
    <glyph glyph-name="AE" unicode="&#xc6;" horiz-adv-x="812" 
d="M770 164l33 -7c-6 -37 -24 -128 -32 -157h-463v33c76 6 85 16 85 101v154h-157c-43 -95 -62 -145 -74 -177c-22 -58 -17 -70 53 -78v-33h-222v33c54 6 76 19 109 85c67 136 127 269 204 437c16 35 11 44 -20 47l-52 7v33h515c1 -17 5 -87 9 -141l-33 -4
c-11 40 -19 64 -34 81c-15 18 -42 24 -99 24h-40c-30 0 -34 -2 -34 -35v-233h61c76 0 85 5 98 69h34v-188h-34c-13 68 -22 73 -98 73h-61v-158c0 -50 5 -72 21 -81c15 -8 44 -9 80 -9c50 0 80 9 100 32c17 20 36 49 51 92zM393 334v266c-8 0 -17 -4 -27 -12
c-31 -71 -64 -140 -111 -254h138z" />
    <glyph glyph-name="ordfeminine" unicode="&#xaa;" horiz-adv-x="322" 
d="M307 306l-70 -35c-32 0 -47 21 -54 36c-19 -14 -53 -36 -70 -36c-52 0 -85 40 -85 79c0 30 16 47 50 62c25 11 83 29 103 43v18c0 28 -17 48 -37 48s-33 -23 -42 -57c-4 -13 -12 -17 -26 -17c-20 0 -44 15 -44 32c0 11 7 21 21 31c18 12 62 38 111 46c52 0 96 -28 96 -90
v-105c0 -29 11 -36 21 -36c7 0 13 1 20 4zM181 333v93c-11 -5 -28 -13 -41 -20c-16 -9 -25 -21 -25 -38c0 -30 22 -45 39 -45c11 0 21 5 27 10z" />
    <glyph glyph-name="Lslash" unicode="&#x141;" horiz-adv-x="516" 
d="M479 169l35 -7c-7 -36 -25 -136 -32 -162h-445v33c75 7 84 15 84 98v134l-90 -65v52l90 64v193c0 82 -6 94 -74 100v33h278l-1 -33c-67 -6 -75 -18 -75 -100v-114l119 86v-53l-119 -85v-217c0 -47 5 -68 22 -77c15 -7 38 -8 67 -8c40 0 75 8 93 32c17 20 32 52 48 96z
" />
    <glyph glyph-name="Oslash" unicode="&#xd8;" horiz-adv-x="655" 
d="M553 668l-42 -76c64 -57 107 -150 107 -261c0 -213 -124 -344 -294 -344c-53 0 -100 13 -142 38l-44 -76l-31 24l43 74c-71 61 -112 158 -112 271c0 155 92 337 296 337c53 0 102 -13 145 -40l41 71zM210 149l220 384c-28 60 -68 81 -109 81c-80 0 -143 -110 -143 -279
c0 -69 11 -135 32 -186zM450 489l-220 -385c26 -49 65 -76 109 -76c78 0 138 88 138 274c0 74 -9 137 -27 187z" />
    <glyph glyph-name="OE" unicode="&#x152;" horiz-adv-x="893" 
d="M849 166l34 -7c-6 -37 -24 -127 -32 -159h-297c-37 0 -64 -1 -98 -5s-61 -6 -85 -6c-232 0 -334 153 -334 325c0 199 140 339 355 339c34 0 61 -3 92 -6c27 -3 51 -5 82 -5h262c1 -17 6 -86 10 -142l-35 -3c-11 38 -21 64 -37 81c-15 18 -41 24 -102 24h-34
c-30 0 -34 -2 -34 -35v-210h55c81 0 90 5 105 74h35v-196h-35c-15 71 -23 75 -105 75h-55v-178c0 -53 5 -74 21 -83c15 -8 39 -9 76 -9c52 0 82 8 104 32c19 21 36 50 52 94zM469 96v458c0 29 -7 39 -25 47c-19 9 -39 11 -65 11c-109 0 -197 -101 -197 -285
c0 -163 74 -297 201 -297c19 0 40 2 56 9c22 10 30 23 30 57z" />
    <glyph glyph-name="ordmasculine" unicode="&#xba;" horiz-adv-x="344" 
d="M176 556c88 0 143 -65 142 -142c-2 -95 -71 -144 -148 -144c-94 0 -147 68 -145 139c2 96 81 147 151 147zM166 523c-21 0 -46 -28 -47 -100c-1 -70 24 -120 58 -120c19 0 45 20 47 94c2 80 -22 126 -58 126z" />
    <glyph glyph-name="ae" unicode="&#xe6;" horiz-adv-x="640" 
d="M258 283v27c0 54 -25 98 -59 98c-14 0 -26 -8 -34 -19c-10 -15 -20 -38 -28 -71c-5 -21 -18 -29 -37 -29c-23 0 -62 20 -62 46c0 16 9 31 32 48c35 26 95 59 156 71c44 0 67 -13 89 -30c10 -8 20 -18 26 -28c39 38 84 58 129 58c87 0 154 -76 154 -159
c0 -31 -4 -36 -24 -41c-13 -3 -136 -11 -230 -15c0 -110 55 -162 126 -162c38 0 70 12 107 41l18 -24c-56 -87 -131 -106 -170 -106c-75 0 -124 33 -156 84l-30 -26c-35 -31 -75 -58 -108 -58c-79 0 -127 66 -127 124c0 52 23 83 71 104c44 19 130 46 157 67zM445 414
c-34 0 -65 -48 -71 -131c41 0 74 2 114 3c15 0 20 5 20 23c0 55 -28 105 -63 105zM217 68c21 0 44 12 62 35c-17 42 -23 86 -22 140c-18 -9 -42 -22 -60 -33c-27 -18 -41 -37 -41 -72c0 -44 32 -70 61 -70z" />
    <glyph glyph-name="dotlessi" unicode="&#x131;" horiz-adv-x="276" 
d="M265 0h-239v32c51 6 58 13 58 81v201c0 59 -1 63 -53 74v29c55 7 117 20 175 37v-341c0 -69 5 -75 59 -81v-32z" />
    <glyph glyph-name="lslash" unicode="&#x142;" horiz-adv-x="287" 
d="M280 464l-77 -69v-282c0 -67 6 -75 62 -81v-32h-247v32c58 6 63 14 63 81v186l-66 -61v55l66 61v210c0 54 -3 58 -60 68v28c50 6 123 19 182 35v-245l77 69v-55z" />
    <glyph glyph-name="oslash" unicode="&#xf8;" horiz-adv-x="493" 
d="M410 461l-32 -51c56 -44 85 -110 85 -179c0 -163 -107 -243 -216 -243c-39 0 -78 11 -107 27l-36 -55l-27 21l35 54c-58 45 -82 113 -82 176c0 158 113 243 222 243c37 0 66 -7 98 -25l32 51zM170 127l136 231c-17 40 -37 58 -66 57c-40 0 -84 -54 -84 -184
c0 -32 4 -69 14 -104zM323 319l-137 -232c18 -40 38 -61 69 -61c36 0 82 32 82 181c0 40 -3 78 -14 112z" />
    <glyph glyph-name="oe" unicode="&#x153;" horiz-adv-x="716" 
d="M250 454c62 0 111 -28 145 -77c32 36 82 77 148 77c88 0 155 -76 155 -159c0 -30 -5 -36 -23 -40c-14 -3 -137 -12 -233 -16c1 -103 55 -164 132 -164c38 0 68 14 102 43l18 -23c-55 -88 -128 -107 -167 -107c-64 0 -111 26 -145 70c-41 -49 -90 -70 -141 -70
c-141 0 -213 115 -213 223c0 158 113 243 222 243zM519 415c-34 0 -67 -50 -73 -132c42 1 77 2 117 3c14 0 19 4 19 23c0 55 -26 106 -63 106zM238 416c-36 0 -72 -54 -72 -169c0 -118 33 -219 91 -219c33 0 69 35 69 173c1 136 -33 215 -88 215z" />
    <glyph glyph-name="germandbls" unicode="&#xdf;" horiz-adv-x="532" 
d="M85 442v9c0 33 6 57 16 85c11 32 34 77 91 118c38 27 81 42 119 43c105 0 165 -66 165 -155c0 -16 -4 -27 -13 -35c-48 -36 -81 -68 -81 -110c0 -39 26 -65 63 -105c33 -34 64 -73 64 -129c0 -86 -100 -176 -187 -176c-19 0 -36 4 -51 14c-13 9 -17 20 -13 33
c3 8 10 21 19 28c8 6 15 7 23 1c21 -16 43 -26 63 -26s43 16 43 55c0 33 -21 63 -51 96c-48 53 -79 90 -79 142c0 51 35 77 63 107c14 16 26 27 31 34c5 8 7 23 7 44c1 65 -40 137 -96 137c-70 0 -74 -106 -74 -234v-317c0 -56 5 -62 38 -68v-33h-215v33c49 7 55 12 55 67
v293h-56l-5 9l25 40h36z" />
    <glyph glyph-name="onesuperior" unicode="&#xb9;" horiz-adv-x="324" 
d="M265 390h-200v28c44 4 54 12 54 61v165c0 36 -1 41 -29 44l-24 3v26c43 5 96 16 146 31v-269c0 -49 10 -57 53 -61v-28z" />
    <glyph glyph-name="logicalnot" unicode="&#xac;" horiz-adv-x="577" 
d="M531 101h-73v211h-411v63h484v-274z" />
    <glyph glyph-name="mu" unicode="&#xb5;" horiz-adv-x="504" 
d="M492 68l11 -28c-17 -24 -61 -52 -107 -52c-41 0 -76 21 -85 67h-2c-25 -31 -62 -67 -105 -67c-30 0 -53 15 -68 39h-4v-17c0 -76 23 -187 37 -226l-15 -17c-30 3 -73 24 -86 40c-6 22 -3 140 -3 266v253c0 48 -1 81 -2 106l120 22c3 -27 3 -72 3 -111v-172
c0 -74 33 -103 65 -103c27 0 41 12 55 28v336l122 22v-330c0 -47 18 -63 34 -63c11 0 21 2 30 7z" />
    <glyph glyph-name="trademark" unicode="&#x2122;" horiz-adv-x="465" 
d="M188 582h-17c-4 13 -6 22 -11 25c-3 4 -12 7 -23 7h-11v-91c0 -27 1 -29 26 -30v-18h-95v18c25 1 26 3 26 30v91h-9c-13 0 -21 -4 -25 -8c-3 -3 -9 -12 -11 -24h-17c1 24 3 45 3 57h15c1 -3 3 -5 5 -5c2 -1 5 -1 8 -1h107c7 0 9 1 13 6h15c0 -13 1 -34 1 -57zM441 475
h-87v18c22 1 22 3 22 25l1 85h-2l-57 -126h-17l-47 123h-2l-3 -57c-1 -19 -2 -29 -1 -37c0 -9 6 -12 24 -13v-18h-73v18c14 0 19 4 21 13c2 8 4 15 5 40l3 38c2 25 0 28 -24 29v20h80l39 -83l41 83h73v-20c-18 -1 -19 -4 -19 -26l1 -65c0 -26 2 -28 22 -29v-18z" />
    <glyph glyph-name="Eth" unicode="&#xd0;" horiz-adv-x="676" 
d="M49 642h253c110 0 202 -24 259 -86c45 -49 77 -118 77 -211c0 -122 -41 -208 -108 -263c-66 -57 -155 -82 -265 -82h-223v33c72 8 79 15 79 100v179h-86v48h86v149c0 87 -7 94 -72 101v32zM248 312v-178c0 -67 10 -91 65 -91c97 0 182 94 182 285c0 104 -24 175 -62 219
c-34 39 -80 55 -127 55c-27 0 -43 -6 -50 -12c-7 -7 -8 -22 -8 -52v-178h118v-48h-118z" />
    <glyph glyph-name="onehalf" unicode="&#xbd;" horiz-adv-x="730" 
d="M260 278h-200v27c45 4 55 12 55 61v166c0 37 -2 42 -29 45l-25 2v26c43 5 96 15 146 30v-268c0 -49 10 -57 53 -61v-28zM554 621l-374 -661l-38 28l373 660zM649 106l25 -7c-11 -36 -16 -68 -24 -99h-245v24c52 45 149 125 149 201c0 45 -21 68 -56 68
c-29 0 -52 -19 -72 -46l-22 19l34 46c23 28 59 46 97 46c64 0 115 -40 115 -109c0 -48 -32 -85 -104 -145l-42 -34v-2h88c33 0 39 4 57 38z" />
    <glyph glyph-name="plusminus" unicode="&#xb1;" horiz-adv-x="577" 
d="M531 305h-205v-195h-73v195h-206v63h206v181h73v-181h205v-63zM531 0h-484v63h484v-63z" />
    <glyph glyph-name="Thorn" unicode="&#xde;" horiz-adv-x="552" 
d="M305 642v-33c-64 -6 -71 -11 -71 -107c28 1 54 1 82 1c129 0 207 -56 207 -169c0 -114 -91 -187 -221 -187l-68 15v-40c0 -72 9 -82 81 -89v-33h-278v33c64 6 72 17 72 95v395c0 74 -8 80 -67 86v33h263zM234 426v-222c12 -6 26 -9 44 -9c30 0 108 23 108 134
c0 101 -54 134 -112 134c-19 0 -28 -4 -33 -10c-5 -4 -7 -12 -7 -27z" />
    <glyph glyph-name="onequarter" unicode="&#xbc;" horiz-adv-x="728" 
d="M271 278h-201v27c44 4 54 12 54 61v166c0 37 -1 42 -29 45l-24 2v26c43 5 96 15 146 30v-268c0 -49 10 -57 54 -61v-28zM572 621l-374 -661l-38 28l373 660zM658 96h-52v-20c0 -37 9 -46 48 -50v-26h-194v26c50 4 59 12 59 50v20h-147v26c60 83 117 165 179 236h55v-220
h52v-42zM519 138v130h-2c-29 -42 -56 -80 -88 -130h90z" />
    <glyph glyph-name="divide" unicode="&#xf7;" horiz-adv-x="577" 
d="M289 346c-29 0 -58 27 -58 59c0 31 29 60 59 60c33 0 60 -29 60 -60c0 -32 -27 -59 -61 -59zM530 222h-483v63h483v-63zM290 161c29 0 58 -27 58 -59c0 -31 -29 -60 -59 -60c-34 0 -60 29 -60 60c0 32 26 59 61 59z" />
    <glyph glyph-name="brokenbar" unicode="&#xa6;" horiz-adv-x="245" 
d="M163 325h-80v350h80v-350zM163 -175h-80v350h80v-350z" />
    <glyph glyph-name="degree" unicode="&#xb0;" horiz-adv-x="323" 
d="M162 655c71 0 130 -50 130 -130c0 -83 -60 -131 -131 -131s-130 48 -130 131c0 80 59 130 131 130zM162 611c-42 0 -71 -37 -71 -86c0 -51 30 -86 72 -86c40 0 69 35 69 83c0 53 -28 89 -70 89z" />
    <glyph glyph-name="thorn" unicode="&#xfe;" horiz-adv-x="502" 
d="M188 693v-291c27 16 51 28 78 42c9 5 21 10 40 10c111 0 166 -101 166 -195c0 -145 -104 -243 -223 -271c-32 0 -49 7 -61 13v-106c0 -68 6 -78 77 -83v-31h-259v31c54 5 60 12 60 81v662c0 61 -3 67 -59 74v29c54 6 121 18 181 35zM188 367v-295c18 -20 41 -38 64 -38
c41 0 96 44 96 178c0 125 -59 170 -105 170c-26 0 -39 -7 -55 -15z" />
    <glyph glyph-name="threequarters" unicode="&#xbe;" horiz-adv-x="730" 
d="M575 621l-374 -661l-38 28l373 660zM659 95h-52v-19c0 -37 9 -45 48 -49v-27h-194v27c50 4 59 12 59 49v19h-147v27c59 83 117 164 179 236h55v-220l52 -1v-42zM520 137v131h-2c-29 -42 -56 -80 -88 -131h90zM227 489v-2c53 -9 89 -36 89 -84c0 -87 -123 -132 -175 -132
c-28 0 -57 11 -68 20c-7 7 -11 18 -7 30c4 13 14 23 23 29c6 4 15 4 22 -2c16 -13 43 -36 70 -36c20 0 43 16 43 63c0 52 -32 72 -68 72c-13 0 -26 -2 -35 -5l-6 28c57 19 84 42 84 70c0 25 -18 38 -42 38c-28 0 -50 -20 -66 -39l-18 19l32 41c17 18 48 36 86 36h1
c63 0 101 -37 101 -78c0 -16 -9 -31 -19 -40c-9 -8 -22 -16 -47 -28z" />
    <glyph glyph-name="twosuperior" unicode="&#xb2;" horiz-adv-x="324" 
d="M273 496l25 -7c-11 -35 -16 -67 -23 -98h-246v23c53 45 149 126 149 202c0 44 -21 67 -56 67c-29 0 -52 -19 -72 -46l-21 19l33 46c23 28 59 46 97 46c64 0 115 -40 115 -108c0 -49 -32 -86 -104 -145l-42 -35v-1h88c33 0 40 4 57 37z" />
    <glyph glyph-name="registered" unicode="&#xae;" horiz-adv-x="312" 
d="M158 653c74 0 130 -59 130 -129c0 -69 -56 -130 -131 -130c-73 0 -129 57 -129 130c0 70 57 129 130 129zM157 630c-58 0 -100 -46 -100 -106c0 -61 44 -107 101 -107c58 0 102 46 102 107c0 60 -44 106 -103 106zM232 467l-3 -12c-23 0 -37 4 -49 21
c-9 12 -16 23 -20 30c-3 6 -7 7 -12 7h-4v-23c0 -18 2 -18 19 -19v-15h-68v15c18 1 19 1 19 19v69c0 19 -1 19 -18 20v15h68c23 0 49 -6 49 -36c0 -17 -11 -29 -27 -35c10 -19 18 -29 33 -46c5 -5 10 -8 13 -10zM144 530h9c5 0 12 2 17 5c7 4 11 10 11 20
c0 20 -16 24 -24 24c-10 0 -13 -2 -13 -12v-37z" />
    <glyph glyph-name="minus" unicode="&#x2212;" horiz-adv-x="577" 
d="M531 222h-484v63h484v-63z" />
    <glyph glyph-name="eth" unicode="&#xf0;" horiz-adv-x="486" 
d="M426 651l-109 -63c87 -85 135 -197 135 -320c0 -200 -100 -280 -214 -280c-141 0 -210 113 -209 227c2 153 106 239 223 239h1c12 0 29 -2 44 -8c-9 34 -28 66 -54 99l-127 -72l-20 35l120 67c-40 45 -102 73 -144 84c-7 6 -1 30 9 34c72 -8 144 -34 203 -76l121 68z
M247 415c-48 0 -83 -61 -83 -172c-1 -121 31 -215 86 -215c34 0 73 24 74 202c1 77 -7 130 -20 150c-13 21 -31 35 -57 35z" />
    <glyph glyph-name="multiply" unicode="&#xd7;" horiz-adv-x="577" 
d="M519 58l-48 -49l-183 188l-184 -188l-46 49l182 187l-182 186l46 49l184 -186l183 188l48 -48l-184 -189z" />
    <glyph glyph-name="threesuperior" unicode="&#xb3;" horiz-adv-x="324" 
d="M198 601v-2c53 -9 89 -36 89 -84c0 -87 -123 -132 -175 -132c-28 0 -57 11 -68 20c-7 7 -11 18 -7 30s14 22 24 28c5 4 14 4 21 -1c16 -13 43 -36 70 -36c20 0 43 16 43 63c0 51 -32 72 -67 72c-14 0 -27 -3 -36 -6l-5 29c56 19 83 42 83 71c0 24 -18 38 -42 38
c-28 0 -50 -21 -66 -39l-18 18l32 42c17 18 49 36 86 36h1c63 0 101 -37 101 -78c0 -17 -9 -32 -19 -41c-9 -8 -22 -16 -47 -28z" />
    <glyph glyph-name="copyright" unicode="&#xa9;" horiz-adv-x="696" 
d="M349 627c170 0 304 -136 304 -307c0 -167 -134 -305 -305 -305c-176 0 -304 138 -304 305c0 170 133 307 305 307zM348 588c-146 0 -252 -114 -252 -267s106 -267 253 -267s252 114 252 267s-105 267 -253 267zM476 257l26 -5c-7 -29 -17 -69 -25 -87
c-24 -8 -71 -20 -110 -20c-129 0 -190 89 -190 173c0 113 91 178 195 178c50 0 88 -11 108 -18c2 -25 6 -54 11 -94l-25 -3c-19 54 -45 84 -94 84c-66 0 -108 -57 -108 -140c0 -87 50 -147 109 -147c51 0 81 29 103 79z" />
    <glyph glyph-name="Aacute" unicode="&#xc1;" horiz-adv-x="633" 
d="M619 0h-263v33c54 7 59 19 43 68c-10 30 -21 70 -33 103h-172c-8 -25 -19 -58 -30 -97c-15 -54 -11 -65 56 -74v-33h-207v33c56 6 71 17 99 93l188 517l47 12c60 -174 113 -345 174 -517c31 -88 43 -99 98 -105v-33zM349 255l-67 217h-3c-26 -74 -46 -145 -70 -217h140z
M476 746l-4 -12l-191 -60l-16 30c52 39 113 84 160 117c18 -7 48 -53 51 -75z" />
    <glyph glyph-name="Acircumflex" unicode="&#xc2;" horiz-adv-x="633" 
d="M619 0h-263v33c54 7 59 19 43 68c-10 30 -21 70 -33 103h-172c-8 -25 -19 -58 -30 -97c-15 -54 -11 -65 56 -74v-33h-207v33c56 6 71 17 99 93l188 517l47 12c60 -174 113 -345 174 -517c31 -88 43 -99 98 -105v-33zM349 255l-67 217h-3c-26 -74 -46 -145 -70 -217h140z
M466 704l-18 -28c-45 21 -86 43 -122 62c-37 -19 -77 -41 -123 -62l-17 28c44 38 90 82 126 121h28c35 -40 81 -83 126 -121z" />
    <glyph glyph-name="Adieresis" unicode="&#xc4;" horiz-adv-x="633" 
d="M619 0h-263v33c54 7 59 19 43 68c-10 30 -22 70 -33 103h-172c-8 -25 -19 -58 -30 -97c-15 -54 -11 -65 56 -74v-33h-207v33c57 6 72 17 99 93l188 517l47 12c60 -174 113 -345 174 -517c31 -88 43 -99 98 -105v-33zM349 255l-68 217h-2c-26 -74 -46 -145 -70 -217h140z
M421 820c36 0 63 -28 63 -65c0 -36 -27 -65 -64 -65c-34 0 -63 29 -63 65c0 37 29 65 64 65zM222 820c36 0 63 -28 63 -65c0 -36 -27 -65 -64 -65c-34 0 -63 29 -63 65c0 37 29 65 64 65z" />
    <glyph glyph-name="Agrave" unicode="&#xc0;" horiz-adv-x="633" 
d="M619 0h-263v33c54 7 59 19 43 68c-10 30 -21 70 -33 103h-172c-8 -25 -19 -58 -30 -97c-15 -54 -11 -65 56 -74v-33h-207v33c56 6 71 17 99 93l188 517l47 12c60 -174 113 -345 174 -517c31 -88 43 -99 98 -105v-33zM349 255l-67 217h-3c-26 -74 -46 -145 -70 -217h140z
M377 705l-15 -30l-192 60l-3 12c5 22 33 67 50 78c53 -39 106 -79 160 -120z" />
    <glyph glyph-name="Aring" unicode="&#xc5;" horiz-adv-x="633" 
d="M618 0h-262v33c53 7 58 19 42 68c-10 30 -21 70 -33 103h-171c-8 -25 -19 -58 -30 -97c-15 -54 -11 -65 56 -74v-33h-207v33c56 6 71 17 99 93l187 517l48 12c59 -174 112 -345 174 -517c31 -88 42 -99 97 -105v-33zM349 255l-68 217h-2c-26 -74 -46 -145 -70 -217h140z
M324 853c45 0 92 -34 92 -89c0 -56 -47 -90 -93 -90c-47 0 -92 34 -92 90c0 55 45 89 93 89zM323 815c-25 0 -45 -23 -45 -51c0 -30 20 -53 46 -53c27 0 44 23 44 51c0 30 -17 53 -45 53z" />
    <glyph glyph-name="Atilde" unicode="&#xc3;" horiz-adv-x="633" 
d="M619 0h-263v33c54 7 59 19 43 68c-10 30 -21 70 -33 103h-172c-8 -25 -19 -58 -30 -97c-15 -54 -11 -65 56 -74v-33h-207v33c56 6 71 17 99 93l188 517l47 12c60 -174 113 -345 174 -517c31 -88 43 -99 98 -105v-33zM349 255l-67 217h-3c-26 -74 -46 -145 -70 -217h140z
M272 792c20 0 33 -5 63 -18c22 -10 39 -18 58 -18c20 0 33 18 46 42l30 -16c-24 -76 -56 -95 -88 -95c-21 0 -44 10 -67 21c-21 10 -32 15 -50 15c-17 0 -35 -14 -50 -45l-31 19c26 72 60 95 89 95z" />
    <glyph glyph-name="Ccedilla" unicode="&#xc7;" horiz-adv-x="585" 
d="M535 174l35 -13c-12 -46 -32 -113 -47 -149c-21 -6 -77 -20 -132 -23l-13 -14c-10 -11 -8 -19 9 -39c22 -27 33 -47 33 -69c0 -40 -39 -75 -111 -102l-16 27c36 23 52 42 52 60c0 15 -11 27 -17 35c-24 27 -29 42 -11 64l31 37c-224 6 -309 172 -309 324
c0 201 135 343 346 343c67 0 126 -16 152 -22c7 -58 13 -98 18 -152l-35 -9c-36 110 -89 141 -156 141c-109 0 -179 -130 -179 -280c0 -183 79 -302 183 -302c73 0 122 53 167 143z" />
    <glyph glyph-name="Eacute" unicode="&#xc9;" horiz-adv-x="532" 
d="M489 164l34 -8c-6 -39 -24 -127 -32 -156h-465v33c74 7 83 12 83 94v389c0 82 -9 87 -72 93v33h431c1 -17 6 -86 10 -143l-34 -4c-10 36 -20 63 -35 80c-14 18 -40 27 -101 27h-36c-31 0 -35 -3 -35 -36v-210h57c79 0 88 4 103 74h34v-196h-34c-15 71 -23 75 -103 75h-57
v-181c0 -47 5 -69 21 -77c15 -9 42 -11 78 -11c53 0 82 8 103 32c17 20 34 50 50 92zM421 745l-4 -11l-191 -60l-16 29c52 39 113 84 160 118c18 -8 48 -53 51 -76z" />
    <glyph glyph-name="Ecircumflex" unicode="&#xca;" horiz-adv-x="532" 
d="M489 164l34 -8c-6 -39 -24 -127 -32 -156h-465v33c74 7 83 12 83 94v389c0 82 -9 87 -72 93v33h431c1 -17 6 -86 10 -143l-34 -4c-10 36 -20 63 -35 80c-14 18 -40 27 -101 27h-36c-31 0 -35 -3 -35 -36v-210h57c79 0 88 4 103 74h34v-196h-34c-15 71 -23 75 -103 75h-57
v-181c0 -47 5 -69 21 -77c15 -9 42 -11 78 -11c53 0 82 8 103 32c17 20 34 50 50 92zM410 703l-18 -27c-45 20 -86 43 -123 62c-36 -19 -76 -42 -122 -62l-17 27c44 38 90 82 126 122h28c35 -40 81 -83 126 -122z" />
    <glyph glyph-name="Edieresis" unicode="&#xcb;" horiz-adv-x="532" 
d="M489 164l34 -8c-6 -39 -24 -127 -32 -156h-465v33c74 7 83 12 83 94v389c0 82 -9 87 -72 93v33h431c1 -17 6 -86 10 -143l-34 -4c-10 36 -20 63 -35 80c-14 18 -40 27 -101 27h-36c-31 0 -35 -3 -35 -36v-210h57c79 0 88 4 103 74h34v-196h-34c-15 71 -23 75 -103 75h-57
v-181c0 -47 5 -69 21 -77c15 -9 42 -11 78 -11c53 0 82 8 103 32c17 20 34 50 50 92zM367 819c36 0 63 -28 63 -65c0 -36 -27 -65 -64 -65c-34 0 -63 29 -63 65c0 37 29 65 64 65zM167 819c36 0 63 -28 63 -65c0 -36 -27 -65 -64 -65c-34 0 -63 29 -63 65c0 37 29 65 64 65z
" />
    <glyph glyph-name="Egrave" unicode="&#xc8;" horiz-adv-x="532" 
d="M489 164l34 -8c-6 -39 -24 -127 -32 -156h-465v33c74 7 83 12 83 94v389c0 82 -9 87 -72 93v33h431c1 -17 6 -86 10 -143l-34 -4c-10 36 -20 63 -35 80c-14 18 -40 27 -101 27h-36c-31 0 -35 -3 -35 -36v-210h57c79 0 88 4 103 74h34v-196h-34c-15 71 -23 75 -103 75h-57
v-181c0 -47 5 -69 21 -77c15 -9 42 -11 78 -11c53 0 82 8 103 32c17 20 34 50 50 92zM336 705l-15 -31l-193 60l-3 12c5 23 33 67 51 78c52 -38 106 -79 160 -119z" />
    <glyph glyph-name="Iacute" unicode="&#xcd;" horiz-adv-x="346" 
d="M311 0h-276v33c66 6 74 15 74 95v384c0 83 -7 91 -74 97v33h276v-33c-68 -6 -74 -14 -74 -97v-384c0 -79 7 -89 74 -95v-33zM317 746l-4 -12l-191 -60l-16 30c52 39 113 84 160 117c18 -7 48 -53 51 -75z" />
    <glyph glyph-name="Icircumflex" unicode="&#xce;" horiz-adv-x="346" 
d="M311 0h-276v33c66 6 74 15 74 95v384c0 83 -7 91 -74 97v33h276v-33c-68 -6 -74 -14 -74 -97v-384c0 -79 7 -89 74 -95v-33zM314 704l-18 -28c-45 21 -86 43 -122 62c-37 -19 -77 -41 -123 -62l-17 28c44 38 90 82 126 121h28c35 -40 81 -83 126 -121z" />
    <glyph glyph-name="Idieresis" unicode="&#xcf;" horiz-adv-x="346" 
d="M311 0h-276v33c66 6 75 15 75 95v384c0 83 -7 91 -75 97v33h276v-33c-68 -6 -74 -14 -74 -97v-384c0 -79 7 -89 74 -95v-33zM271 819l2 1c36 0 63 -28 63 -65c0 -36 -27 -65 -64 -65c-34 0 -63 29 -63 65c0 37 29 65 62 64zM73 820c36 0 63 -28 63 -65
c0 -36 -27 -65 -64 -65c-34 0 -63 29 -63 65c0 37 29 65 64 65z" />
    <glyph glyph-name="Igrave" unicode="&#xcc;" horiz-adv-x="346" 
d="M311 0h-276v33c66 6 74 15 74 95v384c0 83 -7 91 -74 97v33h276v-33c-68 -6 -74 -14 -74 -97v-384c0 -79 7 -89 74 -95v-33zM242 705l-15 -30l-192 60l-3 12c5 22 33 67 50 78c53 -39 106 -79 160 -120z" />
    <glyph glyph-name="Ntilde" unicode="&#xd1;" horiz-adv-x="656" 
d="M644 642v-32c-51 -2 -69 -17 -73 -53c-4 -31 -9 -82 -9 -168v-399h-50l-355 485h-3v-219c0 -84 5 -135 8 -165c5 -38 21 -56 90 -59v-32h-228v32c53 3 72 20 76 58c4 31 9 82 9 166v209c0 66 0 84 -16 106c-17 24 -37 36 -78 39v32h171l326 -428h4v175
c0 86 -5 137 -9 167c-5 36 -24 51 -88 54v32h225zM283 790c19 0 33 -5 63 -19c22 -9 39 -17 57 -17c21 0 33 17 47 41l30 -16c-24 -75 -57 -95 -89 -95c-21 0 -44 11 -66 22c-22 10 -32 15 -51 15c-16 0 -34 -14 -49 -45l-31 19c26 72 60 95 89 95z" />
    <glyph glyph-name="Oacute" unicode="&#xd3;" horiz-adv-x="654" 
d="M335 655c159 0 281 -131 281 -329c0 -211 -127 -339 -291 -339c-174 0 -288 142 -288 332c0 164 96 336 298 336zM320 616c-84 0 -137 -117 -137 -276c0 -170 52 -314 157 -314c77 0 130 94 130 274c0 194 -54 316 -150 316zM465 752l-4 -12l-191 -60l-16 30
c52 39 113 84 160 117c18 -7 48 -53 51 -75z" />
    <glyph glyph-name="Ocircumflex" unicode="&#xd4;" horiz-adv-x="654" 
d="M335 655c159 0 281 -131 281 -329c0 -211 -127 -339 -291 -339c-174 0 -288 142 -288 332c0 164 96 336 298 336zM320 616c-84 0 -137 -117 -137 -276c0 -170 52 -314 157 -314c77 0 130 94 130 274c0 194 -54 316 -150 316zM467 710l-18 -28c-45 21 -86 43 -122 62
c-37 -19 -77 -41 -123 -62l-17 28c44 38 90 82 126 121h28c35 -40 81 -83 126 -121z" />
    <glyph glyph-name="Odieresis" unicode="&#xd6;" horiz-adv-x="654" 
d="M335 655c160 0 281 -131 281 -329c0 -211 -126 -339 -290 -339c-175 0 -288 142 -288 332c0 164 95 336 297 336zM320 616c-84 0 -137 -117 -137 -276c0 -170 52 -314 158 -314c76 0 130 94 130 274c0 194 -55 316 -151 316zM426 821c36 0 63 -28 63 -65
c0 -36 -27 -65 -64 -65c-34 0 -63 29 -63 65c0 37 29 65 64 65zM227 821c36 0 63 -28 63 -65c0 -36 -27 -65 -64 -65c-34 0 -63 29 -63 65c0 37 29 65 64 65z" />
    <glyph glyph-name="Ograve" unicode="&#xd2;" horiz-adv-x="654" 
d="M335 655c159 0 281 -131 281 -329c0 -211 -127 -339 -291 -339c-174 0 -288 142 -288 332c0 164 96 336 298 336zM320 616c-84 0 -137 -117 -137 -276c0 -170 52 -314 157 -314c77 0 130 94 130 274c0 194 -54 316 -150 316zM396 711l-15 -30l-192 60l-3 12
c5 22 33 67 50 78c53 -39 106 -79 160 -120z" />
    <glyph glyph-name="Otilde" unicode="&#xd5;" horiz-adv-x="654" 
d="M335 655c159 0 281 -131 281 -329c0 -211 -127 -339 -291 -339c-174 0 -288 142 -288 332c0 164 96 336 298 336zM320 616c-84 0 -137 -117 -137 -276c0 -170 52 -314 157 -314c77 0 130 94 130 274c0 194 -54 316 -150 316zM273 798c20 0 33 -5 63 -19
c22 -9 39 -17 57 -17c21 0 34 17 47 41l30 -16c-24 -75 -57 -95 -89 -95c-21 0 -44 11 -66 22c-21 10 -32 15 -50 15c-17 0 -35 -14 -50 -45l-30 19c25 72 59 95 88 95z" />
    <glyph glyph-name="Scaron" unicode="&#x160;" horiz-adv-x="471" 
d="M411 491l-34 -6c-21 62 -50 132 -126 132c-47 0 -87 -39 -87 -97c0 -57 35 -89 112 -132c96 -52 164 -107 164 -206c0 -109 -88 -195 -227 -195c-34 0 -64 5 -90 12c-27 8 -44 15 -59 22c-10 26 -21 101 -28 159l34 11c20 -61 70 -165 160 -165c56 0 92 41 92 101
c0 57 -38 96 -108 137c-90 51 -163 107 -163 203c0 104 76 188 214 188c53 0 102 -16 127 -24c3 -38 10 -81 19 -140zM365 832l17 -27c-45 -38 -89 -83 -126 -123h-28c-35 41 -82 84 -126 123l18 27c45 -22 86 -43 122 -62c37 19 77 40 123 62z" />
    <glyph glyph-name="Uacute" unicode="&#xda;" horiz-adv-x="655" 
d="M649 642v-33c-51 -2 -71 -20 -75 -54c-4 -32 -8 -66 -8 -146v-107c0 -99 -13 -185 -63 -243c-41 -46 -103 -72 -168 -72c-60 0 -119 13 -162 51c-50 43 -71 110 -71 225v246c0 86 -7 94 -73 100v33h271v-33c-63 -6 -70 -14 -70 -100v-242c0 -141 45 -213 141 -213
c99 0 147 76 147 238v117c0 78 -4 117 -7 146c-5 33 -24 51 -90 54v33h228zM497 746l-4 -12l-191 -60l-16 30c52 39 113 84 160 117c18 -7 48 -53 51 -75z" />
    <glyph glyph-name="Ucircumflex" unicode="&#xdb;" horiz-adv-x="655" 
d="M649 642v-33c-51 -2 -71 -20 -75 -54c-4 -32 -8 -66 -8 -146v-107c0 -99 -13 -185 -63 -243c-41 -46 -103 -72 -168 -72c-60 0 -119 13 -162 51c-50 43 -71 110 -71 225v246c0 86 -7 94 -73 100v33h271v-33c-63 -6 -70 -14 -70 -100v-242c0 -141 45 -213 141 -213
c99 0 147 76 147 238v117c0 78 -4 117 -7 146c-5 33 -24 51 -90 54v33h228zM487 704l-18 -28c-45 21 -86 43 -122 62c-37 -19 -77 -41 -123 -62l-17 28c44 38 90 82 126 121h28c35 -40 81 -83 126 -121z" />
    <glyph glyph-name="Udieresis" unicode="&#xdc;" horiz-adv-x="655" 
d="M649 642v-33c-51 -2 -71 -20 -75 -54c-5 -32 -8 -66 -8 -146v-107c0 -99 -13 -185 -63 -243c-41 -46 -103 -72 -169 -72c-59 0 -118 13 -162 51c-49 43 -70 110 -70 225v246c0 86 -7 94 -74 100v33h272v-33c-63 -6 -70 -14 -70 -100v-242c0 -141 44 -213 141 -213
c99 0 147 76 147 238v117c0 78 -4 117 -8 146c-4 33 -23 51 -89 54v33h228zM442 819l2 1c36 0 63 -28 63 -65c0 -36 -27 -65 -64 -65c-34 0 -63 29 -63 65c0 37 29 65 62 64zM244 820c36 0 63 -28 63 -65c0 -36 -27 -65 -64 -65c-34 0 -63 29 -63 65c0 37 29 65 64 65z" />
    <glyph glyph-name="Ugrave" unicode="&#xd9;" horiz-adv-x="655" 
d="M649 642v-33c-51 -2 -71 -20 -75 -54c-4 -32 -8 -66 -8 -146v-107c0 -99 -13 -185 -63 -243c-41 -46 -103 -72 -168 -72c-60 0 -119 13 -162 51c-50 43 -71 110 -71 225v246c0 86 -7 94 -73 100v33h271v-33c-63 -6 -70 -14 -70 -100v-242c0 -141 45 -213 141 -213
c99 0 147 76 147 238v117c0 78 -4 117 -7 146c-5 33 -24 51 -90 54v33h228zM408 705l-15 -30l-192 60l-3 12c5 22 33 67 50 78c53 -39 106 -79 160 -120z" />
    <glyph glyph-name="Yacute" unicode="&#xdd;" horiz-adv-x="595" 
d="M585 642v-33c-55 -6 -71 -17 -106 -79c-34 -63 -58 -107 -102 -203c-12 -25 -16 -33 -16 -68v-127c0 -85 8 -92 87 -99v-33h-298v33c76 6 84 14 84 99v115c0 25 -3 35 -11 52c-25 56 -57 119 -116 234c-31 62 -46 69 -94 76v33h261v-33c-57 -9 -57 -18 -40 -56
c32 -70 66 -143 102 -216c25 53 70 146 96 214c14 39 11 50 -60 58v33h213zM458 746l-4 -12l-192 -60l-15 29c52 40 113 85 160 118c18 -7 48 -53 51 -75z" />
    <glyph glyph-name="Ydieresis" unicode="&#x178;" horiz-adv-x="595" 
d="M585 642l-1 -33c-55 -6 -71 -17 -105 -79c-35 -63 -59 -107 -103 -203c-11 -25 -15 -33 -15 -68v-127c0 -85 7 -92 87 -99v-33h-298v33c76 6 84 14 84 99v115c0 25 -3 35 -11 52c-25 56 -57 119 -116 234c-31 62 -46 69 -94 76v33h261v-33c-57 -9 -57 -18 -40 -56
c32 -70 66 -143 102 -216c25 53 70 146 96 214c14 39 11 50 -60 58v33h213zM413 819c36 0 63 -28 63 -65c0 -36 -27 -65 -64 -65c-34 0 -63 29 -63 65c0 37 29 65 64 65zM213 819c36 0 63 -28 63 -65c0 -36 -27 -65 -64 -65c-34 0 -63 29 -63 65c0 37 29 65 64 65z" />
    <glyph glyph-name="Zcaron" unicode="&#x17d;" horiz-adv-x="553" 
d="M509 181l33 -7c-6 -42 -24 -138 -34 -174h-473l-10 16c104 178 239 422 333 585h-98c-93 0 -111 -11 -125 -31c-12 -18 -25 -47 -36 -93l-32 2c3 67 10 137 11 188h26c14 -23 26 -25 52 -25h356l7 -15c-109 -191 -216 -380 -327 -580c30 -4 55 -6 110 -6
c67 0 123 7 149 32c22 22 39 52 58 108zM415 822l17 -27c-45 -38 -90 -82 -127 -122h-27c-36 40 -82 84 -127 122l18 27c45 -22 86 -42 123 -62c37 20 77 40 123 62z" />
    <glyph glyph-name="aacute" unicode="&#xe1;" horiz-adv-x="439" 
d="M440 42l-105 -54c-24 0 -43 9 -55 21c-14 12 -20 23 -24 34c-30 -22 -75 -55 -99 -55c-80 0 -128 66 -128 125c0 51 22 79 71 99c46 18 127 45 150 66v41c0 58 -25 88 -54 88c-15 0 -25 -5 -36 -19c-10 -13 -18 -35 -25 -67c-6 -24 -18 -32 -36 -32c-26 0 -63 20 -63 48
c0 16 11 30 33 46c39 27 101 62 160 71c41 0 72 -13 97 -34c34 -29 43 -69 43 -116v-179c0 -44 14 -58 32 -58c12 0 22 3 30 6zM250 78v160c-17 -10 -35 -21 -53 -32c-28 -17 -42 -33 -42 -68c0 -48 34 -74 60 -74c14 0 24 4 35 14zM213 489l-35 12c15 45 45 137 52 158
c13 7 81 14 103 11l6 -11z" />
    <glyph glyph-name="acircumflex" unicode="&#xe2;" horiz-adv-x="439" 
d="M440 42l-105 -54c-24 0 -43 9 -55 21c-14 12 -20 23 -24 34c-30 -22 -75 -55 -99 -55c-80 0 -128 66 -128 125c0 51 22 79 71 99c46 18 127 45 150 66v41c0 58 -25 88 -54 88c-15 0 -25 -5 -36 -19c-10 -13 -18 -35 -25 -67c-6 -24 -18 -32 -36 -32c-26 0 -63 20 -63 48
c0 16 11 30 33 46c39 27 101 62 160 71c41 0 72 -13 97 -34c34 -29 43 -69 43 -116v-179c0 -44 14 -58 32 -58c12 0 22 3 30 6zM250 78v160c-17 -10 -35 -21 -53 -32c-28 -17 -42 -33 -42 -68c0 -48 34 -74 60 -74c14 0 24 4 35 14zM332 504l-31 -21c-35 35 -61 63 -88 91
c-26 -28 -52 -58 -87 -91l-30 21c38 62 69 113 101 173h32c31 -60 64 -111 103 -173z" />
    <glyph glyph-name="adieresis" unicode="&#xe4;" horiz-adv-x="439" 
d="M440 42l-105 -54c-24 0 -43 9 -55 21c-14 12 -20 23 -24 34c-30 -22 -75 -55 -99 -55c-80 0 -128 66 -128 125c0 51 22 79 70 99c47 18 128 45 151 66v41c0 58 -26 88 -55 88c-15 0 -25 -5 -35 -19c-11 -13 -18 -35 -26 -67c-5 -24 -18 -32 -36 -32c-25 0 -62 20 -62 48
c0 16 11 30 33 46c38 27 101 62 160 71c41 0 72 -13 97 -34c34 -29 43 -69 43 -116v-179c0 -44 14 -58 31 -58c13 0 23 3 31 6zM250 78v160c-17 -10 -35 -21 -54 -32c-27 -17 -41 -33 -41 -68c0 -48 34 -74 60 -74c14 0 24 4 35 14zM116 512c-34 0 -63 29 -63 65
c0 37 29 65 64 65c36 0 63 -28 63 -65c0 -36 -27 -65 -64 -65zM310 512c-34 0 -63 29 -63 65c0 37 29 65 64 65c36 0 63 -28 63 -65c0 -36 -27 -65 -64 -65z" />
    <glyph glyph-name="agrave" unicode="&#xe0;" horiz-adv-x="439" 
d="M440 42l-105 -54c-24 0 -43 9 -55 21c-14 12 -20 23 -24 34c-30 -22 -75 -55 -99 -55c-80 0 -128 66 -128 125c0 51 22 79 71 99c46 18 127 45 150 66v41c0 58 -25 88 -54 88c-15 0 -25 -5 -36 -19c-10 -13 -18 -35 -25 -67c-6 -24 -18 -32 -36 -32c-26 0 -63 20 -63 48
c0 16 11 30 33 46c39 27 101 62 160 71c41 0 72 -13 97 -34c34 -29 43 -69 43 -116v-179c0 -44 14 -58 32 -58c12 0 22 3 30 6zM250 78v160c-17 -10 -35 -21 -53 -32c-28 -17 -42 -33 -42 -68c0 -48 34 -74 60 -74c14 0 24 4 35 14zM256 500l-35 -11
c-53 70 -104 133 -121 154l3 10c13 8 79 20 98 17c19 -58 36 -111 55 -170z" />
    <glyph glyph-name="aring" unicode="&#xe5;" horiz-adv-x="439" 
d="M440 42l-105 -54c-24 0 -44 9 -56 21c-13 12 -20 23 -24 34c-30 -22 -74 -55 -97 -55c-80 0 -129 66 -129 125c0 51 23 79 71 99c46 18 127 45 150 66v41c0 58 -25 88 -54 88c-15 0 -25 -5 -36 -19c-10 -13 -18 -35 -25 -67c-6 -24 -18 -32 -36 -32c-26 0 -63 20 -63 48
c0 16 11 30 33 46c39 27 101 62 160 71c41 0 72 -13 97 -34c34 -29 43 -69 43 -116v-179c0 -44 14 -58 32 -58c12 0 22 3 30 6zM250 78v160c-18 -10 -35 -21 -54 -32c-27 -17 -41 -33 -41 -68c0 -48 34 -74 59 -74c15 0 24 4 36 14zM217 494c-48 0 -93 35 -93 91
c0 55 45 89 94 89c45 0 92 -34 92 -89c0 -56 -47 -91 -93 -91zM218 532c27 0 44 23 44 51c0 29 -17 52 -45 52c-26 0 -45 -23 -45 -51c0 -29 19 -52 46 -52z" />
    <glyph glyph-name="atilde" unicode="&#xe3;" horiz-adv-x="439" 
d="M440 42l-105 -54c-24 0 -43 9 -55 21c-14 12 -20 23 -24 34c-30 -22 -75 -55 -99 -55c-80 0 -128 66 -128 125c0 51 22 79 71 99c46 18 127 45 150 66v41c0 58 -25 88 -54 88c-15 0 -25 -5 -36 -19c-10 -13 -18 -35 -25 -67c-6 -24 -18 -32 -36 -32c-26 0 -63 20 -63 48
c0 16 11 30 33 46c39 27 101 62 160 71c41 0 72 -13 97 -34c34 -29 43 -69 43 -116v-179c0 -44 14 -58 32 -58c12 0 22 3 30 6zM250 78v160c-17 -10 -35 -21 -53 -32c-28 -17 -42 -33 -42 -68c0 -48 34 -74 60 -74c14 0 24 4 35 14zM110 511l-31 17c23 72 53 98 84 98
c18 0 31 -5 58 -19c23 -12 38 -20 54 -20c19 0 31 19 43 44l31 -14c-22 -82 -55 -101 -81 -101c-21 0 -44 12 -65 24s-31 16 -47 16s-31 -13 -46 -45z" />
    <glyph glyph-name="ccedilla" unicode="&#xe7;" horiz-adv-x="395" 
d="M371 116l20 -25c-37 -50 -78 -83 -129 -97l-17 -20c-10 -11 -8 -19 11 -38c21 -28 31 -47 31 -69c0 -40 -42 -76 -112 -101l-16 26c36 22 54 41 54 60c0 15 -11 26 -17 35c-24 26 -30 42 -11 64l34 37c-118 6 -189 100 -189 212c0 71 35 144 99 194c58 45 113 60 151 60
c32 0 64 -11 81 -24c15 -11 19 -22 19 -32c-1 -36 -30 -59 -45 -59c-6 0 -11 3 -20 12c-35 37 -59 50 -87 50c-35 0 -77 -34 -77 -148c0 -136 78 -179 122 -179c34 0 65 13 98 42z" />
    <glyph glyph-name="eacute" unicode="&#xe9;" horiz-adv-x="415" 
d="M376 117l18 -25c-54 -82 -126 -104 -167 -104c-126 0 -197 100 -197 213c0 84 36 148 71 183c38 40 89 70 143 70h1c89 0 153 -80 153 -161c0 -22 -4 -33 -27 -37c-14 -3 -132 -12 -223 -16c2 -107 59 -164 125 -164c41 0 71 13 103 41zM227 415c-35 0 -69 -53 -75 -129
c39 1 73 2 109 3c17 0 22 5 22 23c0 50 -20 103 -56 103zM222 489l-35 12c15 45 45 137 52 158c13 7 81 14 103 11l6 -11z" />
    <glyph glyph-name="ecircumflex" unicode="&#xea;" horiz-adv-x="415" 
d="M376 117l18 -25c-54 -82 -126 -104 -167 -104c-126 0 -197 100 -197 213c0 84 36 148 71 183c38 40 89 70 143 70h1c89 0 153 -80 153 -161c0 -22 -4 -33 -27 -37c-14 -3 -132 -12 -223 -16c2 -107 59 -164 125 -164c41 0 71 13 103 41zM227 415c-35 0 -69 -53 -75 -129
c39 1 73 2 109 3c17 0 22 5 22 23c0 50 -20 103 -56 103zM341 504l-31 -21c-35 35 -61 63 -88 91c-26 -28 -52 -58 -87 -91l-30 21c38 62 69 113 101 173h32c31 -60 64 -111 103 -173z" />
    <glyph glyph-name="edieresis" unicode="&#xeb;" horiz-adv-x="415" 
d="M376 117l18 -25c-54 -82 -126 -104 -167 -104c-126 0 -198 100 -198 213c0 84 36 148 71 183c38 40 89 70 144 70h1c90 0 154 -80 153 -161c0 -22 -4 -33 -27 -37c-14 -3 -132 -12 -224 -16c2 -107 60 -164 127 -164c40 0 70 13 102 41zM227 415c-36 0 -70 -53 -76 -129
c39 1 74 2 111 3c16 0 21 5 21 23c1 50 -19 103 -56 103zM124 512c-34 0 -63 29 -63 65c0 37 29 65 64 65c36 0 63 -28 63 -65c0 -36 -27 -65 -64 -65zM316 512c-33 0 -62 29 -62 65c0 37 29 65 63 65c36 0 64 -28 64 -65c0 -36 -28 -65 -65 -65z" />
    <glyph glyph-name="egrave" unicode="&#xe8;" horiz-adv-x="415" 
d="M376 117l18 -25c-54 -82 -126 -104 -167 -104c-126 0 -197 100 -197 213c0 84 36 148 71 183c38 40 89 70 143 70h1c89 0 153 -80 153 -161c0 -22 -4 -33 -27 -37c-14 -3 -132 -12 -223 -16c2 -107 59 -164 125 -164c41 0 71 13 103 41zM227 415c-35 0 -69 -53 -75 -129
c39 1 73 2 109 3c17 0 22 5 22 23c0 50 -20 103 -56 103zM259 500l-35 -11c-53 70 -104 133 -121 154l3 10c13 8 79 20 98 17c19 -58 36 -111 55 -170z" />
    <glyph glyph-name="iacute" unicode="&#xed;" horiz-adv-x="276" 
d="M265 0h-239v32c51 6 58 13 58 81v201c0 59 -1 63 -53 74v29c55 7 117 20 175 37v-341c0 -69 5 -75 59 -81v-32zM140 489l-35 12c15 45 45 137 52 158c13 7 81 14 103 11l6 -11z" />
    <glyph glyph-name="icircumflex" unicode="&#xee;" horiz-adv-x="276" 
d="M265 0h-239v32c51 6 58 13 58 81v201c0 59 -1 63 -53 74v29c55 7 117 20 175 37v-341c0 -69 5 -75 59 -81v-32zM254 504l-31 -21c-35 35 -61 63 -88 91c-26 -28 -52 -58 -87 -91l-30 21c38 62 69 113 101 173h32c31 -60 64 -111 103 -173z" />
    <glyph glyph-name="idieresis" unicode="&#xef;" horiz-adv-x="276" 
d="M266 0h-241v32c52 6 59 13 59 81v201c0 59 -2 63 -54 74v29c55 7 118 20 176 37v-341c0 -69 6 -75 60 -81v-32zM37 512c-33 0 -62 29 -62 65c0 37 29 65 63 65c36 0 64 -28 64 -65c0 -36 -28 -65 -65 -65zM230 512c-33 0 -62 29 -62 65c0 37 29 65 63 65
c37 0 64 -28 64 -65c0 -36 -27 -65 -65 -65z" />
    <glyph glyph-name="igrave" unicode="&#xec;" horiz-adv-x="276" 
d="M265 0h-239v32c51 6 58 13 58 81v201c0 59 -1 63 -53 74v29c55 7 117 20 175 37v-341c0 -69 5 -75 59 -81v-32zM174 500l-35 -11c-53 70 -104 133 -121 154l3 10c13 8 79 20 98 17c19 -58 36 -111 55 -170z" />
    <glyph glyph-name="ntilde" unicode="&#xf1;" horiz-adv-x="527" 
d="M509 0h-219v31c40 5 45 8 45 72v183c0 69 -27 92 -62 92c-25 0 -45 -9 -68 -29v-249c0 -60 5 -64 42 -69v-31h-225v31c56 6 61 8 61 72v216c0 60 -3 64 -48 73v26c61 7 119 21 170 37v-70c20 14 36 28 56 41c26 17 44 28 76 28c78 0 120 -61 120 -153v-199
c0 -63 5 -65 52 -71v-31zM162 511l-31 17c23 72 53 98 84 98c18 0 31 -5 58 -19c23 -12 38 -20 54 -20c19 0 31 19 43 44l31 -14c-22 -82 -55 -101 -81 -101c-21 0 -44 12 -65 24s-31 16 -47 16s-31 -13 -46 -45z" />
    <glyph glyph-name="oacute" unicode="&#xf3;" horiz-adv-x="488" 
d="M249 454c128 0 209 -105 209 -224c0 -162 -103 -242 -213 -242c-145 0 -215 115 -215 223c0 165 117 243 219 243zM235 416c-37 0 -70 -55 -70 -170c0 -125 32 -220 89 -220c34 0 69 28 69 175c0 134 -32 215 -88 215zM244 489l-35 12c15 45 45 137 52 158
c13 7 81 14 103 11l6 -11z" />
    <glyph glyph-name="ocircumflex" unicode="&#xf4;" horiz-adv-x="488" 
d="M249 454c128 0 209 -105 209 -224c0 -162 -103 -242 -213 -242c-145 0 -215 115 -215 223c0 165 117 243 219 243zM235 416c-37 0 -70 -55 -70 -170c0 -125 32 -220 89 -220c34 0 69 28 69 175c0 134 -32 215 -88 215zM361 504l-31 -21c-35 35 -61 63 -88 91
c-26 -28 -52 -58 -87 -91l-30 21c38 62 69 113 101 173h32c31 -60 64 -111 103 -173z" />
    <glyph glyph-name="odieresis" unicode="&#xf6;" horiz-adv-x="488" 
d="M249 454c129 0 209 -105 209 -224c0 -162 -103 -242 -213 -242c-146 0 -216 115 -216 223c0 165 118 243 220 243zM235 416c-37 0 -71 -55 -71 -170c0 -125 32 -220 90 -220c34 0 70 28 70 175c0 134 -33 215 -89 215zM146 512c-34 0 -63 29 -63 65c0 37 29 65 64 65
c36 0 63 -28 63 -65c0 -36 -27 -65 -64 -65zM339 512c-34 0 -63 29 -63 65c0 37 29 65 64 65c36 0 63 -28 63 -65c0 -36 -27 -65 -64 -65z" />
    <glyph glyph-name="ograve" unicode="&#xf2;" horiz-adv-x="488" 
d="M249 454c128 0 209 -105 209 -224c0 -162 -103 -242 -213 -242c-145 0 -215 115 -215 223c0 165 117 243 219 243zM235 416c-37 0 -70 -55 -70 -170c0 -125 32 -220 89 -220c34 0 69 28 69 175c0 134 -32 215 -88 215zM279 500l-35 -11c-53 70 -104 133 -121 154l3 10
c13 8 79 20 98 17c19 -58 36 -111 55 -170z" />
    <glyph glyph-name="otilde" unicode="&#xf5;" horiz-adv-x="488" 
d="M249 454c128 0 209 -105 209 -224c0 -162 -103 -242 -213 -242c-145 0 -215 115 -215 223c0 165 117 243 219 243zM235 416c-37 0 -70 -55 -70 -170c0 -125 32 -220 89 -220c34 0 69 28 69 175c0 134 -32 215 -88 215zM139 511l-31 17c23 72 53 98 84 98
c18 0 31 -5 58 -19c23 -12 38 -20 54 -20c19 0 31 19 43 44l31 -14c-22 -82 -55 -101 -81 -101c-21 0 -44 12 -65 24s-31 16 -47 16s-30 -13 -46 -45z" />
    <glyph glyph-name="scaron" unicode="&#x161;" horiz-adv-x="364" 
d="M316 327l-29 -11c-27 67 -56 102 -96 102c-29 0 -51 -27 -51 -57c0 -32 22 -55 68 -77c74 -37 129 -73 129 -150c0 -99 -89 -146 -168 -146c-54 0 -103 19 -122 34c-5 19 -14 88 -15 125l29 6c23 -63 65 -128 121 -128c31 0 52 26 52 57c0 32 -17 58 -70 86
c-49 27 -121 66 -121 145c0 76 57 140 161 141c42 0 68 -8 91 -18c8 -23 19 -94 21 -109zM276 687l31 -21c-38 -62 -70 -114 -101 -172h-32c-31 59 -64 110 -103 172l31 21c35 -33 61 -62 87 -92c27 29 54 58 87 92z" />
    <glyph glyph-name="uacute" unicode="&#xfa;" horiz-adv-x="512" 
d="M501 54v-30c-31 -4 -60 -10 -90 -16c-29 -6 -57 -13 -83 -20l-8 7v58c-14 -14 -24 -24 -43 -37c-27 -18 -52 -28 -84 -28c-80 0 -121 55 -121 137v219c0 42 -4 47 -28 53l-21 5v29c28 1 59 4 90 7s60 8 84 11c-2 -42 -3 -94 -3 -151v-147c0 -65 31 -87 63 -87
c25 0 41 6 63 27v248c0 45 -4 52 -28 58l-27 5v29c28 1 62 5 94 7c33 4 61 8 83 11v-329c0 -50 5 -61 35 -64zM254 489l-34 12c15 45 45 137 52 158c13 7 81 14 103 11l5 -10z" />
    <glyph glyph-name="ucircumflex" unicode="&#xfb;" horiz-adv-x="512" 
d="M501 54v-30c-31 -4 -60 -10 -90 -16c-29 -6 -57 -13 -83 -20l-8 7v58c-14 -14 -24 -24 -43 -37c-27 -18 -52 -28 -84 -28c-80 0 -121 55 -121 137v219c0 42 -4 47 -28 53l-21 5v29c28 1 59 4 90 7s60 8 84 11c-2 -42 -3 -94 -3 -151v-147c0 -65 31 -87 63 -87
c25 0 41 6 63 27v248c0 45 -4 52 -28 58l-27 5v29c28 1 62 5 94 7c33 4 61 8 83 11v-329c0 -50 5 -61 35 -64zM372 505l-31 -21c-35 34 -61 62 -88 91c-27 -29 -52 -59 -87 -91l-30 21c38 61 69 113 101 172h32c31 -59 64 -111 103 -172z" />
    <glyph glyph-name="udieresis" unicode="&#xfc;" horiz-adv-x="512" 
d="M501 54v-30c-31 -4 -60 -10 -90 -16c-29 -6 -57 -13 -83 -20l-8 7v58c-14 -14 -24 -24 -43 -37c-27 -18 -52 -28 -84 -28c-80 0 -121 55 -121 137v219c0 42 -4 47 -28 53l-21 5v29c28 1 59 4 90 7s60 8 84 11c-2 -42 -3 -94 -3 -151v-147c0 -65 31 -87 63 -87
c25 0 41 6 63 27v248c0 45 -4 52 -28 57l-27 6v29c28 1 62 5 94 7c33 4 61 8 83 11v-329c0 -50 5 -61 35 -64zM151 512c-33 0 -63 29 -63 65c0 37 30 65 64 65c36 0 63 -28 63 -65c0 -36 -27 -65 -64 -65zM344 512c-33 0 -62 29 -62 65c0 37 29 65 63 65c36 0 64 -28 64 -65
c0 -36 -28 -65 -65 -65z" />
    <glyph glyph-name="ugrave" unicode="&#xf9;" horiz-adv-x="512" 
d="M501 54v-30c-31 -4 -60 -10 -90 -16c-29 -6 -57 -13 -83 -20l-8 7v58c-14 -14 -24 -24 -43 -37c-27 -18 -52 -28 -84 -28c-80 0 -121 55 -121 137v219c0 42 -4 47 -28 53l-21 5v29c28 1 59 4 90 7s60 8 84 11c-2 -42 -3 -94 -3 -151v-147c0 -65 31 -87 63 -87
c25 0 41 6 63 27v248c0 45 -4 52 -28 58l-27 5v29c28 1 62 5 94 7c33 4 61 8 83 11v-329c0 -50 5 -61 35 -64zM291 500l-35 -11c-52 69 -104 133 -121 154l4 10c13 8 78 20 97 17c20 -59 37 -111 55 -170z" />
    <glyph glyph-name="yacute" unicode="&#xfd;" horiz-adv-x="439" 
d="M452 442v-30c-46 -8 -54 -18 -76 -72c-24 -58 -51 -132 -104 -273c-59 -161 -78 -225 -91 -273c-7 -23 -19 -30 -37 -30c-28 0 -68 28 -68 59c0 16 7 26 27 38c33 19 54 35 69 61c11 23 18 37 21 49c2 14 -1 28 -7 45c-50 151 -99 287 -119 335c-18 44 -28 56 -69 61v30
h233v-30c-48 -6 -48 -17 -37 -54l68 -219c25 73 49 152 68 218c10 37 3 48 -46 55v30h168zM240 489l-35 12c15 45 45 137 52 158c13 7 81 14 103 11l6 -11z" />
    <glyph glyph-name="ydieresis" unicode="&#xff;" horiz-adv-x="439" 
d="M452 442v-30c-46 -8 -54 -18 -76 -72c-24 -58 -51 -132 -104 -273c-59 -161 -78 -225 -91 -273c-7 -23 -19 -30 -37 -30c-28 0 -68 28 -68 59c0 16 7 26 27 38c33 19 54 35 69 61c11 23 18 37 21 49c2 14 -1 28 -7 45c-50 151 -99 287 -119 335c-18 44 -28 56 -69 61v30
h233v-30c-48 -6 -48 -17 -37 -54l68 -219c25 73 49 152 68 218c10 37 3 48 -46 55v30h168zM133 512c-33 0 -63 29 -63 65c0 37 30 65 64 65c36 0 63 -28 63 -65c0 -36 -27 -65 -64 -65zM326 512c-33 0 -63 29 -63 65c0 37 30 65 64 65c36 0 63 -28 63 -65
c0 -36 -27 -65 -64 -65z" />
    <glyph glyph-name="zcaron" unicode="&#x17e;" horiz-adv-x="415" 
d="M378 143l30 -13c-17 -50 -31 -94 -43 -130h-332l-9 13c76 134 143 262 208 389h-49c-61 0 -84 -20 -108 -71l-14 -29l-31 11c13 42 28 107 36 150h25c7 -15 18 -21 52 -21h231l8 -13c-72 -135 -133 -250 -204 -389h55c63 0 98 13 130 74zM302 687l30 -21
c-38 -62 -69 -114 -101 -173h-32c-30 60 -64 111 -102 173l31 21c35 -33 61 -62 87 -92c27 29 53 58 87 92z" />
    <glyph glyph-name="twodotenleader" unicode="&#x2025;" horiz-adv-x="506" 
d="M124 -12c-42 0 -75 33 -75 80c0 45 33 79 76 79s76 -34 76 -79c0 -47 -33 -80 -77 -80zM379 -12c-42 0 -75 33 -75 80c0 45 33 79 76 79s76 -34 76 -79c0 -47 -33 -80 -77 -80z" />
    <glyph glyph-name="onedotenleader" unicode="&#x2024;" horiz-adv-x="500" 
d="M249 -12c-42 0 -75 33 -75 80c0 45 33 79 76 79s76 -34 76 -79c0 -47 -33 -80 -77 -80z" />
    <glyph glyph-name="colonmonetary" unicode="&#x20a1;" horiz-adv-x="466" 
d="M448 482l-29 -7c-10 35 -23 69 -44 86l-67 -523c53 6 78 38 113 113l29 -10c-8 -41 -26 -97 -36 -118c-18 -7 -70 -22 -110 -23l-10 -69h-31l9 71c-20 2 -29 3 -45 9l-11 -79h-33l13 88c-113 40 -167 147 -167 282c0 191 107 303 243 318l8 63h33l-8 -60h7
c12 0 22 -1 39 -4l9 64h31l-8 -71c15 -4 34 -9 51 -13c6 -44 11 -84 14 -117zM277 41l69 537c-17 7 -29 10 -46 9l-67 -525c13 -11 27 -18 44 -21zM203 86l64 496c-46 -19 -109 -99 -109 -275c0 -117 23 -192 45 -221z" />
    <glyph glyph-name="figuredash" unicode="&#x2012;" horiz-adv-x="418" 
d="M383 287h-348v63h348v-63z" />
    <glyph glyph-name="oneeighth" unicode="&#x215b;" horiz-adv-x="730" 
d="M265 278h-200v27c44 4 54 12 54 61v166c0 37 -1 42 -29 45l-24 2v26c43 5 96 15 146 30v-268c0 -49 9 -57 53 -61v-28zM557 621l-374 -660l-38 28l373 659zM548 358c67 0 111 -39 110 -86c0 -14 -6 -30 -15 -42c-10 -9 -22 -19 -43 -31c36 -18 74 -47 74 -95
c0 -74 -73 -110 -137 -110c-69 0 -128 34 -128 96c0 23 10 38 25 51c13 12 32 22 46 29c-30 19 -58 45 -58 87c0 54 49 101 126 101zM540 327c-25 0 -42 -21 -42 -44c0 -28 30 -48 74 -69c8 6 20 31 20 52c0 40 -28 61 -52 61zM546 26c30 0 50 23 50 49c-2 36 -34 54 -89 80
c-11 -9 -25 -32 -25 -59c0 -42 31 -70 64 -70z" />
    <glyph glyph-name="threeeighths" unicode="&#x215c;" horiz-adv-x="730" 
d="M215 489v-2c54 -9 89 -36 89 -84c0 -87 -123 -132 -174 -132c-28 0 -58 11 -69 20c-7 7 -11 18 -6 30c3 13 14 23 23 29c5 4 15 4 22 -2c15 -13 43 -36 69 -36c21 0 44 16 43 63c0 52 -32 72 -67 72c-13 0 -26 -2 -35 -5l-6 28c57 19 84 42 84 70c0 25 -18 38 -42 38
c-28 0 -51 -21 -66 -39l-19 18l32 42c17 18 49 36 87 36h1c63 0 100 -37 101 -78c0 -16 -9 -31 -19 -40c-9 -8 -23 -16 -48 -28zM554 621l-374 -660l-38 28l373 659zM545 358c67 0 111 -39 111 -86c0 -14 -6 -30 -17 -42c-9 -9 -21 -19 -43 -31c36 -18 75 -47 75 -95
c0 -74 -73 -110 -137 -110c-69 0 -128 33 -128 96c0 23 10 38 25 51c13 12 32 22 46 29c-30 19 -58 45 -58 86c0 56 49 102 126 102zM538 327h-2c-25 0 -41 -21 -41 -44c0 -28 29 -48 75 -69c7 6 20 31 20 52c0 41 -28 61 -52 61zM543 26c29 0 49 23 49 49
c-2 36 -34 54 -88 80c-11 -9 -25 -32 -25 -59c0 -42 30 -70 64 -70z" />
    <glyph glyph-name="fiveeighths" unicode="&#x215d;" horiz-adv-x="730" 
d="M129 558l-13 -70c23 7 52 15 69 15c79 0 118 -47 118 -94c0 -36 -20 -70 -60 -97c-33 -22 -79 -40 -115 -41c-24 0 -50 11 -61 19c-10 8 -14 19 -9 31c4 11 12 22 20 27c5 5 15 5 23 -2c13 -10 43 -33 68 -32c26 0 43 20 43 57c0 50 -33 81 -82 81c-19 0 -41 -5 -58 -10
l26 186h192l-15 -70h-146zM554 621l-374 -660l-38 28l374 659zM543 358h2c67 0 111 -39 111 -86c0 -14 -6 -30 -17 -42c-9 -9 -21 -19 -43 -31c37 -18 75 -47 75 -95c0 -74 -73 -110 -136 -110c-69 0 -128 34 -128 96c0 23 10 38 24 51c13 12 32 22 46 29
c-30 19 -58 45 -58 86c0 56 49 102 124 102zM538 327h-2c-25 0 -41 -21 -41 -44c0 -28 29 -48 75 -69c7 6 20 31 20 52c0 41 -28 61 -52 61zM543 26c30 0 49 23 49 49c-1 36 -33 54 -87 80c-12 -9 -25 -32 -25 -59c0 -42 30 -70 63 -70z" />
    <glyph glyph-name="seveneighths" unicode="&#x215e;" horiz-adv-x="730" 
d="M325 628l6 -9c-56 -113 -112 -227 -164 -341l-62 -7l-5 9c59 94 115 187 164 279h-110c-40 0 -43 -3 -57 -37h-27c8 55 12 82 15 106h240zM527 621l-374 -661l-38 29l373 659zM528 358c67 0 111 -39 111 -86c0 -14 -6 -30 -15 -42c-10 -9 -22 -19 -44 -31
c37 -18 75 -46 75 -95c0 -73 -73 -110 -137 -110c-69 0 -128 34 -128 96c0 23 10 38 25 51c13 12 32 22 46 29c-30 19 -58 45 -58 86c0 56 49 102 125 102zM521 327c-26 0 -42 -21 -42 -44c0 -28 29 -48 74 -69c8 6 20 31 20 52c0 41 -28 61 -52 61zM527 26
c30 0 50 23 50 49c-2 36 -34 54 -89 80c-11 -9 -25 -32 -25 -59c0 -42 31 -70 64 -70z" />
    <glyph glyph-name="onethird" unicode="&#x2153;" horiz-adv-x="730" 
d="M261 278h-201v27c45 4 55 12 55 61v166c0 37 -2 42 -29 45l-25 2v26c43 5 96 15 146 30v-268c0 -49 10 -57 54 -61v-28zM556 621l-374 -661l-38 28l373 660zM581 211v-2c53 -9 89 -36 89 -84c0 -88 -123 -133 -175 -133c-28 0 -57 11 -69 20c-6 7 -11 18 -6 31
c4 12 14 22 23 28c6 4 15 4 22 -1c16 -14 43 -37 70 -37c20 0 43 16 43 64c0 51 -32 72 -68 72c-13 0 -26 -3 -35 -6l-6 29c57 19 84 41 84 70c0 24 -18 38 -42 38c-28 0 -50 -20 -66 -39l-19 19l33 41c16 18 48 36 86 36h1c63 0 101 -37 101 -78c0 -16 -9 -31 -18 -40
c-10 -8 -23 -16 -48 -28z" />
    <glyph glyph-name="twothirds" unicode="&#x2154;" horiz-adv-x="730" 
d="M291 384l25 -7c-11 -36 -17 -68 -24 -99h-245v24c53 46 149 125 149 201c0 44 -21 67 -56 67c-29 0 -52 -18 -72 -45l-21 18l33 46c23 29 59 46 97 46c64 0 115 -40 115 -108c0 -49 -32 -85 -104 -145l-42 -35v-1h88c33 0 40 4 57 38zM581 621l-374 -661l-38 28l373 660z
M593 211v-2c53 -9 89 -36 89 -84c0 -88 -123 -133 -175 -133c-28 0 -57 11 -68 20c-7 7 -11 18 -7 31c4 12 14 22 24 28c5 4 14 4 21 -1c16 -14 43 -37 70 -37c20 0 43 16 43 64c0 51 -32 72 -68 72c-13 0 -26 -3 -35 -6l-6 29c57 19 84 41 84 70c0 25 -18 39 -42 39
c-28 0 -50 -21 -66 -39l-18 18l32 42c17 18 48 36 86 36h1c63 0 101 -37 101 -79c0 -16 -9 -31 -19 -40c-9 -8 -22 -16 -47 -28z" />
    <glyph glyph-name="Aringacute" unicode="&#x1fa;" horiz-adv-x="633" 
d="M619 0h-263v33c54 7 59 19 43 68c-10 30 -21 70 -33 103h-172c-8 -25 -19 -58 -30 -97c-15 -54 -11 -65 56 -74v-33h-207v33c56 6 71 17 99 93l188 517l47 12c60 -174 113 -345 174 -517c31 -88 43 -99 98 -105v-33zM349 255l-67 217h-3c-26 -74 -46 -145 -70 -217h140z
M317 853c45 0 92 -34 92 -89c0 -56 -47 -90 -93 -90c-47 0 -92 34 -92 90c0 55 45 89 93 89zM316 815c-25 0 -45 -23 -45 -51c0 -30 20 -53 46 -53c27 0 44 23 44 51c0 30 -17 53 -45 53zM455 933l-4 -12l-191 -60l-16 30c52 39 113 84 160 117c18 -7 48 -53 51 -75z" />
    <glyph glyph-name="R_p" unicode="&#xf6dd;" horiz-adv-x="930" 
d="M648 381l70 45c8 5 18 8 33 8c97 0 142 -97 142 -184c0 -142 -97 -235 -198 -262c-24 0 -36 5 -47 11v-121c0 -50 1 -61 62 -67v-32h-235v32c50 6 54 17 54 64v116l-15 1c-102 7 -136 33 -168 89c-25 44 -47 99 -69 150c-13 32 -26 41 -42 41h-12v-145
c0 -77 4 -88 64 -94v-33h-249v33c61 6 65 17 65 94v370c0 78 -4 88 -62 94v32h230c72 0 113 -10 145 -33c35 -24 55 -69 55 -124c0 -76 -41 -129 -99 -158c12 -29 41 -95 65 -139c26 -50 48 -86 64 -108c14 -19 21 -27 28 -32v282c0 49 -1 55 -45 60v29c51 8 109 23 164 44
v-63zM223 310h18c31 0 51 7 68 24c28 27 38 62 38 116c0 96 -44 133 -88 133c-34 0 -36 -8 -36 -42v-231zM648 346v-280c16 -17 37 -30 62 -30c28 0 68 37 68 162c0 116 -48 163 -86 163c-18 0 -29 -4 -44 -15z" />
    <glyph glyph-name="K.alt" unicode="&#xe03a;" horiz-adv-x="628" 
d="M642 -17l-12 -31c-16 0 -43 4 -75 13c-67 15 -103 46 -139 96c-37 54 -83 131 -131 208c-21 35 -35 42 -52 42v-184c0 -80 9 -88 75 -94v-33h-273v33c65 6 74 14 74 94v387c0 79 -9 89 -75 95v33h269v-33c-62 -6 -70 -16 -70 -95v-171c22 6 43 19 64 42
c46 49 96 116 133 172c20 32 20 45 -24 50l-17 2v33h233v-33c-61 -7 -92 -15 -142 -72c-53 -58 -93 -108 -123 -146c51 -88 118 -196 174 -277c64 -92 95 -122 111 -131z" />
    <glyph glyph-name="R.alt" unicode="&#xe057;" horiz-adv-x="600" 
d="M619 -15l-10 -31c-13 0 -36 3 -63 10c-90 14 -128 61 -159 118c-29 50 -56 104 -78 150c-14 31 -27 46 -57 46h-18v-150c0 -82 9 -90 75 -95v-33h-276v33c67 5 76 13 76 95v389c0 82 -8 85 -72 92v33h266c73 0 120 -11 156 -35c39 -26 63 -69 63 -126
c0 -88 -50 -137 -115 -166c27 -57 81 -156 127 -232c42 -67 64 -88 85 -98zM234 316h23c37 0 65 8 86 26c29 25 43 62 43 117c0 108 -60 144 -109 144c-20 0 -30 -4 -36 -9c-6 -6 -7 -15 -7 -37v-241z" />
    <glyph glyph-name="Dcroat" unicode="&#x110;" horiz-adv-x="676" 
d="M49 642h253c110 0 202 -24 259 -86c45 -49 77 -118 77 -211c0 -122 -41 -208 -108 -263c-66 -57 -155 -82 -265 -82h-223v33c72 8 79 15 79 100v179h-86v48h86v149c0 87 -7 94 -72 101v32zM248 312v-178c0 -67 10 -91 65 -91c97 0 182 94 182 285c0 104 -24 175 -62 219
c-34 39 -80 55 -127 55c-27 0 -43 -6 -50 -12c-7 -7 -8 -22 -8 -52v-178h118v-48h-118z" />
    <glyph glyph-name="Eng" unicode="&#x14a;" horiz-adv-x="656" 
d="M644 642v-32c-52 -2 -70 -17 -74 -54c-4 -30 -9 -85 -9 -172v-359c0 -82 -12 -130 -32 -166c-24 -42 -54 -65 -90 -65c-29 0 -55 26 -55 59c0 12 4 26 14 26c14 0 22 -9 44 -9c52 0 72 56 72 119l-356 485h-4v-217c0 -83 5 -136 8 -166c4 -38 22 -56 91 -59v-32h-229v32
c53 3 72 20 76 58c4 31 9 84 9 167v203c0 66 0 88 -16 111c-17 24 -37 36 -78 39v32h170l327 -428h4v171c0 86 -5 141 -9 171c-5 35 -24 51 -88 54v32h225z" />
    <glyph glyph-name="Hbar" unicode="&#x126;" horiz-adv-x="697" 
d="M659 461h-71v-335c0 -79 8 -86 75 -93v-33h-279v33c68 6 76 14 76 93v177h-223v-177c0 -81 8 -87 73 -93v-33h-277v33c67 6 76 13 76 93v335h-74v41h74v17c0 80 -9 84 -79 90v33h277v-33c-62 -6 -70 -10 -70 -90v-17h223v17c0 80 -8 84 -73 90v33h278v-33
c-70 -6 -77 -9 -77 -90v-17h71v-41zM460 352v109h-223v-109h223z" />
    <glyph glyph-name="Tbar" unicode="&#x166;" horiz-adv-x="560" 
d="M540 487l-34 -3c-11 51 -22 78 -37 95c-13 17 -42 23 -82 23h-42v-253h123v-42h-123v-178c0 -82 7 -90 86 -96v-33h-296v33c75 6 82 14 82 96v178h-124v42h124v253h-35c-55 0 -76 -8 -90 -28c-13 -18 -25 -46 -35 -90h-35c4 66 10 133 11 183h24c15 -21 26 -25 53 -25
h345c23 0 36 6 51 25h24c1 -41 6 -119 10 -180z" />
    <glyph glyph-name="uni021C" unicode="&#x21c;" horiz-adv-x="480" 
d="M102 262l-11 36c123 50 184 99 184 196c0 78 -40 118 -87 118c-58 0 -92 -50 -123 -145l-36 8c10 56 18 105 22 144c63 16 104 36 179 36c108 0 182 -57 183 -138c0 -68 -56 -121 -128 -162v-2c100 -20 170 -86 170 -186c0 -146 -143 -264 -368 -293l-67 53l8 24
c28 -8 62 -17 100 -17c110 0 187 68 187 189c0 108 -68 157 -127 157c-24 0 -48 -5 -86 -18z" />
    <glyph glyph-name="a.end" unicode="&#xe084;" horiz-adv-x="601" 
d="M250 277v42c0 57 -23 89 -54 89c-15 0 -24 -7 -35 -21c-10 -13 -19 -34 -26 -65c-6 -25 -18 -34 -36 -34c-25 0 -63 21 -63 49c0 16 11 30 34 46c40 28 100 62 158 71c42 0 73 -13 97 -34c35 -29 44 -68 44 -115v-168c0 -63 19 -91 81 -91c72 0 85 21 85 47
c0 19 -6 34 -9 42c-2 6 -1 11 0 15c9 11 36 28 48 28c14 0 28 -18 28 -45c0 -22 -13 -55 -40 -83c-41 -41 -111 -60 -175 -61c-60 0 -114 4 -133 56c-30 -24 -73 -57 -96 -57c-80 0 -129 66 -129 125c0 51 22 80 71 99c46 18 127 44 150 65zM250 77v163
c-18 -10 -34 -20 -52 -31c-28 -17 -42 -36 -42 -70c0 -49 33 -76 59 -76c14 0 23 5 35 14z" />
    <glyph glyph-name="e.end" unicode="&#xe08f;" horiz-adv-x="593" 
d="M378 116l17 -24c-57 -85 -128 -104 -169 -104c-127 0 -197 100 -197 214c0 74 27 137 70 182c42 44 96 70 144 70h1c94 0 148 -79 147 -168h65c73 0 86 22 86 47c0 17 -8 34 -14 45c2 13 41 39 55 39c15 0 26 -23 26 -42c0 -21 -10 -50 -33 -77c-29 -33 -79 -59 -154 -59
h-276c4 -109 56 -163 124 -163c41 0 74 12 108 40zM225 416c-37 0 -69 -55 -75 -130c41 1 73 -1 108 0c16 0 22 5 22 22c0 54 -19 108 -55 108z" />
    <glyph glyph-name="k.alt" unicode="&#xe0a5;" horiz-adv-x="500" 
d="M510 -19l-10 -26c-22 0 -57 3 -84 11c-47 13 -75 32 -107 78c-28 41 -55 92 -88 149c-8 15 -13 20 -18 22c-3 1 -8 2 -11 2v-108c0 -63 5 -72 60 -78v-31h-245v31c58 6 64 15 64 78v457c0 59 -3 59 -56 67v28c48 6 120 19 177 35v-450c23 5 44 19 60 38s37 49 55 83
c11 23 13 36 -30 41v31l194 9v-31c-60 -12 -82 -25 -110 -56c-22 -24 -37 -42 -62 -78c26 -48 85 -148 121 -197c47 -67 72 -93 90 -105z" />
    <glyph glyph-name="m.end" unicode="&#xe0b1;" horiz-adv-x="966" 
d="M712 303v-198c0 -42 5 -51 30 -55c18 -3 45 -4 69 -4c71 0 86 21 86 50c0 21 -7 38 -12 48c-3 6 1 14 8 21c12 12 31 25 44 25s30 -20 30 -51c0 -23 -10 -52 -37 -82c-32 -33 -76 -59 -151 -59c-72 0 -159 1 -236 2v31c41 6 47 12 47 72v182c0 69 -29 92 -63 92
c-24 0 -43 -7 -70 -31c1 -15 2 -27 2 -38v-209c0 -58 6 -62 48 -68v-31h-217v31c43 6 47 10 47 68v188c0 65 -26 90 -62 90c-24 0 -46 -11 -69 -31v-247c0 -58 6 -62 42 -68v-31h-225v31c55 6 61 10 61 72v215c0 58 -4 62 -47 73v27c54 7 116 21 168 37v-71
c18 13 34 25 53 37c27 18 49 33 85 33c52 0 90 -30 106 -72c20 15 39 27 62 43c25 17 46 29 75 29c84 0 126 -58 126 -151z" />
    <glyph glyph-name="n.end" unicode="&#xe0b2;" horiz-adv-x="711" 
d="M458 304v-200c0 -43 5 -50 30 -53c16 -3 45 -5 69 -5c71 0 86 21 86 49c0 22 -8 39 -12 48c-3 7 1 15 8 22c12 12 31 24 44 24s30 -19 30 -50c0 -23 -10 -52 -37 -82c-34 -36 -78 -59 -152 -59c-71 0 -157 1 -234 2v31c41 5 46 10 46 68v186c0 71 -25 92 -60 92
c-25 0 -47 -11 -70 -30v-247c0 -59 5 -64 42 -69v-31h-225v31c55 5 61 10 61 71v217c0 59 -2 64 -48 73v26c61 7 119 21 170 37v-70c18 14 36 27 56 40c25 17 43 29 75 29c78 0 121 -58 121 -150z" />
    <glyph glyph-name="r.end" unicode="&#xe0da;" horiz-adv-x="445" 
d="M465 455l23 -19c-16 -47 -53 -111 -101 -110c-18 0 -36 8 -54 18s-32 15 -48 15c-19 0 -44 -14 -79 -87v-170c0 -61 5 -65 70 -71v-31h-250v31c52 6 58 10 58 71v217c0 57 -3 59 -49 70v28c60 7 119 20 171 38v-122l3 1c34 64 84 120 126 120c18 0 35 -7 54 -21
c29 -23 47 -16 76 22z" />
    <glyph glyph-name="longs" unicode="&#x17f;" horiz-adv-x="276" 
d="M49 442h35v13c0 23 4 42 11 64c7 26 29 76 81 119c32 28 72 49 113 55c40 -2 63 -13 78 -27c11 -11 15 -24 13 -38s-18 -33 -34 -43c-12 -9 -21 -7 -30 2c-23 23 -55 48 -81 48c-17 0 -26 -12 -30 -32c-5 -24 1 -81 1 -195v-306c0 -60 7 -64 56 -71v-31h-231v31
c48 7 53 11 53 70v295h-57l-6 11z" />
    <glyph glyph-name="dcroat" unicode="&#x111;" horiz-adv-x="511" 
d="M503 57v-31c-27 -4 -114 -16 -184 -38v53l-51 -34c-23 -16 -38 -19 -53 -19c-81 0 -185 71 -185 218c0 136 108 248 252 248c11 0 20 -2 37 -5v73h-119v42h119v19c-1 42 -8 46 -57 53v28c62 7 135 21 179 35v-135h77v-42h-77v-401c0 -52 5 -57 39 -61zM319 78v284
c-14 38 -37 52 -60 52s-93 -30 -93 -180c0 -126 66 -173 106 -173c16 0 29 4 47 17z" />
    <glyph glyph-name="eng" unicode="&#x14b;" horiz-adv-x="520" 
d="M206 455v-69c18 13 35 26 55 39c26 17 44 29 75 29c79 0 121 -58 121 -150v-145c0 -83 -5 -147 -33 -207s-50 -84 -71 -107c-26 -29 -56 -52 -82 -52c-18 0 -42 20 -42 58c0 11 5 22 14 22c12 0 38 -15 55 -15c12 0 23 3 29 24c8 29 8 55 8 167v235c0 69 -26 94 -62 94
c-24 0 -44 -10 -67 -31v-244c0 -60 5 -67 54 -72v-31h-237v31c56 6 61 10 61 75v214c0 58 0 63 -48 73v25c61 7 119 21 170 37z" />
    <glyph glyph-name="hbar" unicode="&#x127;" horiz-adv-x="516" 
d="M497 0h-221v31c43 5 47 11 47 68v186c0 73 -31 97 -66 97c-25 0 -45 -9 -65 -29v-255c0 -57 5 -61 43 -67v-31h-222v31c49 6 57 9 57 70v420h-70v42h70v45c0 30 -2 35 -33 41v26c37 5 108 16 155 27v-139h142v-41h-142v-130c30 32 76 62 125 62c86 0 128 -57 128 -160
v-191c0 -63 6 -65 52 -72v-31z" />
    <glyph glyph-name="kgreenlandic" unicode="&#x138;" horiz-adv-x="519" 
d="M513 0h-174c-12 20 -68 130 -98 186c-13 23 -22 28 -35 26v-106c0 -65 4 -71 58 -75v-31h-236v31c50 2 56 8 56 73v221c0 64 -5 71 -55 76v30c64 4 122 14 177 23v-209c11 1 31 7 48 25c33 35 51 61 72 95c14 23 8 40 -15 44l-15 2v31h199v-31c-47 -3 -76 -14 -109 -48
c-21 -21 -42 -47 -69 -79c50 -87 92 -159 125 -206c25 -35 40 -44 71 -47v-31z" />
    <glyph glyph-name="napostrophe" unicode="&#x149;" horiz-adv-x="527" 
d="M52 711c47 0 98 -37 98 -105c0 -74 -72 -112 -139 -127l-10 28c45 19 69 42 69 75c0 29 -24 50 -58 57c-4 1 -12 10 -12 27c0 26 25 45 52 45zM509 0h-219v31c40 5 45 8 45 73v182c0 69 -27 92 -62 92c-25 0 -45 -9 -68 -28v-250c0 -60 5 -64 42 -69v-31h-224v31
c56 6 61 8 61 73v215c0 60 -4 64 -49 73v26c61 7 119 21 170 37v-70c20 14 36 28 56 41c26 17 44 28 76 28c78 0 120 -61 120 -153v-199c0 -62 5 -65 52 -71v-31z" />
    <glyph glyph-name="tbar" unicode="&#x167;" horiz-adv-x="321" 
d="M313 34l-81 -35c-16 -7 -30 -11 -41 -11c-71 0 -114 35 -114 124v113h-57v40h57v131h-58l-5 10l27 36h36v70l108 75l14 -6v-139h96c10 -11 9 -40 -6 -46h-90v-131h88v-40h-88v-78c0 -75 28 -92 53 -92c21 0 38 5 51 11z" />
    <glyph glyph-name="uni021D" unicode="&#x21d;" horiz-adv-x="376" 
d="M61 115l-10 32c101 41 138 85 138 146c0 55 -30 83 -67 83c-33 0 -60 -19 -95 -50l-22 25c50 62 103 103 167 103c78 0 139 -51 139 -124c0 -40 -22 -72 -53 -98c-10 -9 -28 -21 -40 -28v-2c71 -15 132 -72 132 -156c0 -132 -139 -235 -302 -260l-54 44l7 20
c18 -4 41 -9 66 -9c89 0 153 52 153 164c0 86 -47 123 -89 123c-20 0 -38 -4 -70 -13z" />
    <glyph glyph-name="IJ" unicode="&#x132;" horiz-adv-x="683" 
d="M311 0h-276v33c66 6 74 15 74 95v384c0 83 -7 91 -74 97v33h276v-33c-68 -6 -74 -14 -74 -97v-384c0 -79 7 -89 74 -95v-33zM657 642v-33c-64 -7 -70 -14 -70 -97v-341c0 -115 -12 -209 -93 -276c-35 -29 -78 -49 -118 -58l-13 34c48 20 75 55 84 106
c10 53 12 119 12 204v331c0 83 -7 90 -76 97v33h274z" />
    <glyph glyph-name="c_h" unicode="&#xe085;" horiz-adv-x="889" 
d="M371 115l19 -24c-42 -60 -99 -103 -160 -103c-129 0 -200 103 -200 213c0 72 34 143 99 193c53 41 111 60 150 60h1c34 0 63 -11 79 -24c16 -12 20 -23 20 -35c-1 -33 -28 -57 -43 -57c-6 0 -12 3 -21 12c-35 36 -63 54 -90 54c-43 0 -76 -53 -76 -152
c0 -136 80 -176 122 -176c39 0 66 11 100 39zM871 0h-221v31c43 7 47 12 47 69v183c0 73 -29 98 -65 98c-23 0 -45 -7 -65 -27v-254c0 -59 5 -63 41 -69v-31h-223v31c54 5 60 9 60 72v462c0 58 -3 59 -53 65v28c52 6 116 20 175 35v-302c31 31 75 63 125 63
c84 0 127 -58 127 -161v-190c0 -63 5 -65 52 -72v-31z" />
    <glyph glyph-name="c_k" unicode="&#xe086;" horiz-adv-x="861" 
d="M371 115l19 -24c-42 -60 -99 -103 -160 -103c-129 0 -200 103 -200 213c0 72 34 143 99 193c53 41 111 60 150 60h1c34 0 63 -11 79 -24c16 -12 20 -23 20 -35c-1 -33 -28 -57 -43 -57c-6 0 -12 3 -21 12c-35 36 -63 54 -90 54c-43 0 -76 -53 -76 -152
c0 -136 80 -176 122 -176c39 0 66 11 100 39zM876 0l-167 -2c-27 39 -70 118 -111 194c-11 18 -17 25 -23 25c-3 1 -6 1 -9 1v-110c0 -66 4 -70 62 -77v-31h-244v31c56 6 61 10 61 77v456c0 54 -3 58 -54 66v28c48 6 118 19 175 35v-446c23 5 43 18 59 38c21 28 40 61 52 84
s10 35 -27 40v30l194 9v-30c-61 -12 -86 -25 -112 -54c-22 -25 -34 -42 -61 -79c24 -43 96 -163 132 -207c26 -33 41 -41 73 -47v-31z" />
    <glyph glyph-name="c_t" unicode="&#xe087;" horiz-adv-x="719" 
d="M712 34l-81 -35c-16 -7 -30 -11 -41 -11c-71 0 -114 35 -114 124v284h-56l-7 10l28 36h35v38c0 75 -16 118 -75 118c-49 -1 -77 -51 -76 -102c0 -29 5 -43 15 -56c18 -9 32 -22 32 -39c0 -29 -31 -53 -44 -53c-6 0 -13 5 -21 12c-31 32 -53 45 -81 45
c-35 0 -76 -41 -76 -152c0 -136 81 -177 125 -177c39 0 71 12 102 39l18 -23c-42 -59 -103 -104 -165 -104c-131 0 -201 105 -201 212c0 74 35 143 99 193c55 42 110 61 149 61c7 0 11 0 17 -2c-9 17 -14 32 -14 59c0 81 67 143 161 143c90 0 157 -46 157 -173v-39h96
c10 -11 7 -40 -7 -46h-89v-252c0 -74 27 -90 53 -90c18 0 39 6 51 11z" />
    <glyph glyph-name="ij" unicode="&#x133;" horiz-adv-x="548" 
d="M137 510c-35 0 -66 31 -66 69c0 39 31 68 67 68c38 0 67 -29 67 -68c0 -38 -29 -69 -68 -69zM264 0h-239v31c52 6 58 10 58 78v206c0 62 -5 64 -52 74v28c55 7 116 20 174 37v-345c0 -67 5 -72 59 -78v-31zM409 510c-35 0 -66 31 -66 69s31 68 67 68c37 0 66 -30 66 -68
s-29 -69 -67 -69zM298 389v28c57 7 120 21 180 37v-325c0 -64 -7 -101 -25 -148c-40 -102 -114 -184 -134 -200c-13 -10 -21 -14 -32 -14c-13 0 -39 21 -39 52c0 19 11 27 24 27c41 2 62 8 68 19c6 12 10 35 12 66c3 46 4 94 4 164v216c0 64 -3 65 -58 78z" />
    <glyph glyph-name="s_p" unicode="&#xe0db;" horiz-adv-x="845" 
d="M532 398l70 42c13 9 29 14 45 14c112 0 169 -99 169 -194c0 -141 -101 -242 -225 -272c-27 0 -46 7 -59 13v-111c0 -67 6 -76 76 -81v-31h-260v31c59 5 62 14 62 77v707c-9 -1 -21 -1 -35 -1c-68 -2 -106 -42 -105 -101c1 -17 3 -35 10 -49c6 -2 12 -4 17 -7
c8 -23 18 -75 20 -90l-33 -12c-26 52 -53 83 -85 83c-25 0 -49 -23 -49 -55s21 -55 64 -77c75 -38 130 -74 130 -151c0 -99 -90 -145 -172 -145c-53 0 -104 21 -124 39c-5 15 -13 83 -15 125l32 4c22 -63 68 -130 122 -130c31 0 54 23 54 57c0 35 -19 59 -71 87
c-50 27 -117 64 -117 142c0 77 59 141 160 142c11 0 16 -1 26 -2c-10 18 -15 41 -15 58c0 76 65 132 165 132c13 0 19 1 21 5v15c36 9 78 20 113 33l9 -3v-294zM532 359v-286c18 -18 45 -35 71 -35c34 0 89 32 89 176c0 121 -54 166 -101 166c-26 0 -44 -8 -59 -21z" />
    <glyph glyph-name="s_t" unicode="&#xfb06;" horiz-adv-x="676" 
d="M668 34l-81 -35c-16 -7 -30 -11 -41 -11c-71 0 -114 35 -114 124v284h-56l-5 11l26 35h35v35c0 83 -19 128 -83 127c-55 -1 -82 -55 -81 -108c0 -22 4 -39 12 -54c6 -1 12 -4 16 -7c8 -23 18 -74 20 -89l-29 -12c-27 52 -60 81 -91 81c-25 0 -46 -23 -46 -56
c0 -31 19 -54 62 -76c75 -38 131 -73 131 -150c0 -99 -94 -145 -176 -145c-53 0 -98 20 -118 38c-5 14 -13 85 -15 126l29 6c23 -63 66 -133 121 -133c31 0 56 24 56 57s-20 60 -73 89c-48 27 -113 63 -113 141c0 77 55 141 156 142c11 0 18 0 26 -2c-9 16 -14 33 -14 55
c0 90 72 152 164 152c100 0 168 -45 168 -180v-37h96c9 -11 6 -40 -7 -46h-89v-252c0 -74 27 -90 53 -90c18 0 39 6 51 12z" />
    <glyph glyph-name="zero.slash" unicode="&#xf638;" horiz-adv-x="466" 
d="M404 649l-36 -76c54 -64 74 -169 74 -261c0 -146 -49 -324 -210 -324c-42 0 -77 13 -104 34l-35 -70l-30 19l37 77c-56 62 -78 169 -78 265c0 153 58 322 213 322c44 0 78 -14 106 -35l30 65zM158 168l139 343c-11 50 -32 85 -65 85c-59 0 -83 -122 -83 -284
c0 -51 4 -103 9 -144zM308 446l-137 -341c12 -48 33 -78 63 -78c60 0 82 126 82 286c0 41 -3 96 -8 133z" />
    <glyph glyph-name="Euro" unicode="&#x20ac;" horiz-adv-x="466" 
d="M414 137l31 -10c-9 -43 -23 -86 -35 -117c-19 -6 -67 -22 -112 -22c-148 0 -218 110 -233 263h-55l13 40h39c-1 17 1 39 2 55h-37l13 40h29c26 169 136 250 251 250c46 0 85 -14 104 -20c6 -48 9 -79 12 -118l-32 -8c-20 72 -48 107 -91 107c-58 0 -97 -77 -112 -211h222
l-12 -40h-213c-2 -18 -2 -40 -1 -55h195l-13 -40h-180c7 -136 47 -221 110 -221c41 0 71 31 105 107z" />
    <glyph glyph-name="franc" unicode="&#x20a3;" horiz-adv-x="466" 
d="M432 484l-32 -4c-11 33 -18 55 -33 75c-15 22 -36 28 -74 28h-22c-30 0 -35 -3 -35 -33v-194c113 1 122 3 164 11v-69c-43 8 -51 11 -164 12v-109h123v-39h-123v-39c0 -76 7 -85 80 -91v-32h-274v32c59 6 69 16 69 91v39h-78v39h78v299c0 77 -8 85 -69 91v32h380
c1 -16 5 -83 10 -139z" />
    <glyph glyph-name="lira" unicode="&#x20a4;" horiz-adv-x="466" 
d="M371 238h-134c-14 -44 -54 -87 -101 -113c39 1 67 -6 98 -19c42 -19 90 -40 122 -40c28 0 37 11 37 26s-4 25 -8 36c-4 7 -2 17 3 24c12 16 30 26 41 26c15 0 25 -19 25 -42c0 -47 -46 -100 -80 -126c-33 -25 -64 -37 -97 -37c-41 0 -87 34 -131 59c-29 16 -39 19 -56 19
c-11 0 -27 -13 -32 -40c-2 -11 -7 -16 -14 -16c-16 0 -33 16 -25 47c8 27 41 63 61 90c25 35 32 71 34 106h-88v41h87c-3 21 -6 32 -9 56h-78v41h73c-1 9 -2 23 -2 35c0 57 26 131 93 180c34 25 69 41 106 44c45 0 75 -22 90 -37c11 -12 12 -29 3 -45
c-7 -13 -17 -21 -24 -27c-8 -6 -20 -6 -31 2c-30 22 -60 47 -90 47c-28 0 -37 -18 -37 -62c0 -37 12 -97 20 -137h145v-41h-137c6 -23 7 -35 8 -56h129z" />
    <glyph glyph-name="peseta" unicode="&#x20a7;" horiz-adv-x="466" 
d="M459 415h-37c-6 -99 -66 -159 -155 -172c-12 -1 -11 -1 -20 -1l-47 15v-130c0 -79 5 -87 73 -94v-33h-259v33c60 5 65 16 65 94v288h-52v42h52v44c0 81 -4 83 -61 90v32h210c59 0 98 -13 128 -34c39 -28 63 -80 67 -132h36v-42zM200 457h105c-5 80 -33 128 -79 128
c-9 0 -13 -3 -19 -7c-6 -5 -7 -15 -7 -32v-89zM305 415h-105v-120c12 -4 15 -6 30 -6c37 0 72 47 75 126z" />
    <glyph glyph-name="peseta.alt" unicode="&#xe0d9;" horiz-adv-x="842" 
d="M791 241l-28 -7c-15 36 -33 71 -66 71c-23 0 -37 -16 -37 -36c0 -25 17 -38 57 -58c60 -30 91 -58 91 -111c0 -69 -54 -112 -134 -112c-39 0 -77 14 -99 27c0 3 -1 6 -2 9l-54 -27c-13 -6 -29 -9 -35 -9c-59 0 -96 31 -96 98v215c-21 -8 -41 -12 -54 -14
c-12 -2 -28 -2 -40 -1l-63 16v-175c0 -78 8 -87 83 -93v-34h-279v34c65 6 73 15 73 93v368c0 77 -6 87 -68 94v34h247c78 0 131 -10 168 -35c40 -27 65 -71 65 -124c0 -43 -15 -76 -28 -94v-40h76c8 -14 6 -37 -7 -43h-69v-170c0 -60 26 -68 44 -68c11 0 21 2 33 8
c-3 21 -6 36 -7 58l26 5c16 -43 42 -96 94 -96c22 0 42 11 42 35c0 23 -17 39 -63 63c-43 24 -87 55 -87 108c0 62 49 108 119 109c41 0 62 -6 80 -13c8 -18 16 -67 18 -85zM231 548v-207c12 -5 27 -9 48 -9c44 0 109 25 109 130c0 91 -55 122 -111 122c-19 0 -33 -5 -37 -9
c-6 -5 -9 -14 -9 -27z" />
    <glyph glyph-name="aringacute" unicode="&#x1fb;" horiz-adv-x="439" 
d="M440 42l-105 -54c-24 0 -43 9 -55 21c-14 12 -20 23 -24 34c-30 -22 -75 -55 -99 -55c-80 0 -128 66 -128 125c0 51 22 79 71 99c46 18 127 45 150 66v41c0 58 -25 88 -54 88c-15 0 -25 -5 -36 -19c-10 -13 -18 -35 -25 -67c-6 -24 -18 -32 -36 -32c-26 0 -63 20 -63 48
c0 16 11 30 33 46c39 27 101 62 160 71c41 0 72 -13 97 -34c34 -29 43 -69 43 -116v-179c0 -44 14 -58 32 -58c12 0 22 3 30 6zM250 78v160c-17 -10 -35 -21 -53 -32c-28 -17 -42 -33 -42 -68c0 -48 34 -74 60 -74c14 0 24 4 35 14zM219 494c-47 0 -92 35 -92 91
c0 55 45 89 93 89c46 0 93 -34 93 -89c0 -56 -47 -91 -94 -91zM221 532c26 0 43 23 43 52s-17 51 -44 51c-26 0 -45 -22 -45 -51s19 -52 46 -52zM228 697l-35 12c15 45 45 137 52 158c13 7 81 14 103 11l6 -11z" />
    <glyph glyph-name="estimated" unicode="&#x212e;" horiz-adv-x="764" 
d="M742 302h-583c-3 0 -5 -1 -5 -4v-176c0 -8 3 -15 8 -20c56 -59 134 -96 221 -96c93 0 175 42 232 107h52c-65 -76 -169 -126 -285 -126c-199 0 -360 145 -360 324s161 324 360 324s360 -145 360 -324v-9zM610 325v178c0 8 -3 15 -9 21c-56 56 -133 92 -218 92
c-86 0 -164 -37 -220 -95c-6 -6 -9 -13 -9 -22v-174c0 -2 2 -5 5 -5h447c3 0 4 3 4 5z" />
    <glyph glyph-name="a.sc" unicode="&#xf761;" horiz-adv-x="563" 
d="M540 0h-243v34l18 2c25 4 31 13 19 46l-20 54h-148c-6 -18 -12 -32 -18 -53c-9 -33 0 -43 27 -46l22 -3v-34h-176v34c40 5 57 13 83 77l151 366l50 11l154 -390c21 -51 37 -60 81 -64v-34zM299 182l-56 166h-2l-60 -166h118z" />
    <glyph glyph-name="b.sc" unicode="&#xf762;" horiz-adv-x="536" 
d="M352 261v-2c85 -10 138 -46 138 -116c0 -109 -124 -143 -252 -143h-206v33c60 4 66 8 66 69v268c0 64 -6 68 -62 73v32h258c109 0 169 -34 169 -109c0 -64 -54 -93 -111 -105zM218 272h26c54 0 92 19 92 82c0 64 -40 84 -82 84c-33 0 -36 -13 -36 -41v-125zM218 234v-130
c0 -58 23 -67 50 -67c39 0 89 26 89 101c0 69 -47 96 -113 96h-26z" />
    <glyph glyph-name="c.sc" unicode="&#xf763;" horiz-adv-x="513" 
d="M450 147l33 -10c-8 -42 -27 -103 -38 -128c-23 -7 -86 -22 -141 -22c-181 0 -264 118 -264 244c0 152 118 257 284 257c62 0 112 -15 133 -20c3 -42 6 -76 13 -127l-35 -7c-27 89 -70 116 -121 116c-76 0 -137 -84 -136 -207c0 -140 70 -216 140 -216c48 0 93 37 132 120
z" />
    <glyph glyph-name="d.sc" unicode="&#xf764;" horiz-adv-x="577" 
d="M38 475h233c87 0 159 -18 208 -65c36 -34 60 -92 60 -155c0 -178 -128 -255 -302 -255h-205v33c59 4 66 10 66 71v268c0 62 -7 66 -60 71v32zM221 390v-282c0 -52 11 -69 46 -69c76 0 134 72 134 205c0 137 -61 195 -135 195c-21 0 -33 -5 -38 -10c-5 -4 -7 -18 -7 -39z
" />
    <glyph glyph-name="e.sc" unicode="&#xf765;" horiz-adv-x="481" 
d="M421 132l35 -3c-6 -37 -20 -111 -26 -129h-400v33c62 4 68 10 68 78v257c0 66 -5 71 -62 74v33h376c1 -20 3 -69 7 -117l-34 -2c-8 31 -14 44 -24 58c-12 16 -30 23 -77 23h-36c-26 0 -27 -4 -27 -30v-139h54c54 0 57 5 65 54h34v-150h-34c-8 47 -12 53 -65 53h-54v-106
c0 -43 5 -64 17 -71c12 -8 33 -10 67 -10c39 0 63 5 80 25c13 16 24 39 36 69z" />
    <glyph glyph-name="f.sc" unicode="&#xf766;" horiz-adv-x="458" 
d="M420 356l-32 -3c-9 27 -15 43 -25 60c-11 17 -32 24 -76 24h-39c-25 -1 -27 -2 -27 -28v-157h59c61 0 68 4 78 55h32v-157h-33c-8 58 -16 60 -82 60h-54v-106c0 -60 7 -67 71 -71v-33h-255v33c55 4 61 10 61 70v268c0 62 -6 67 -61 72v32h375c1 -20 4 -69 8 -119z" />
    <glyph glyph-name="g.sc" unicode="&#xf767;" horiz-adv-x="553" 
d="M517 232v-33c-35 -5 -39 -8 -39 -58v-59c0 -27 2 -50 6 -67c-48 -12 -110 -28 -174 -28c-169 0 -270 99 -270 245c0 175 136 257 290 257c59 0 112 -15 137 -23c3 -26 6 -68 11 -130l-33 -3c-25 92 -78 119 -128 119c-66 0 -139 -64 -139 -207c0 -114 51 -220 139 -220
c22 0 38 9 38 43v71c0 50 -4 55 -73 60v33h235z" />
    <glyph glyph-name="h.sc" unicode="&#xf768;" horiz-adv-x="606" 
d="M570 0h-241v33c49 4 56 11 56 73v122h-164v-122c0 -62 6 -69 51 -73v-33h-237v33c57 4 63 11 63 75v262c0 62 -6 68 -65 73v32h242v-32c-48 -5 -54 -9 -54 -71v-98h164v98c0 61 -7 66 -54 71v32h239v-29c-56 -8 -62 -14 -62 -75v-263c0 -64 6 -71 62 -75v-33z" />
    <glyph glyph-name="i.sc" unicode="&#xf769;" horiz-adv-x="319" 
d="M284 0h-248v33c55 4 62 9 62 71v268c0 62 -7 66 -62 70v33h248v-32c-57 -5 -63 -9 -63 -72v-266c0 -62 6 -68 63 -72v-33z" />
    <glyph glyph-name="j.sc" unicode="&#xf76a;" horiz-adv-x="312" 
d="M286 475v-33c-56 -4 -63 -10 -63 -73v-226c0 -96 -8 -177 -85 -228c-34 -23 -69 -38 -104 -45l-12 32c38 15 59 43 67 86c9 51 11 118 11 182v199c0 63 -6 69 -66 73v33h252z" />
    <glyph glyph-name="k.sc" unicode="&#xf76b;" horiz-adv-x="554" 
d="M540 0h-174c-21 33 -83 147 -112 200c-13 24 -23 28 -36 27v-121c0 -62 6 -69 63 -73v-33h-242v33c52 0 59 10 59 71v267c0 63 -5 68 -62 72v32h241v-32c-53 -4 -59 -9 -59 -75v-111c11 1 27 8 45 25c35 32 78 89 99 122c13 22 11 31 -12 35l-21 4v32h199v-32
c-47 -4 -74 -12 -108 -44c-24 -23 -61 -67 -91 -101c52 -87 99 -168 137 -218c25 -36 43 -44 74 -47v-33z" />
    <glyph glyph-name="l.sc" unicode="&#xf76c;" horiz-adv-x="458" 
d="M406 142l34 -5c-6 -32 -20 -109 -26 -137h-382v33c61 4 66 10 66 75v262c0 62 -7 69 -62 73v32h252v-32c-61 -4 -67 -10 -67 -74v-259c0 -36 3 -53 14 -61s32 -10 61 -10c34 0 58 6 73 26c13 16 23 39 37 77z" />
    <glyph glyph-name="m.sc" unicode="&#xf76d;" horiz-adv-x="686" 
d="M649 475v-32c-65 -5 -68 -13 -67 -73l7 -264c1 -63 5 -69 65 -73v-33h-248v33c59 4 64 11 64 77l4 290h-3l-149 -392h-35l-132 383h-2l-8 -184c-3 -75 -3 -102 -2 -127c2 -34 16 -44 64 -47v-33h-176v33c39 2 54 15 59 46c5 28 9 58 13 117l11 158c5 76 -1 84 -61 89v32
h182l114 -277l115 277h185z" />
    <glyph glyph-name="n.sc" unicode="&#xf76e;" horiz-adv-x="554" 
d="M538 475v-32c-37 -1 -58 -11 -62 -43c-3 -26 -6 -62 -6 -129v-278h-52l-276 361l-2 -1v-149c0 -70 3 -103 6 -130c3 -28 24 -40 73 -43v-31h-188v31c37 2 58 15 61 43c3 27 6 60 6 130v140c0 82 -15 95 -77 99v32h172l232 -292h3v88c0 67 -3 103 -7 128
c-4 33 -23 42 -74 44v32h191z" />
    <glyph glyph-name="o.sc" unicode="&#xf76f;" horiz-adv-x="569" 
d="M286 488c149 0 242 -109 242 -244c0 -169 -115 -257 -244 -257c-162 0 -245 124 -245 242c0 174 128 259 247 259zM276 450c-54 0 -99 -71 -99 -201c0 -132 51 -224 115 -224c54 0 98 52 98 199c0 112 -36 226 -114 226z" />
    <glyph glyph-name="p.sc" unicode="&#xf770;" horiz-adv-x="503" 
d="M39 475h240c118 0 186 -47 186 -141s-67 -144 -162 -157c-12 -2 -24 -2 -36 0l-50 14v-86c0 -62 6 -67 71 -72v-33h-253v33c56 5 62 10 62 71v264c0 65 -6 70 -58 75v32zM217 396v-167c12 -5 27 -9 40 -9c24 0 78 16 78 113c0 74 -42 106 -84 106c-31 0 -34 -9 -34 -43z
" />
    <glyph glyph-name="q.sc" unicode="&#xf771;" horiz-adv-x="570" 
d="M551 -110l-8 -21c-47 -9 -98 -2 -124 6c-32 10 -86 43 -172 115c-138 19 -207 133 -207 237c0 176 129 261 246 261c151 0 244 -109 244 -244c0 -130 -69 -208 -146 -237c55 -44 115 -84 167 -117zM266 29l58 28c8 -6 16 -12 23 -19c19 18 45 77 45 183
c0 119 -37 229 -115 229c-52 0 -99 -71 -99 -204c0 -111 41 -199 88 -217z" />
    <glyph glyph-name="r.sc" unicode="&#xf772;" horiz-adv-x="545" 
d="M535 21l-3 -27h-36c-106 0 -137 24 -163 63c-23 36 -42 76 -61 116c-11 22 -19 30 -42 30h-12v-94c0 -65 6 -72 60 -76v-33h-243v33c57 4 63 10 63 74v260c0 67 -6 72 -60 76v32h248c57 0 95 -6 126 -24c33 -19 54 -54 54 -98c0 -59 -42 -98 -93 -119
c11 -25 45 -83 68 -119c23 -35 38 -53 53 -69c14 -14 29 -21 41 -25zM218 240h21c32 0 50 3 67 17c18 15 30 43 30 77c0 75 -43 104 -85 104c-25 0 -33 -7 -33 -32v-166z" />
    <glyph glyph-name="s.sc" unicode="&#xf773;" horiz-adv-x="427" 
d="M366 348l-33 -8c-19 68 -57 110 -108 110c-37 0 -64 -27 -64 -64c0 -39 31 -59 65 -76l28 -13c75 -34 135 -71 135 -153c0 -98 -77 -157 -190 -157c-70 0 -116 25 -133 36c-7 18 -17 74 -24 129l33 9c17 -53 67 -136 137 -136c40 0 70 27 70 69c0 35 -20 57 -69 80
l-32 15c-54 25 -122 67 -122 146c0 88 64 153 180 153c47 0 94 -17 112 -25c4 -25 9 -58 15 -115z" />
    <glyph glyph-name="t.sc" unicode="&#xf774;" horiz-adv-x="504" 
d="M472 345l-32 -2c-12 44 -20 61 -30 76c-10 13 -30 18 -61 18h-34v-329c0 -64 6 -71 71 -75v-33h-262v33c62 4 68 11 68 77v327h-23c-43 0 -60 -7 -71 -22c-11 -14 -19 -36 -30 -73h-32c3 59 8 114 9 151h22c11 -16 19 -18 43 -18h293c23 0 27 4 38 18h23
c0 -36 4 -107 8 -148z" />
    <glyph glyph-name="u.sc" unicode="&#xf775;" horiz-adv-x="556" 
d="M540 475v-32c-40 -1 -56 -11 -60 -39c-3 -26 -6 -60 -6 -122v-61c0 -77 -14 -140 -52 -181c-31 -33 -82 -53 -134 -53c-55 0 -103 12 -138 40c-37 30 -60 83 -60 169v174c0 62 -6 68 -63 73v32h248v-32c-55 -5 -61 -11 -61 -73v-153c0 -118 37 -169 108 -169
c73 0 107 60 107 172v61c0 69 -3 99 -6 123c-5 29 -23 37 -73 39v32h190z" />
    <glyph glyph-name="v.sc" unicode="&#xf776;" horiz-adv-x="554" 
d="M534 475v-32c-46 -7 -60 -18 -86 -73c-34 -70 -96 -228 -155 -380h-41c-52 131 -103 258 -157 388c-21 53 -36 60 -76 65v32h245v-32l-22 -4c-26 -5 -32 -13 -19 -47c31 -83 60 -162 92 -244c25 66 69 184 84 233c14 41 11 54 -21 59l-21 3v32h177z" />
    <glyph glyph-name="w.sc" unicode="&#xf777;" horiz-adv-x="725" 
d="M707 475v-33c-49 -8 -58 -15 -76 -68c-42 -120 -79 -247 -123 -382h-38l-117 286h-2l-102 -286h-36l-123 379c-20 59 -30 66 -72 72v32h240v-33l-23 -4c-28 -5 -35 -13 -24 -52l60 -217h2l95 293h39l115 -295h2c24 76 44 146 61 216c10 42 3 51 -28 55l-27 4v33h177z" />
    <glyph glyph-name="x.sc" unicode="&#xf778;" horiz-adv-x="548" 
d="M530 0h-257v34l21 4c20 3 22 17 3 50l-55 95c-24 -39 -42 -70 -58 -100c-13 -26 -11 -39 12 -44l27 -5v-34h-195v34c54 7 72 17 111 69c24 32 55 72 81 115l-97 164c-28 47 -39 53 -90 59v34h241v-34l-20 -4c-19 -3 -21 -11 -8 -31l54 -93c21 31 39 63 51 87
c13 26 7 34 -10 38l-20 4v33h185v-34c-59 -7 -77 -16 -114 -63c-20 -27 -38 -49 -71 -98l106 -174c34 -55 53 -66 103 -72v-34z" />
    <glyph glyph-name="y.sc" unicode="&#xf779;" horiz-adv-x="511" 
d="M495 475v-33c-48 -4 -62 -14 -90 -59c-18 -30 -45 -78 -81 -149c-6 -13 -8 -24 -8 -41v-88c0 -61 6 -67 72 -72v-33h-267v33c67 5 71 11 71 70v82c0 23 -4 34 -13 52c-26 51 -50 95 -79 146c-27 47 -38 55 -82 59v33h238v-33l-23 -4c-20 -3 -22 -13 -12 -34
c29 -59 49 -100 73 -149c26 50 48 101 65 139c14 30 9 39 -14 44l-23 4v33h173z" />
    <glyph glyph-name="z.sc" unicode="&#xf77a;" horiz-adv-x="484" 
d="M431 148l33 -7c-7 -38 -21 -117 -28 -141h-396l-9 18l258 417h-65c-71 0 -90 -8 -101 -24c-11 -15 -20 -37 -29 -74h-34c4 66 8 117 10 156h24c12 -16 19 -18 41 -18h301l8 -17l-253 -415c15 -1 41 -3 78 -3c53 0 93 4 113 23c17 16 35 47 49 85z" />
    <glyph glyph-name="dcroat.sc" unicode="&#xf676;" horiz-adv-x="606" 
d="M61 475h239c84 0 157 -17 205 -64c37 -35 61 -90 61 -152c0 -183 -129 -259 -300 -259h-211v32c60 4 66 11 66 76v116h-65v46h65v97c0 67 -6 71 -60 76v32zM244 224v-114c0 -54 10 -71 49 -71c77 0 135 75 135 204c0 139 -63 195 -141 195c-23 0 -33 -4 -37 -10
c-4 -9 -6 -15 -6 -39v-119h94v-46h-94z" />
    <glyph glyph-name="hbar.sc" unicode="&#xf681;" horiz-adv-x="606" 
d="M570 0h-240v33c49 4 56 11 56 75v106h-165v-106c0 -63 6 -71 51 -75v-33h-236v33c57 4 63 11 63 77v222h-60v43h60v8c0 49 -9 55 -65 60v32h241v-32c-45 -5 -53 -9 -54 -58v-10h165v10c0 46 -11 53 -55 58v32h239v-29c-52 -8 -62 -14 -62 -60v-11h59v-43h-59v-222
c0 -66 6 -73 62 -77v-33zM386 260v72h-165v-72h165z" />
    <glyph glyph-name="dotlessi.sc" unicode="&#xe08e;" horiz-adv-x="319" 
d="M284 0h-248v33c55 4 62 9 62 71v268c0 62 -7 66 -62 70v33h248v-32c-57 -5 -63 -9 -63 -72v-266c0 -62 6 -68 63 -72v-33z" />
    <glyph glyph-name="oslash.sc" unicode="&#xf7f8;" horiz-adv-x="572" 
d="M484 492l-38 -57c57 -46 87 -114 87 -190c0 -168 -115 -258 -247 -258c-45 0 -88 12 -126 32l-46 -64l-29 25l42 61c-59 49 -87 120 -87 187c0 175 130 260 248 260c47 0 87 -11 125 -32l40 58zM192 127l171 262c-21 42 -43 60 -83 60c-56 0 -107 -72 -107 -202
c0 -42 6 -87 19 -120zM383 347l-171 -262c21 -43 49 -59 82 -59c50 0 106 47 106 202c0 44 -6 88 -17 119z" />
    <glyph glyph-name="tbar.sc" unicode="&#xf69c;" horiz-adv-x="504" 
d="M472 345l-33 -2c-12 44 -20 61 -32 75c-11 12 -28 18 -59 18h-33v-176h95v-42h-95v-108c0 -64 6 -73 71 -77v-33h-263v33c63 4 69 13 69 78v107h-95v42h95v176h-22c-43 0 -60 -8 -71 -22c-12 -14 -20 -35 -31 -72h-33c3 59 8 114 9 151h24c11 -16 19 -18 43 -18h290
c23 0 27 4 38 18h25c0 -36 4 -107 8 -148z" />
    <glyph glyph-name="eng.sc" unicode="&#xf67b;" horiz-adv-x="552" 
d="M536 475v-33c-37 -2 -58 -11 -62 -43c-3 -26 -6 -61 -6 -128v-226c0 -91 -10 -148 -35 -191c-22 -38 -52 -59 -84 -59c-29 0 -54 26 -54 57c0 13 4 26 15 26s21 -9 39 -9c47 0 69 59 70 121l-277 361h-2v-145c0 -70 3 -103 6 -130c3 -28 24 -39 73 -42v-34h-189v34
c38 2 59 14 62 42c3 27 6 60 6 130v140c0 83 -12 91 -77 96v33h171l231 -290h3v86c0 67 -3 102 -7 127c-4 33 -24 41 -75 44v33h192z" />
    <glyph glyph-name="eth.sc" unicode="&#xf7f0;" horiz-adv-x="606" 
d="M61 475h239c84 0 157 -17 205 -64c37 -35 61 -90 61 -152c0 -183 -129 -259 -300 -259h-211v32c60 4 66 11 66 76v116h-65v46h65v97c0 67 -6 71 -60 76v32zM244 224v-114c0 -54 10 -71 49 -71c77 0 135 75 135 204c0 139 -63 195 -141 195c-23 0 -33 -4 -37 -10
c-4 -9 -6 -15 -6 -39v-119h94v-46h-94z" />
    <glyph glyph-name="thorn.sc" unicode="&#xf7fe;" horiz-adv-x="515" 
d="M280 475v-33c-54 -4 -60 -6 -59 -66h90c100 0 167 -40 167 -128c0 -89 -71 -133 -164 -143c-17 -2 -35 -1 -48 3l-46 12v-20c0 -57 8 -63 69 -67v-33h-251v33c55 4 62 11 62 74v267c0 62 -6 63 -62 69v32h242zM220 302v-145c13 -5 27 -9 46 -9c37 0 80 22 80 97
c0 69 -47 95 -89 95c-35 0 -37 -8 -37 -38z" />
    <glyph glyph-name="uni021D.sc" unicode="&#xe203;" horiz-adv-x="434" 
d="M105 173l-10 32c98 41 139 76 139 152c0 60 -31 90 -67 90c-42 0 -62 -38 -88 -107l-34 7c8 46 14 81 18 113c51 13 81 28 140 28c86 0 153 -41 153 -114c0 -41 -19 -64 -52 -90c-9 -8 -26 -19 -38 -25v-2c73 -19 127 -70 127 -147c0 -117 -138 -216 -304 -243l-53 43
l6 18c19 -4 42 -7 68 -7c87 0 153 48 153 148c0 82 -48 119 -89 119c-18 0 -33 -4 -69 -15z" />
    <glyph glyph-name="germandbls.sc" unicode="&#xe0a4;" horiz-adv-x="854" 
d="M366 348l-33 -8c-19 68 -57 110 -108 110c-37 0 -64 -27 -64 -64c0 -39 31 -59 65 -76l28 -13c75 -34 135 -71 135 -153c0 -98 -77 -157 -190 -157c-70 0 -116 25 -133 36c-7 18 -17 74 -24 129l33 9c17 -53 67 -136 137 -136c40 0 70 27 70 69c0 35 -20 57 -69 80
l-32 15c-54 25 -122 67 -122 146c0 88 64 153 180 153c47 0 94 -17 112 -25c4 -25 9 -58 15 -115zM793 348l-33 -8c-19 68 -57 110 -108 110c-37 0 -64 -27 -64 -64c0 -39 31 -59 65 -76l28 -13c75 -34 135 -71 135 -153c0 -98 -77 -157 -190 -157c-70 0 -116 25 -133 36
c-7 18 -17 74 -24 129l33 9c17 -53 67 -136 137 -136c40 0 70 27 70 69c0 35 -20 57 -69 80l-32 15c-54 25 -122 67 -122 146c0 88 64 153 180 153c47 0 94 -17 112 -25c4 -25 9 -58 15 -115z" />
    <glyph glyph-name="ae.sc" unicode="&#xf7e6;" horiz-adv-x="722" 
d="M662 133l35 -5c-6 -36 -20 -110 -26 -128h-396v32c61 4 67 13 67 77v95h-133c-20 -41 -39 -82 -54 -119c-11 -28 -8 -43 12 -47l32 -6v-32h-185v32c35 4 59 12 87 61c21 38 51 90 100 187l65 128c11 22 3 27 -22 30l-45 6v31h454c1 -21 3 -70 7 -116l-33 -4
c-8 29 -16 43 -26 58c-11 14 -31 23 -72 23h-41c-26 0 -27 -3 -27 -29v-161h52c54 0 61 12 69 57h33v-155h-33c-6 38 -16 56 -69 56h-52v-91c0 -39 5 -57 16 -65c13 -8 32 -10 67 -10c38 0 65 5 82 26c14 16 26 41 36 69zM342 246v191c-7 -1 -18 -5 -26 -22
c-22 -42 -53 -104 -86 -169h112z" />
    <glyph glyph-name="oe.sc" unicode="&#xf6fa;" horiz-adv-x="776" 
d="M716 130l34 -2c-5 -37 -19 -110 -25 -128h-262c-31 0 -63 -1 -89 -4c-23 -2 -48 -4 -68 -4c-182 0 -267 116 -267 238c0 173 137 253 286 252c63 0 91 -7 124 -7h258c1 -20 3 -69 7 -117l-34 -2c-8 31 -14 46 -23 58c-13 16 -29 23 -76 23h-37c-27 0 -28 -3 -28 -31v-139
h52c54 0 60 6 68 54h33v-151h-33c-8 49 -15 55 -68 55h-52v-105c0 -43 5 -64 17 -72s34 -9 68 -9c38 0 63 4 81 24c13 16 24 38 34 67zM394 104v281c0 24 0 43 -10 48c-11 6 -31 13 -56 13c-87 0 -151 -75 -151 -204s61 -212 149 -212c19 0 38 5 52 13c15 9 16 31 16 61z
" />
    <glyph glyph-name="i.dot" horiz-adv-x="275" 
d="M136 510c-35 0 -66 32 -66 69c0 39 31 68 67 68c38 0 67 -29 67 -68c0 -37 -29 -69 -68 -69zM264 0h-238v31c52 6 58 10 58 78v206c0 62 -5 64 -52 74v28c55 7 116 20 174 37v-345c0 -67 5 -72 58 -78v-31z" />
    <glyph glyph-name="uni25B6" unicode="&#x25b6;" horiz-adv-x="606" 
d="M75 25c0 0 2 465 1 465h1l486 -230v-2l-486 -235z" />
    <glyph glyph-name="ij.sc" unicode="&#xf684;" horiz-adv-x="631" 
d="M284 0h-248v33c55 4 62 9 62 71v268c0 62 -7 66 -62 70v33h248v-32c-57 -5 -63 -9 -63 -72v-266c0 -62 6 -68 63 -72v-33zM606 475v-33c-56 -4 -63 -10 -63 -73v-226c0 -96 -8 -177 -85 -228c-34 -23 -69 -38 -104 -45l-12 32c38 15 59 43 67 86c9 51 11 118 11 182v199
c0 63 -6 69 -66 73v33h252z" />
    <glyph glyph-name="ampersand.sc" unicode="&#xf726;" horiz-adv-x="632" 
d="M615 308l-24 -3c-29 -3 -47 -21 -79 -58c-24 -27 -39 -50 -67 -87c82 -81 112 -120 141 -166l-7 -11c-74 1 -144 22 -163 40c-8 8 -21 22 -46 46c-43 -49 -94 -81 -160 -81c-112 0 -167 82 -167 145c0 62 41 94 111 138c-31 28 -55 60 -55 108c0 78 70 139 157 139
c85 0 143 -52 143 -122c0 -25 -13 -48 -37 -68c-14 -11 -30 -23 -60 -41c33 -28 73 -65 116 -102c21 31 34 53 45 77c12 26 9 36 -20 42l-23 4v33h195v-33zM244 482c-28 0 -50 -29 -50 -65c0 -38 25 -67 80 -110c22 22 33 51 33 90c0 47 -27 85 -63 85zM264 65
c35 0 64 12 80 30c-49 48 -94 89 -165 154c-14 -19 -22 -38 -22 -66c0 -76 55 -118 107 -118z" />
    <glyph glyph-name="exclam.sc" unicode="&#xf721;" horiz-adv-x="255" 
d="M130 519c70 0 92 -25 77 -87l-59 -241h-38l-58 240c-15 63 6 88 78 88zM129 -12c-37 0 -69 31 -69 72c0 42 32 76 70 76c41 0 71 -34 71 -76c0 -41 -30 -72 -72 -72z" />
    <glyph glyph-name="exclamdown.sc" unicode="&#xf7a1;" horiz-adv-x="255" 
d="M127 518c38 0 70 -30 70 -73s-32 -77 -71 -77c-42 0 -72 34 -72 77s30 73 73 73zM109 315h38l57 -239c15 -64 -6 -88 -77 -88h-1c-69 0 -91 24 -76 87z" />
    <glyph glyph-name="question.sc" unicode="&#xf73f;" horiz-adv-x="381" 
d="M212 194l-24 -18c-44 20 -91 56 -91 102c0 32 21 56 75 84c70 36 95 52 95 71c0 16 -13 28 -32 28c-55 0 -84 -80 -124 -80c-29 0 -57 32 -57 56c0 17 10 32 27 46c20 16 63 36 101 36h1c73 0 155 -55 155 -140c0 -42 -25 -72 -84 -102c-39 -19 -50 -32 -50 -51
c0 -12 5 -23 8 -32zM183 -12c-37 0 -69 31 -69 72c0 43 32 76 70 76c41 0 71 -34 71 -76c0 -41 -30 -72 -72 -72z" />
    <glyph glyph-name="questiondown.sc" unicode="&#xf7bf;" horiz-adv-x="381" 
d="M196 519c37 0 69 -30 69 -73c0 -41 -32 -75 -70 -75c-41 0 -71 34 -71 75c0 43 30 73 72 73zM169 312l25 18c44 -19 90 -56 90 -101c0 -32 -21 -57 -75 -84c-70 -36 -95 -52 -95 -71c0 -16 13 -28 32 -28c55 0 83 79 123 79c29 0 58 -31 58 -55c0 -18 -10 -32 -27 -46
c-20 -17 -63 -36 -100 -36h-2c-73 0 -155 55 -155 140c0 41 24 71 84 101c39 19 50 32 50 51c0 13 -5 23 -8 32z" />
    <glyph glyph-name="zero.oldstyle" unicode="&#xf730;" horiz-adv-x="516" 
d="M259 458c136 0 215 -112 215 -235c0 -122 -80 -235 -216 -235c-137 0 -216 112 -216 235s80 235 217 235zM258 402c-55 0 -101 -63 -101 -179c0 -117 46 -180 103 -180c56 0 99 65 99 180c0 118 -46 179 -101 179z" />
    <glyph glyph-name="one.oldstyle" unicode="&#xf731;" horiz-adv-x="351" 
d="M324 0h-280v32l41 6c34 4 38 20 38 71v212c0 44 -4 51 -38 54l-37 3v30c52 8 118 25 197 50v-349c0 -51 5 -67 36 -71l43 -6v-32z" />
    <glyph glyph-name="two.oldstyle" unicode="&#xf732;" horiz-adv-x="440" 
d="M423 136l-34 -136h-355v30c77 54 207 138 207 250c0 55 -27 91 -81 91c-44 0 -74 -30 -103 -69l-27 23l55 75c30 34 70 58 128 58c92 0 152 -63 152 -145c0 -48 -22 -89 -72 -134c-33 -30 -76 -59 -111 -83v-2h119c50 0 64 2 89 52z" />
    <glyph glyph-name="three.oldstyle" unicode="&#xf733;" horiz-adv-x="412" 
d="M235 220v-3c86 -15 134 -77 134 -145c0 -153 -190 -232 -247 -232c-40 0 -74 15 -92 30c-13 11 -19 24 -14 43c4 14 14 26 27 35c11 9 23 8 34 -1c27 -22 60 -48 101 -48c43 0 71 51 71 114c0 100 -58 129 -104 129c-17 0 -31 -3 -47 -7l-8 33c76 33 128 63 128 131
c0 45 -27 81 -73 81c-40 0 -67 -30 -89 -60l-25 23l41 58c23 28 66 57 120 57h1c83 0 138 -49 138 -127c0 -28 -15 -49 -34 -67c-14 -14 -35 -28 -62 -44z" />
    <glyph glyph-name="four.oldstyle" unicode="&#xf734;" horiz-adv-x="466" 
d="M454 86l-9 -62h-75v-179h-119v179h-223v41c81 121 197 289 277 393h65v-372h84zM251 86v230h-2c-52 -75 -93 -141 -148 -230h150z" />
    <glyph glyph-name="five.oldstyle" unicode="&#xf735;" horiz-adv-x="388" 
d="M113 336l-14 -75c116 -6 248 -46 248 -191c0 -66 -33 -121 -98 -164c-62 -42 -151 -66 -225 -66l-6 36c90 14 212 61 212 164c0 73 -69 114 -191 117l38 274l269 27l-14 -100z" />
    <glyph glyph-name="six.oldstyle" unicode="&#xf736;" horiz-adv-x="494" 
d="M436 609l6 -37c-35 -7 -73 -21 -102 -37c-43 -24 -121 -75 -155 -188l42 23c21 11 38 18 57 18c102 0 171 -74 171 -186c0 -119 -84 -214 -208 -214c-120 0 -204 96 -204 239c0 207 150 319 262 354c55 18 96 23 131 28zM230 321c-20 0 -33 -5 -50 -13
c-4 -22 -6 -42 -6 -75c0 -130 44 -205 89 -205c54 0 68 67 68 135c0 92 -37 158 -101 158z" />
    <glyph glyph-name="seven.oldstyle" unicode="&#xf737;" horiz-adv-x="422" 
d="M401 447l9 -13c-51 -110 -190 -393 -279 -577l-97 -17l-7 14c117 173 210 333 292 489h-292v104h374z" />
    <glyph glyph-name="eight.oldstyle" unicode="&#xf738;" horiz-adv-x="470" 
d="M241 608c102 0 165 -64 165 -146c0 -25 -10 -48 -27 -67c-9 -10 -31 -30 -69 -57c65 -42 120 -86 120 -172c0 -119 -108 -178 -200 -178c-112 0 -190 59 -190 161c0 40 22 67 38 84c19 19 57 44 83 59c-55 38 -101 83 -101 151c0 90 73 165 181 165zM229 569
c-40 0 -65 -38 -65 -83c0 -57 44 -91 114 -130c14 15 30 50 30 100c0 82 -45 113 -79 113zM244 27c49 0 75 48 75 96c0 75 -54 106 -128 151c-26 -27 -45 -66 -45 -118c0 -80 49 -129 98 -129z" />
    <glyph glyph-name="nine.oldstyle" unicode="&#xf739;" horiz-adv-x="491" 
d="M249 458c128 0 199 -107 199 -240c0 -194 -124 -304 -257 -349c-41 -14 -114 -28 -157 -29l-8 34c145 32 248 115 278 227l-34 -17c-21 -11 -37 -16 -50 -16c-118 0 -180 83 -180 180s71 210 209 210zM231 418c-41 0 -64 -51 -64 -129c0 -94 43 -156 108 -156
c15 0 26 3 34 7c6 24 8 46 8 85c0 98 -26 193 -86 193z" />
    <glyph glyph-name="dollar.oldstyle" unicode="&#xf724;" horiz-adv-x="479" 
d="M260 285l20 -6c94 -27 151 -65 151 -143c0 -83 -69 -136 -171 -146v-80h-38v79c-69 1 -130 25 -148 37c-7 18 -19 65 -28 126l33 9c19 -50 66 -125 143 -134v150l-27 8c-85 25 -136 63 -136 133c0 76 58 135 163 144v68h38v-66c36 0 78 -8 118 -25c8 -28 15 -61 22 -112
l-34 -9c-14 49 -45 97 -106 106v-139zM222 295v129c-52 -5 -75 -34 -75 -63c0 -33 26 -52 75 -66zM260 166v-138c38 4 74 25 74 66c0 31 -19 55 -74 72z" />
    <glyph glyph-name="cent.oldstyle" unicode="&#xf7a2;" horiz-adv-x="466" 
d="M413 142l19 -26c-33 -51 -81 -89 -135 -98v-98h-38v94c-135 5 -211 102 -211 203c0 71 36 138 96 183c35 25 79 44 115 51v82h38v-78c6 1 12 1 16 1c28 0 67 -8 88 -23c12 -9 17 -20 17 -32c0 -31 -26 -52 -38 -52c-5 0 -8 0 -17 9c-25 29 -45 44 -66 48v-312
c47 1 87 21 116 48zM259 101v309c-38 -3 -96 -39 -96 -145c0 -103 47 -151 96 -164z" />
    <glyph glyph-name="Euro.oldstyle" unicode="&#xe023;" horiz-adv-x="550" 
d="M480 132l30 -10c-10 -41 -25 -88 -38 -114c-21 -6 -79 -20 -128 -20c-163 0 -240 96 -258 216h-63l13 38h47c-1 16 0 39 2 57h-49l13 38h43c30 124 132 204 274 204c51 0 99 -13 121 -18c5 -43 9 -79 12 -115l-30 -8c-24 68 -60 103 -114 103c-71 0 -116 -69 -131 -166
h250l-13 -38h-242c-2 -14 -2 -43 0 -57h236l-14 -38h-219c14 -115 60 -178 132 -178c47 0 86 34 126 106z" />
    <glyph glyph-name="florin.oldstyle" unicode="&#xe09f;" horiz-adv-x="486" 
d="M163 307l5 25c17 81 50 131 99 171c54 46 100 56 126 56s60 -16 59 -44c-1 -25 -24 -54 -45 -54c-18 0 -37 50 -63 50c-10 0 -17 -7 -22 -22c-6 -18 -15 -60 -32 -182h91v-44h-98l-19 -105c-35 -189 -98 -238 -150 -272c-28 -19 -59 -28 -81 -28c-28 0 -54 18 -53 44
c1 27 27 50 40 50c18 0 41 -39 64 -39c10 0 16 9 20 21c3 15 9 44 22 128l30 201h-71v44h78z" />
    <glyph glyph-name="sterling.oldstyle" unicode="&#xe0dd;" horiz-adv-x="494" 
d="M373 243h-128v-11c-2 -47 -40 -95 -100 -127c38 4 69 2 108 -14c34 -15 82 -38 113 -38c21 0 32 10 32 27c0 10 -3 23 -7 32c-3 7 -1 17 4 24c12 13 29 25 42 25c16 0 25 -20 25 -38c0 -46 -47 -96 -83 -122c-30 -21 -61 -34 -89 -34c-41 0 -90 29 -133 54
c-27 14 -38 21 -54 21c-15 0 -27 -15 -30 -34c-3 -11 -11 -16 -20 -16c-15 0 -33 16 -25 42c8 24 37 55 54 76c26 35 34 66 34 93c0 17 -2 31 -2 40h-81v42h75c-4 25 -5 43 -5 60c0 55 33 117 91 156c31 21 71 37 104 38c42 0 73 -15 92 -33c12 -13 11 -30 3 -45
c-6 -11 -16 -20 -23 -26c-10 -7 -22 -9 -33 0c-32 27 -61 50 -88 50c-24 0 -34 -17 -34 -47c0 -41 19 -101 27 -153h131v-42z" />
    <glyph glyph-name="yen.oldstyle" unicode="&#xe101;" horiz-adv-x="497" 
d="M473 533v-32c-39 -5 -49 -15 -76 -56c-22 -35 -49 -85 -85 -155h107v-39h-113v-24v-42h114v-39h-114v-41c0 -57 8 -68 71 -72v-33h-261v33c62 4 68 16 68 74v39h-117v39h117v32v34h-117v39h106c-16 34 -42 88 -77 157c-23 42 -33 48 -70 54v32h224v-32l-20 -5
c-18 -4 -23 -13 -16 -29c24 -59 51 -113 70 -151c26 52 48 103 65 144c10 23 5 33 -20 37l-20 4v32h164z" />
    <glyph glyph-name="colonmonetary.oldstyle" unicode="&#xe08b;" horiz-adv-x="520" 
d="M458 137l28 -11c-10 -38 -28 -91 -40 -115c-21 -7 -75 -20 -119 -21l-9 -59h-33l9 61c-21 1 -37 3 -51 8l-12 -69h-33l13 77c-126 40 -171 146 -171 252c0 156 106 261 256 276l10 58h32l-8 -56h7c13 0 28 -2 45 -4l10 60h33l-11 -65c18 -4 37 -9 53 -12
c6 -42 9 -78 13 -114l-28 -5c-11 32 -23 65 -45 81l-75 -453c60 5 90 44 126 111zM299 28l77 466c-16 6 -34 9 -52 8l-75 -457c14 -10 30 -14 50 -17zM220 68l70 432c-77 -20 -119 -124 -119 -238c0 -90 21 -159 49 -194z" />
    <glyph glyph-name="franc.oldstyle" unicode="&#xe0a1;" horiz-adv-x="493" 
d="M450 407l-31 -5c-10 28 -18 47 -31 64c-13 18 -31 23 -77 23h-36c-25 0 -30 -3 -30 -28v-154c99 0 134 3 172 9v-63c-38 6 -72 9 -172 10v-84h121v-41h-121v-33c0 -63 7 -69 72 -74v-31h-260v31c55 6 64 11 64 74v33h-72v41h72v242c0 66 -8 72 -64 77v31h384
c1 -14 5 -70 9 -122z" />
    <glyph glyph-name="lira.oldstyle" unicode="&#xe0a7;" horiz-adv-x="494" 
d="M376 198h-141c-10 -29 -38 -65 -87 -92c37 4 66 2 109 -15c35 -14 80 -37 111 -37c20 0 32 10 32 27c0 11 -4 24 -8 32c-3 7 -1 17 4 24c12 14 30 25 42 25c17 0 26 -20 26 -38c0 -46 -47 -96 -84 -122c-30 -21 -58 -35 -86 -35c-41 0 -91 30 -133 53
c-27 16 -41 23 -58 23c-15 0 -25 -15 -29 -35c-3 -11 -12 -16 -20 -16c-15 0 -32 17 -24 43c7 24 37 55 54 76c21 25 33 61 33 87h-84v39h81c-1 17 -2 29 -4 51h-77v39h73c0 8 -1 16 -1 24c0 53 32 113 93 154c30 20 69 35 101 36c43 0 74 -15 92 -32c14 -14 13 -30 5 -45
c-7 -11 -17 -22 -25 -28c-10 -7 -22 -9 -33 0c-32 27 -63 52 -90 52c-25 0 -33 -18 -33 -49c0 -32 13 -83 18 -112h143v-39h-135c2 -16 3 -35 3 -51h132v-39z" />
    <glyph glyph-name="numbersign.oldstyle" unicode="&#xe0b4;" horiz-adv-x="498" 
d="M453 374l-10 -80h-87l-27 -121h78l-12 -80h-84l-35 -163h-49l37 163h-89l-35 -163h-49l36 163h-88l9 80h97l26 121h-83l9 80h91l31 140h49l-32 -140h89l31 140h48l-31 -140h80zM308 294h-89l-26 -121h88z" />
    <glyph glyph-name="percent.oldstyle" unicode="&#xf642;" horiz-adv-x="701" 
d="M525 526l-323 -556l-36 25l321 555zM180 540c101 0 141 -90 141 -156c0 -68 -40 -157 -144 -157c-105 0 -143 92 -143 157c0 67 40 156 146 156zM178 505c-39 0 -49 -81 -49 -121c0 -42 10 -122 49 -122c40 0 48 81 48 122c0 44 -6 121 -48 121zM526 302
c101 0 141 -90 141 -156c0 -69 -40 -158 -144 -158c-105 0 -143 92 -143 157c0 68 40 157 146 157zM524 267c-39 0 -49 -81 -49 -121c0 -43 10 -123 49 -123c40 0 48 82 48 122c0 44 -6 122 -48 122z" />
    <glyph glyph-name="perthousand.oldstyle" unicode="&#xf628;" horiz-adv-x="1014" 
d="M525 526l-323 -556l-36 25l321 555zM180 540c101 0 141 -90 141 -156c0 -69 -40 -157 -144 -157c-105 0 -143 92 -143 156c0 68 40 157 146 157zM178 505c-39 0 -49 -81 -49 -121c0 -43 10 -123 49 -123c40 0 48 82 48 122c0 44 -6 122 -48 122zM526 302
c101 0 141 -90 141 -156c0 -69 -40 -158 -144 -158c-105 0 -143 92 -143 157c0 68 40 157 146 157zM524 267c-39 0 -49 -81 -49 -121c0 -43 10 -123 49 -123c40 0 48 82 48 122c0 44 -6 122 -48 122zM843 302c101 0 141 -90 141 -156c0 -69 -40 -158 -144 -158
c-106 0 -144 92 -144 157c0 68 40 157 147 157zM840 267c-39 0 -49 -81 -49 -121c0 -43 10 -123 50 -123s48 82 48 122c0 44 -6 122 -49 122z" />
    <glyph glyph-name="estimated.oldstyle" unicode="&#xe091;" horiz-adv-x="697" 
d="M654 257h-495c-2 0 -4 -1 -4 -4v-149c0 -7 3 -13 7 -18c47 -49 114 -80 188 -80c79 0 148 35 196 90h44c-55 -64 -143 -107 -241 -107c-169 0 -306 123 -306 275c0 153 137 276 306 276c168 0 305 -123 305 -276v-7zM542 276v151c0 7 -3 13 -8 18c-47 49 -112 78 -184 78
c-73 0 -140 -31 -187 -80c-5 -5 -8 -12 -8 -19v-148c0 -2 2 -4 4 -4h380c2 0 3 2 3 4z" />
    <glyph glyph-name="zero.fitted" unicode="&#xf639;" horiz-adv-x="496" 
d="M251 635c159 0 208 -178 208 -323c0 -146 -49 -324 -210 -324c-160 0 -211 178 -211 325c1 153 58 322 213 322zM248 597c-62 0 -79 -144 -79 -283c0 -145 19 -288 81 -288c60 0 78 143 78 287c0 140 -18 284 -80 284z" />
    <glyph glyph-name="one.fitted" unicode="&#xf6dc;" horiz-adv-x="351" 
d="M323 0h-278v32c72 5 78 14 78 84v376c0 49 -5 53 -49 60l-36 4v27c69 11 136 29 207 52v-519c0 -70 5 -79 78 -84v-32z" />
    <glyph glyph-name="two.fitted" unicode="&#xf63a;" horiz-adv-x="461" 
d="M414 166l28 -8c-15 -54 -25 -116 -35 -158h-383v25c51 51 105 108 151 167c64 83 104 153 104 236c0 67 -32 115 -98 115c-52 0 -95 -38 -122 -81l-27 21l59 92c34 36 82 60 143 60c94 0 171 -65 171 -174c0 -85 -46 -146 -134 -236l-119 -120h166c50 0 64 1 96 61z" />
    <glyph glyph-name="three.fitted" unicode="&#xf63b;" horiz-adv-x="455" 
d="M277 385v-4c91 -19 140 -83 140 -155c0 -170 -208 -238 -268 -238c-44 0 -84 17 -101 32c-16 14 -22 25 -22 39c0 18 15 33 28 43c10 8 20 10 33 -1c21 -20 66 -59 120 -59c48 0 84 37 84 129c0 105 -63 143 -114 143c-18 0 -37 -3 -52 -8l-9 31c89 30 143 70 143 134
c0 60 -38 89 -82 89s-79 -31 -108 -72l-25 21l46 68c27 31 72 58 133 58h1c98 0 155 -57 155 -135c0 -26 -11 -48 -29 -65c-16 -14 -38 -29 -73 -50z" />
    <glyph glyph-name="four.fitted" unicode="&#xf63c;" horiz-adv-x="485" 
d="M460 175h-80v-73c0 -57 6 -66 73 -70v-32h-275v32c71 4 81 14 81 71v72h-237v34c98 153 203 302 293 420h65v-401h80v-53zM259 228v261h-2c-54 -80 -111 -166 -163 -261h165z" />
    <glyph glyph-name="five.fitted" unicode="&#xf63d;" horiz-adv-x="453" 
d="M132 518l-24 -153c44 17 91 32 117 32c121 0 190 -82 190 -171c0 -63 -30 -122 -97 -172c-53 -41 -119 -65 -174 -66c-40 0 -80 16 -99 33c-14 12 -20 22 -20 36c0 15 12 35 26 46c10 9 21 9 31 -1c21 -20 66 -58 124 -58c60 0 89 45 89 134c0 88 -54 147 -142 147
c-40 0 -77 -10 -98 -17l42 315h293l6 -10l-27 -95h-237z" />
    <glyph glyph-name="six.fitted" unicode="&#xf63e;" horiz-adv-x="497" 
d="M180 360l46 23c21 11 38 19 56 19c107 0 180 -78 180 -189c0 -124 -89 -225 -215 -225c-120 0 -210 96 -210 251c0 211 140 333 254 372c45 15 95 24 134 30l7 -35c-30 -6 -66 -19 -99 -36c-47 -25 -127 -80 -153 -210zM231 334c-23 0 -41 -4 -57 -11
c-5 -23 -6 -50 -6 -85c0 -133 47 -212 97 -212c54 0 69 65 69 147c0 92 -39 161 -103 161z" />
    <glyph glyph-name="seven.fitted" unicode="&#xf63f;" horiz-adv-x="462" 
d="M428 623l9 -11c-87 -203 -183 -411 -267 -612l-96 -12l-7 13c107 175 203 352 283 517h-201c-61 0 -68 -5 -93 -63h-32c13 75 19 125 24 168h380z" />
    <glyph glyph-name="eight.fitted" unicode="&#xf640;" horiz-adv-x="486" 
d="M252 635c104 0 173 -65 172 -152c0 -27 -9 -49 -28 -69c-11 -13 -35 -35 -75 -61c64 -36 128 -87 128 -175c0 -125 -117 -190 -209 -190c-115 0 -203 63 -203 170c0 47 23 72 39 88c17 18 62 47 89 64c-54 32 -104 80 -104 153c0 93 77 172 191 172zM238 597
c-44 0 -69 -42 -69 -87c0 -67 47 -101 120 -139c14 16 34 48 34 107c0 85 -49 119 -85 119zM251 26c56 0 86 41 84 110c-2 76 -59 114 -136 154c-28 -24 -50 -66 -50 -122c0 -97 55 -142 102 -142z" />
    <glyph glyph-name="nine.fitted" unicode="&#xf641;" horiz-adv-x="493" 
d="M252 635c136 0 204 -116 204 -252c0 -171 -94 -305 -231 -363c-38 -16 -115 -32 -162 -33l-5 33c140 28 233 133 257 256l-44 -25c-21 -12 -36 -17 -51 -17c-117 0 -184 83 -184 188c0 90 71 213 216 213zM232 596c-51 0 -68 -75 -68 -135c0 -86 41 -160 107 -160
c23 0 38 7 50 13c4 35 5 57 5 76c0 96 -23 206 -94 206z" />
    <glyph glyph-name="zero.slashfitted" unicode="&#xe201;" horiz-adv-x="496" 
d="M420 649l-36 -76c54 -63 74 -168 74 -261c0 -146 -49 -324 -210 -324c-43 0 -77 14 -104 34l-35 -69l-30 18l37 76c-56 63 -78 170 -78 266c0 153 58 322 213 322c43 0 78 -14 106 -36l30 66zM174 168l139 343c-12 50 -32 85 -66 85c-58 0 -82 -122 -82 -283
c0 -51 4 -104 9 -145zM324 446l-138 -341c12 -48 34 -78 64 -78c60 0 82 126 82 286c0 41 -3 96 -8 133z" />
    <glyph glyph-name="dollar.fitted" unicode="&#xe08d;" horiz-adv-x="476" 
d="M256 381l36 -15c72 -30 142 -79 142 -172c-1 -102 -69 -169 -178 -182v-83h-39v80c-79 1 -137 30 -157 42c-7 24 -17 91 -24 138l32 9c16 -45 58 -137 149 -148v213l-29 12c-84 37 -140 88 -140 166c0 87 60 158 169 173v75h39v-72c30 0 64 -5 88 -13c14 -4 23 -6 34 -8
c8 -36 14 -70 22 -128l-33 -9c-15 48 -42 106 -111 117v-195zM217 396v180c-52 -7 -76 -47 -76 -88c0 -46 33 -73 76 -92zM256 247v-196c43 7 77 36 77 94c0 28 -7 66 -64 96z" />
    <glyph glyph-name="cent.fitted" unicode="&#xe089;" horiz-adv-x="460" 
d="M403 227l19 -25c-34 -50 -83 -90 -136 -101v-97h-38v94c-132 5 -208 102 -208 202c0 71 35 137 96 183c34 26 73 42 112 50v82h38v-78c7 1 11 1 15 1c29 0 71 -8 93 -24c10 -8 14 -19 14 -27c0 -28 -25 -48 -38 -48c-4 0 -9 2 -18 12c-23 24 -43 37 -66 41v-312
c47 0 84 16 117 47zM248 187v306c-36 -4 -95 -43 -95 -146c0 -100 51 -145 95 -160z" />
    <glyph glyph-name="Euro.fitted" unicode="&#xe022;" horiz-adv-x="566" 
d="M496 149l31 -10c-10 -43 -26 -98 -41 -128c-22 -7 -78 -23 -132 -23c-167 0 -250 105 -267 261h-72l15 40h53c-2 17 1 45 3 61h-51l15 40h42c30 152 143 246 286 246c54 0 99 -14 122 -21c6 -48 10 -89 14 -128l-31 -8c-26 79 -64 117 -118 117c-70 0 -123 -82 -140 -206
h270l-15 -40h-259c-2 -18 -3 -46 -1 -61h238l-15 -40h-220c15 -146 66 -220 140 -220c50 0 89 35 133 120z" />
    <glyph glyph-name="florin.fitted" unicode="&#xe09e;" horiz-adv-x="475" 
d="M148 373l5 27c15 86 46 145 104 193c59 50 107 59 131 59c28 0 71 -21 70 -50c-1 -21 -27 -53 -44 -54c-19 0 -44 51 -77 51c-12 0 -19 -7 -25 -22c-8 -18 -17 -55 -35 -204h101v-45h-106l-22 -140c-31 -204 -98 -254 -150 -290c-35 -25 -71 -36 -94 -36
c-30 0 -63 19 -63 47s31 54 47 54c14 0 47 -43 72 -43c11 0 18 7 22 20c6 18 14 65 25 151l31 237h-81l1 45h88z" />
    <glyph glyph-name="sterling.fitted" unicode="&#xe0dc;" horiz-adv-x="502" 
d="M388 292h-142v-16c0 -64 -54 -121 -106 -150c36 1 71 -5 105 -19c46 -18 101 -43 134 -43c29 0 36 10 36 24c0 15 -3 29 -7 39c-3 7 -3 15 3 23c12 16 29 27 41 27c16 0 25 -20 25 -41c0 -48 -45 -99 -81 -126c-32 -25 -65 -37 -97 -37c-46 0 -100 36 -141 59
c-31 16 -48 22 -66 22c-14 0 -28 -16 -33 -40c-3 -11 -7 -17 -15 -17c-15 0 -32 15 -23 46c7 28 42 62 61 90c26 36 36 77 36 114c0 16 -1 31 -3 45h-89v45h82c-5 36 -7 59 -7 84c0 51 24 120 91 170c33 25 73 42 111 44c47 0 81 -22 95 -37c11 -12 13 -28 4 -45
c-8 -12 -17 -22 -25 -27c-10 -6 -19 -6 -31 2c-29 22 -63 48 -97 48c-28 0 -38 -18 -38 -61c0 -47 17 -110 30 -178h147v-45z" />
    <glyph glyph-name="yen.fitted" unicode="&#xe100;" horiz-adv-x="466" 
d="M463 623v-34c-43 -5 -51 -14 -78 -66c-22 -42 -45 -96 -88 -196h119v-42h-125v-29v-40h126v-42h-126v-52c0 -71 7 -84 82 -88v-34h-281v34c71 4 77 17 77 89v51h-127v42h127v28v41h-126v42h117c-19 47 -42 105 -81 194c-24 51 -33 63 -73 68v34h229v-34l-23 -5
c-22 -4 -26 -11 -19 -34c29 -78 56 -147 75 -196c26 61 56 141 70 183c11 35 8 45 -18 48l-24 4v34h167z" />
    <glyph glyph-name="colonmonetary.fitted" unicode="&#xe08a;" horiz-adv-x="563" 
d="M496 159l27 -10c-10 -41 -30 -103 -43 -124c-21 -7 -81 -24 -129 -25l-11 -69h-36l12 71c-24 2 -41 5 -60 10l-13 -80h-36l15 89c-134 40 -186 163 -186 282c0 173 105 298 277 317l10 63h36l-10 -60h9c13 0 31 -1 52 -4l10 64h35l-10 -71c18 -4 35 -9 55 -13
c7 -44 12 -84 15 -117l-29 -7c-11 36 -26 69 -50 85l-80 -522c63 6 97 46 140 121zM322 41l81 536c-19 7 -40 10 -60 9l-80 -526c16 -11 36 -16 59 -19zM231 85l76 498c-93 -23 -138 -140 -138 -275c0 -102 24 -183 62 -223z" />
    <glyph glyph-name="franc.fitted" unicode="&#xe0a0;" horiz-adv-x="481" 
d="M447 485l-32 -5c-10 34 -18 56 -33 76c-16 21 -38 28 -76 28h-37c-30 0 -35 -4 -35 -34v-194c113 1 140 3 181 11v-69c-42 8 -68 11 -181 12v-109h134v-39h-134v-41c0 -76 7 -84 80 -90v-31h-276v31c62 6 71 15 71 90v41h-80v39h80v300c0 76 -9 85 -71 91v31h399
c1 -16 5 -83 10 -138z" />
    <glyph glyph-name="lira.fitted" unicode="&#xe0a6;" horiz-adv-x="503" 
d="M390 238h-139c-14 -44 -55 -87 -102 -113c40 1 74 -5 105 -18c46 -21 90 -41 124 -41c28 0 37 10 37 24c0 15 -2 27 -6 38c-4 7 -2 17 3 24c12 16 30 25 41 25c15 0 25 -18 25 -41c0 -47 -46 -100 -80 -126c-33 -25 -65 -37 -98 -37c-41 0 -92 34 -136 59
c-30 16 -44 19 -61 19c-14 0 -26 -13 -31 -40c-2 -11 -7 -16 -14 -16c-16 0 -34 16 -26 47c8 27 41 63 61 90c25 35 33 71 35 106h-89v41h88c-3 22 -7 38 -10 62h-78v41h74c-1 9 -2 21 -2 33c0 56 25 126 92 175c34 25 69 42 106 45c44 0 77 -22 91 -37c11 -12 13 -29 4 -45
c-8 -13 -17 -21 -25 -27s-20 -6 -31 2c-30 23 -60 49 -90 49c-28 0 -37 -21 -37 -64c0 -38 11 -91 20 -131h150v-41h-143c6 -24 8 -41 9 -62h134z" />
    <glyph glyph-name="numbersign.fitted" unicode="&#xe0b3;" horiz-adv-x="464" 
d="M438 468l-10 -79h-87l-27 -122h78l-12 -79h-84l-35 -163h-49l37 163h-89l-35 -163h-49l36 163h-88l9 79h97l26 122h-83l9 79h91l31 140h49l-32 -140h89l31 140h48l-31 -140h80zM293 389h-89l-26 -122h88z" />
    <glyph glyph-name="zero.taboldstyle" unicode="&#xf643;" horiz-adv-x="490" 
d="M246 458c121 0 207 -99 207 -234c0 -140 -88 -236 -208 -236c-130 0 -208 109 -208 235c0 129 82 235 209 235zM244 407c-52 0 -92 -68 -92 -184c0 -119 42 -184 95 -184c51 0 91 69 91 184c0 108 -38 184 -94 184z" />
    <glyph glyph-name="one.taboldstyle" unicode="&#xf644;" horiz-adv-x="490" 
d="M413 0h-320v32l52 5c43 5 47 21 47 72v212c0 44 -4 52 -38 54l-49 3v30c67 8 130 25 209 50v-349c0 -51 5 -67 46 -71l53 -6v-32z" />
    <glyph glyph-name="two.taboldstyle" unicode="&#xf645;" horiz-adv-x="490" 
d="M453 136l-33 -136h-363v26c77 53 214 142 214 255c0 54 -27 93 -82 93c-46 0 -79 -34 -109 -73l-25 22l54 76c30 34 72 59 130 59c95 0 157 -62 157 -145c0 -64 -33 -114 -129 -180c-17 -13 -36 -26 -54 -38v-2h121c50 0 62 2 87 52z" />
    <glyph glyph-name="three.taboldstyle" unicode="&#xf646;" horiz-adv-x="490" 
d="M276 214v-2c86 -15 135 -77 135 -145c0 -163 -198 -231 -251 -231c-40 0 -77 15 -94 30c-14 11 -20 24 -15 43c4 15 14 28 27 37c11 8 23 7 33 -3c19 -18 59 -50 101 -50c44 0 77 34 77 113c0 97 -59 135 -107 135c-17 0 -34 -3 -49 -7l-7 31c76 32 132 62 133 135
c1 52 -33 83 -74 83c-38 0 -69 -26 -95 -61l-23 22l41 57c25 31 67 57 122 57h1c90 0 141 -52 141 -130c0 -25 -11 -47 -29 -64c-14 -14 -37 -31 -67 -50z" />
    <glyph glyph-name="four.taboldstyle" unicode="&#xf647;" horiz-adv-x="490" 
d="M466 85l-9 -63h-73v-176h-119v176h-228v42c82 128 193 282 283 394h64v-373h82zM265 85v237h-2c-51 -72 -99 -148 -153 -237h155z" />
    <glyph glyph-name="five.taboldstyle" unicode="&#xf648;" horiz-adv-x="490" 
d="M158 336l-13 -76c116 -6 255 -49 255 -193c0 -66 -32 -119 -97 -163c-63 -42 -160 -67 -233 -67l-4 36c81 13 217 55 217 166c0 90 -92 115 -196 118l38 274l274 27l-14 -100z" />
    <glyph glyph-name="six.taboldstyle" unicode="&#xf649;" horiz-adv-x="490" 
d="M433 608l6 -37c-35 -8 -73 -21 -101 -38c-38 -22 -119 -72 -155 -187l42 23c20 11 37 18 56 18c102 0 171 -73 171 -185c0 -119 -84 -214 -208 -214c-119 0 -203 96 -203 239c0 206 150 318 261 353c55 18 96 23 131 28zM227 320c-19 0 -32 -5 -49 -13
c-4 -22 -6 -41 -6 -75c0 -129 43 -203 90 -203c53 0 66 66 66 133c0 93 -37 158 -101 158z" />
    <glyph glyph-name="seven.taboldstyle" unicode="&#xf64a;" horiz-adv-x="490" 
d="M438 447l9 -13c-49 -100 -195 -394 -286 -581l-97 -17l-7 15c124 180 223 351 300 492h-300v104h381z" />
    <glyph glyph-name="eight.taboldstyle" unicode="&#xf64b;" horiz-adv-x="490" 
d="M251 609c101 0 168 -64 168 -146c0 -25 -9 -47 -26 -66c-9 -10 -31 -28 -73 -57c64 -37 123 -82 123 -172c0 -118 -111 -180 -203 -180c-112 0 -194 59 -194 161c0 40 22 70 38 86c19 19 58 42 84 58c-57 33 -102 80 -102 148c0 90 77 168 185 168zM240 571
c-41 0 -69 -39 -69 -85c0 -57 45 -93 117 -128c14 15 33 49 33 99c0 83 -47 114 -81 114zM251 26c52 0 82 39 81 97c-2 78 -58 113 -135 153c-25 -27 -45 -68 -45 -120c0 -88 51 -130 99 -130z" />
    <glyph glyph-name="nine.taboldstyle" unicode="&#xf64c;" horiz-adv-x="490" 
d="M250 458c131 0 201 -110 201 -242c0 -193 -126 -304 -260 -350c-40 -13 -121 -28 -164 -29l-5 32c136 30 254 120 285 231l-36 -17c-21 -10 -38 -16 -51 -16c-115 0 -184 78 -184 179c0 94 74 212 214 212zM230 419c-48 0 -67 -66 -67 -130c0 -94 47 -159 111 -159
c16 0 28 3 38 8c6 24 8 50 8 89c0 90 -23 192 -90 192z" />
    <glyph glyph-name="dollar.taboldstyle" unicode="&#xf653;" horiz-adv-x="490" 
d="M266 285l20 -6c94 -27 151 -65 151 -143c0 -83 -69 -136 -171 -146v-80h-38v79c-70 1 -131 25 -149 37c-7 18 -19 65 -28 126l35 8c19 -50 64 -124 142 -133v150l-27 8c-86 25 -137 63 -137 133c0 76 58 135 164 144v68h38v-66c36 0 78 -8 118 -24c8 -29 15 -61 22 -113
l-34 -9c-14 50 -45 97 -106 107v-140zM228 295v129c-53 -4 -76 -34 -76 -63c0 -33 26 -53 76 -66zM266 166v-138c38 4 74 26 74 66c0 31 -19 55 -74 72z" />
    <glyph glyph-name="cent.taboldstyle" unicode="&#xf654;" horiz-adv-x="490" 
d="M423 142l20 -27c-33 -50 -81 -88 -135 -98v-97h-38v94c-136 5 -211 102 -211 202c0 72 35 139 95 184c35 26 80 44 116 51v82h38v-78c6 1 12 1 16 1c28 0 67 -8 88 -23c12 -9 17 -20 17 -32c0 -31 -26 -52 -38 -52c-5 0 -8 0 -17 9c-25 29 -45 45 -66 49v-314
c47 1 86 22 115 49zM270 100v311c-35 -2 -97 -40 -97 -146c0 -102 48 -152 97 -165z" />
    <glyph glyph-name="Euro.taboldstyle" unicode="&#xf64e;" horiz-adv-x="490" 
d="M434 131l30 -10c-10 -41 -24 -88 -37 -113c-20 -6 -66 -20 -112 -20c-155 0 -222 93 -239 214h-59l15 39h41c-1 17 0 38 3 58h-43l16 38h33c28 125 119 204 254 204c49 0 85 -13 105 -18c7 -40 11 -76 14 -114l-31 -8c-21 64 -45 103 -95 103c-62 0 -99 -62 -114 -167
h222l-15 -38h-212c-1 -16 -2 -43 0 -58h200l-16 -39h-181c12 -109 50 -176 114 -176c44 0 68 30 107 105z" />
    <glyph glyph-name="florin.taboldstyle" unicode="&#xf64f;" horiz-adv-x="490" 
d="M169 307l5 25c17 81 50 131 99 172c54 45 100 55 126 55s60 -16 59 -44c-1 -24 -24 -54 -45 -54c-18 0 -37 50 -63 50c-10 0 -17 -7 -22 -22c-6 -18 -15 -60 -32 -182h91v-44h-98l-19 -105c-35 -189 -98 -238 -150 -272c-28 -18 -59 -28 -81 -28c-28 0 -54 18 -53 44
c1 27 27 51 40 51c18 0 41 -40 63 -40c10 0 17 9 20 21c4 15 9 44 22 128l31 201h-71v44h78z" />
    <glyph glyph-name="sterling.taboldstyle" unicode="&#xf651;" horiz-adv-x="490" 
d="M366 243h-123v-11c-2 -47 -42 -95 -102 -127c39 4 71 2 110 -14c34 -15 82 -38 113 -38c21 0 32 10 32 27c0 10 -3 23 -7 32c-3 7 -1 17 4 24c12 13 29 25 42 25c16 0 25 -20 25 -38c0 -46 -47 -96 -83 -122c-30 -21 -61 -34 -89 -34c-41 0 -90 29 -133 54
c-27 14 -38 21 -54 21c-15 0 -27 -15 -30 -34c-3 -11 -11 -16 -20 -16c-15 0 -33 16 -25 42c8 24 37 55 54 76c26 35 34 66 34 93c0 17 -2 31 -2 40h-81v42h74c-4 25 -5 42 -5 58c0 55 35 119 92 159c31 20 71 36 103 37c43 0 74 -14 93 -33c12 -13 11 -30 3 -45
c-6 -10 -16 -20 -23 -26c-10 -7 -22 -9 -33 1c-32 26 -62 51 -89 51c-24 0 -34 -17 -34 -47c0 -41 19 -103 27 -155h127v-42z" />
    <glyph glyph-name="yen.taboldstyle" unicode="&#xf652;" horiz-adv-x="490" 
d="M468 533v-31c-39 -5 -49 -15 -76 -56c-21 -34 -48 -82 -84 -150h104v-39h-110v-23v-40h111v-39h-111v-50c0 -57 8 -70 70 -73v-32h-260v32c62 3 68 17 68 74v49h-110v39h110v30v33h-110v39h99c-16 36 -39 88 -71 152c-22 42 -33 48 -70 54v31h224v-31l-19 -5
c-18 -4 -23 -13 -16 -29c20 -51 44 -107 62 -147c28 53 49 98 67 140c11 23 5 32 -19 37l-19 4v31h160z" />
    <glyph glyph-name="colonmonetary.taboldstyle" unicode="&#xf64d;" horiz-adv-x="490" 
d="M421 136l28 -11c-9 -38 -27 -91 -37 -115c-19 -6 -65 -19 -105 -20l-9 -60h-30l9 62c-19 2 -31 4 -43 8l-12 -70h-30l13 78c-117 42 -157 146 -157 252c0 164 102 266 235 276l9 58h29l-7 -56h5c12 0 25 -2 39 -4l9 60h30l-10 -65c14 -4 33 -9 48 -12
c5 -42 9 -78 12 -114l-29 -6c-10 31 -18 65 -38 82l-68 -450c54 5 76 41 109 107zM282 30l70 464c-13 5 -27 7 -42 7l-70 -454c12 -10 24 -13 42 -17zM214 72l64 426c-69 -17 -103 -127 -103 -237c0 -93 15 -156 39 -189z" />
    <glyph glyph-name="franc.taboldstyle" unicode="&#xe0a2;" horiz-adv-x="490" 
d="M445 406l-31 -4c-9 27 -16 47 -29 63c-13 18 -30 24 -77 24h-29c-25 0 -30 -4 -30 -29v-153c99 0 125 2 163 9v-64c-38 6 -63 9 -163 10v-83h111v-41h-111v-32c0 -63 7 -69 72 -74v-32h-260v32c55 6 64 11 64 74v32h-68v41h68v241c0 66 -8 73 -64 78v31h375
c1 -13 5 -70 9 -123z" />
    <glyph glyph-name="lira.taboldstyle" unicode="&#xe0a8;" horiz-adv-x="490" 
d="M370 196h-134c-11 -25 -37 -63 -87 -90c35 4 63 2 105 -15c35 -14 80 -38 111 -38c20 0 32 11 32 27c0 11 -4 25 -8 34c-3 6 -1 16 4 23c12 14 30 25 42 25c17 0 26 -20 26 -38c0 -45 -45 -95 -82 -121c-30 -21 -59 -35 -87 -35c-41 0 -89 29 -130 52
c-28 16 -41 23 -58 23c-15 0 -26 -15 -30 -35c-3 -11 -11 -16 -20 -16c-15 0 -32 17 -24 43c8 24 37 55 55 76c20 25 32 63 32 85h-83v39h81c-1 18 -3 28 -5 54h-77v39h74c0 7 -1 15 -1 23c0 53 33 113 95 154c29 20 68 35 100 36c42 0 73 -15 91 -32c13 -14 12 -30 4 -45
c-6 -11 -16 -22 -24 -28c-10 -7 -22 -9 -33 0c-32 27 -62 51 -89 51c-25 0 -33 -18 -33 -49s12 -82 17 -110h138v-39h-131c2 -17 4 -34 3 -54h126v-39z" />
    <glyph glyph-name="numbersign.taboldstyle" unicode="&#xf650;" horiz-adv-x="490" 
d="M448 374l-10 -80h-84l-26 -121h73l-11 -80h-80l-36 -163h-48l36 163h-89l-35 -163h-49l36 163h-84l9 80h93l26 121h-79l9 80h87l31 140h49l-32 -140h89l31 140h48l-31 -140h77zM306 294h-89l-26 -121h89z" />
    <glyph glyph-name="a.superior" horiz-adv-x="322" 
d="M307 306l-70 -35c-32 0 -47 21 -54 36c-19 -14 -53 -36 -70 -36c-52 0 -85 40 -85 79c0 30 16 47 50 62c25 11 83 29 103 43v18c0 28 -17 48 -37 48s-33 -23 -42 -57c-4 -13 -12 -17 -26 -17c-20 0 -44 15 -44 32c0 11 7 21 21 31c18 12 62 38 111 46c52 0 96 -28 96 -90
v-105c0 -29 11 -36 21 -36c7 0 13 1 20 4zM181 333v93c-11 -5 -28 -13 -41 -20c-16 -9 -25 -21 -25 -38c0 -30 22 -45 39 -45c11 0 21 5 27 10z" />
    <glyph glyph-name="b.superior" unicode="&#xf6ea;" horiz-adv-x="362" 
d="M144 536l20 8c20 9 33 13 46 13c73 0 125 -61 125 -129c0 -90 -77 -158 -167 -158c-39 0 -68 7 -110 25v326c1 34 -1 36 -40 40v25c32 4 82 12 126 22v-172zM144 507v-155c0 -9 0 -17 4 -26c3 -7 15 -21 36 -23c25 0 60 32 60 106c0 76 -42 103 -75 103
c-11 0 -17 -1 -25 -5z" />
    <glyph glyph-name="d.superior" unicode="&#xf6eb;" horiz-adv-x="368" 
d="M352 320v-26c-22 -2 -83 -10 -130 -25v33l-36 -21c-9 -6 -20 -10 -28 -10c-56 0 -131 44 -131 133c0 85 71 152 169 152c6 0 15 -2 26 -4v68c0 37 -2 38 -43 42v24c31 4 84 13 128 22v-356c0 -26 4 -29 20 -30zM222 331v158c-11 27 -27 35 -42 35c-17 0 -58 -16 -58 -104
c0 -71 40 -100 66 -100c12 0 22 4 34 11z" />
    <glyph glyph-name="e.superior" unicode="&#xf6ec;" horiz-adv-x="301" 
d="M175 556c55 0 103 -47 103 -103c0 -17 -3 -21 -15 -24c-8 -2 -94 -8 -153 -10c0 -53 39 -88 86 -88c22 0 43 7 68 26l13 -19c-41 -56 -92 -68 -114 -68c-86 0 -135 59 -136 133c-1 77 60 153 148 153zM113 451l74 2c9 0 13 3 13 16c0 24 -19 57 -40 57h-1
c-20 0 -44 -24 -46 -75z" />
    <glyph glyph-name="egrave.superior" unicode="&#xe090;" horiz-adv-x="301" 
d="M188 585l-26 -7c-36 43 -77 86 -89 99l3 6c8 5 62 13 74 11c13 -36 26 -72 38 -109zM175 556c55 0 103 -47 103 -103c0 -17 -3 -21 -15 -24c-8 -2 -94 -8 -153 -10c0 -53 39 -88 86 -88c22 0 43 7 68 26l13 -19c-41 -56 -92 -68 -114 -68c-86 0 -135 59 -136 133
c-1 77 60 153 148 153zM113 451l74 2c9 0 13 3 13 16c0 24 -19 57 -40 57h-1c-20 0 -44 -24 -46 -75z" />
    <glyph glyph-name="g.superior" unicode="&#xe0a3;" horiz-adv-x="321" 
d="M316 546l4 -5c-4 -11 -15 -31 -24 -38l-36 2c10 -13 16 -26 16 -46c0 -65 -60 -97 -123 -97c-6 0 -14 1 -28 2c-6 -4 -11 -10 -11 -17c0 -10 10 -19 37 -19c22 0 42 1 62 1c54 0 100 -29 100 -81c0 -65 -81 -123 -175 -123c-82 0 -125 41 -125 74c0 12 5 24 18 33
c15 11 38 23 52 31c-24 10 -41 27 -49 38c-6 9 -9 21 -8 30c35 13 58 29 70 40c-38 12 -68 44 -68 83c0 67 68 102 127 102c30 0 53 -5 76 -17c30 1 60 5 85 7zM150 530c-18 0 -32 -22 -32 -66c0 -45 15 -75 40 -74c22 0 34 21 34 65c0 26 -5 75 -42 75zM155 258
c-32 0 -43 -3 -51 -12c-8 -8 -14 -18 -14 -29c0 -31 35 -55 80 -55c49 0 74 22 74 53c0 21 -15 32 -33 37c-17 5 -33 6 -56 6z" />
    <glyph glyph-name="h.superior" unicode="&#xf637;" horiz-adv-x="382" 
d="M357 278h-155v25c31 5 33 10 33 45v102c0 38 -21 52 -44 52c-17 0 -32 -8 -44 -18v-136c0 -35 4 -40 29 -45v-25h-155v25c37 4 40 9 40 45v269c0 39 -2 41 -40 45v25c29 3 81 12 126 22v-194l31 21c22 15 36 21 57 21c54 0 86 -36 86 -91v-118c0 -35 2 -40 36 -45v-25z
" />
    <glyph glyph-name="i.superior" unicode="&#xf6ed;" horiz-adv-x="209" 
d="M103 704c27 0 49 -24 49 -53c0 -28 -22 -52 -50 -52s-51 24 -51 52c0 29 23 53 52 53zM185 278h-159v27c35 4 38 10 38 46v118c0 35 -2 39 -38 43v24c36 4 79 12 119 21h5v-206c0 -36 4 -41 35 -46v-27z" />
    <glyph glyph-name="l.superior" unicode="&#xf6ee;" horiz-adv-x="208" 
d="M187 278h-166v27c37 5 40 10 40 46v269c0 38 -2 41 -40 45v25c29 3 81 12 126 22v-361c0 -36 2 -41 40 -46v-27z" />
    <glyph glyph-name="m.superior" unicode="&#xf6ef;" horiz-adv-x="558" 
d="M533 278h-155v26c30 5 32 9 32 46v100c0 38 -18 53 -42 53c-14 0 -30 -4 -46 -19c1 -7 1 -12 1 -17v-117c0 -37 4 -42 29 -46v-26h-148v26c31 4 33 9 33 46v101c0 38 -20 52 -43 52c-17 0 -31 -7 -44 -18v-135c0 -37 4 -42 28 -46v-26h-157v26c40 4 43 9 43 46v118
c0 36 -2 39 -40 45v23c38 4 83 12 122 21h4v-43l31 22c22 15 36 21 59 21c35 0 63 -16 75 -46l40 27c19 14 34 19 55 19c54 0 86 -35 86 -89v-118c0 -37 2 -42 37 -46v-26z" />
    <glyph glyph-name="n.superior" unicode="&#x207f;" horiz-adv-x="384" 
d="M359 278h-155v26c31 4 33 9 33 45v102c0 38 -20 52 -43 52c-17 0 -31 -8 -44 -19v-135c0 -36 4 -41 28 -45v-26h-157v26c40 4 43 9 43 45v118c0 36 -1 38 -37 46v23c37 4 82 13 118 21h5v-43l31 22c22 15 35 21 56 21c54 0 86 -35 86 -89v-119c0 -36 2 -41 36 -45v-26z
" />
    <glyph glyph-name="o.superior" horiz-adv-x="344" 
d="M176 556c88 0 143 -65 142 -142c-2 -95 -71 -144 -148 -144c-94 0 -147 68 -145 139c2 96 81 147 151 147zM166 523c-21 0 -46 -28 -47 -100c-1 -70 24 -120 58 -120c19 0 45 20 47 94c2 80 -22 126 -58 126z" />
    <glyph glyph-name="r.superior" unicode="&#xf6f1;" horiz-adv-x="275" 
d="M145 499h2c7 13 15 24 26 37c12 12 27 21 44 21c23 0 44 -18 44 -45c0 -26 -16 -43 -31 -48c-10 -4 -16 -2 -20 2c-11 10 -22 16 -34 16c-11 0 -24 -7 -31 -27v-107c0 -35 4 -40 52 -44v-26h-178v25c39 5 42 10 42 45v119c0 39 1 37 -39 45v24c37 3 78 11 121 21h2v-58z
" />
    <glyph glyph-name="s.superior" unicode="&#xf6f2;" horiz-adv-x="278" 
d="M238 472l-26 -7c-23 43 -44 61 -68 61c-21 0 -34 -12 -34 -30c0 -17 19 -30 49 -40c48 -17 93 -38 93 -91c0 -66 -67 -94 -124 -94c-36 0 -78 15 -90 26c-5 17 -10 60 -10 80l25 5c14 -36 46 -80 84 -80c17 0 34 11 34 30c0 21 -19 33 -51 46c-33 13 -83 36 -83 87
c0 49 40 90 116 91c28 0 52 -6 68 -13c8 -15 16 -62 17 -71z" />
    <glyph glyph-name="t.superior" unicode="&#xf6f3;" horiz-adv-x="235" 
d="M219 305l-56 -27c-11 -4 -22 -7 -31 -7c-38 0 -70 21 -70 78v163h-37l-5 9l20 28h22v40l75 50l10 -5v-85h60c8 -6 6 -33 -6 -37h-54v-134c0 -47 19 -55 33 -55c10 0 22 3 32 8z" />
    <glyph glyph-name="zero.superior" unicode="&#x2070;" horiz-adv-x="324" 
d="M163 748c101 0 138 -96 138 -182c0 -89 -37 -183 -139 -183c-103 0 -139 93 -139 183c0 86 36 182 140 182zM162 715c-37 0 -45 -97 -45 -149s8 -150 46 -150c36 0 44 98 44 150s-8 149 -45 149z" />
    <glyph glyph-name="one.superior" horiz-adv-x="324" 
d="M265 390h-200v28c44 4 54 12 54 61v165c0 36 -1 41 -29 44l-24 3v26c43 5 96 16 146 31v-269c0 -49 10 -57 53 -61v-28z" />
    <glyph glyph-name="two.superior" horiz-adv-x="324" 
d="M273 496l25 -7c-11 -35 -16 -67 -23 -98h-246v23c53 45 149 126 149 202c0 44 -21 67 -56 67c-29 0 -52 -19 -72 -46l-21 19l33 46c23 28 59 46 97 46c64 0 115 -40 115 -108c0 -49 -32 -86 -104 -145l-42 -35v-1h88c33 0 40 4 57 37z" />
    <glyph glyph-name="three.superior" horiz-adv-x="324" 
d="M198 601v-2c53 -9 89 -36 89 -84c0 -87 -123 -132 -175 -132c-28 0 -57 11 -68 20c-7 7 -11 18 -7 30s14 22 24 28c5 4 14 4 21 -1c16 -13 43 -36 70 -36c20 0 43 16 43 63c0 51 -32 72 -67 72c-14 0 -27 -3 -36 -6l-5 29c56 19 83 42 83 71c0 24 -18 38 -42 38
c-28 0 -50 -21 -66 -39l-18 18l32 42c17 18 49 36 86 36h1c63 0 101 -37 101 -78c0 -17 -9 -32 -19 -41c-9 -8 -22 -16 -47 -28z" />
    <glyph glyph-name="four.superior" unicode="&#x2074;" horiz-adv-x="324" 
d="M305 486h-52v-20c0 -36 9 -45 48 -49v-27h-194v27c50 4 59 12 59 49v20h-147v26c59 83 117 165 179 236h55v-220h52v-42zM166 528v130h-2c-29 -42 -56 -80 -88 -130h90z" />
    <glyph glyph-name="five.superior" unicode="&#x2075;" horiz-adv-x="324" 
d="M112 671l-13 -71c23 7 52 15 69 15c79 0 118 -47 118 -95c0 -36 -20 -69 -60 -96c-33 -22 -79 -40 -115 -41c-24 0 -50 11 -61 19c-10 8 -14 19 -9 31c4 11 12 21 20 27c6 4 15 5 24 -2c12 -10 42 -33 67 -32c26 0 43 19 43 56c0 51 -33 82 -82 82c-19 0 -41 -5 -58 -10
l26 187h192l-15 -70h-146z" />
    <glyph glyph-name="six.superior" unicode="&#x2076;" horiz-adv-x="324" 
d="M125 595l25 12c13 6 24 11 36 11c68 0 111 -45 111 -107c0 -71 -56 -128 -135 -128c-75 0 -135 53 -135 141c0 119 85 185 150 207c35 12 63 16 98 20l5 -31c-19 -3 -40 -9 -63 -20c-29 -13 -76 -43 -92 -105zM152 571c-9 0 -22 -2 -32 -7c-2 -13 -3 -21 -3 -39
c0 -70 28 -109 54 -109c29 0 39 34 39 72c0 47 -23 83 -58 83z" />
    <glyph glyph-name="seven.superior" unicode="&#x2077;" horiz-adv-x="324" 
d="M287 741l6 -9c-56 -113 -112 -227 -164 -342l-62 -7l-5 10c59 94 115 187 164 279h-110c-40 0 -43 -3 -57 -37h-27c8 54 12 82 15 106h240z" />
    <glyph glyph-name="eight.superior" unicode="&#x2078;" horiz-adv-x="324" 
d="M167 748c67 0 111 -39 111 -86c0 -14 -6 -30 -16 -42c-10 -9 -21 -18 -43 -31c36 -18 75 -46 75 -95c0 -73 -73 -110 -137 -110c-69 0 -128 34 -128 96c0 23 10 38 25 51c12 12 32 22 46 29c-30 19 -58 45 -58 87c0 54 49 101 125 101zM159 717c-25 0 -41 -21 -41 -44
c0 -28 29 -48 74 -69c8 7 20 31 20 52c0 40 -28 61 -53 61zM166 416c30 0 49 23 49 49c-1 36 -34 54 -88 80c-11 -9 -25 -32 -25 -59c0 -42 30 -70 64 -70z" />
    <glyph glyph-name="nine.superior" unicode="&#x2079;" horiz-adv-x="324" 
d="M164 748c86 0 130 -68 130 -149c0 -95 -54 -166 -139 -199c-28 -11 -75 -20 -108 -21l-4 28c85 19 144 73 157 131l-26 -12c-14 -7 -23 -10 -32 -10c-72 0 -112 49 -112 106c0 56 45 126 134 126zM153 716c-23 0 -39 -30 -39 -71c0 -51 28 -82 62 -82c11 0 20 2 27 6
c2 21 3 31 3 43c0 47 -15 104 -53 104z" />
    <glyph glyph-name="period.superior" unicode="&#xf6e8;" horiz-adv-x="187" 
d="M91 374c-30 0 -60 25 -60 65c0 37 27 64 61 64c38 0 63 -30 63 -64c0 -38 -25 -65 -64 -65z" />
    <glyph glyph-name="comma.superior" unicode="&#xf6e2;" horiz-adv-x="187" 
d="M75 525c36 0 89 -33 89 -103c0 -73 -67 -115 -128 -131l-13 32c42 18 64 42 64 74c0 27 -20 49 -52 56c-5 1 -12 11 -12 32c0 23 24 40 52 40z" />
    <glyph glyph-name="dollar.superior" unicode="&#xf6e4;" horiz-adv-x="324" 
d="M178 610l14 -5c65 -20 107 -47 107 -108c-1 -65 -54 -102 -121 -111v-57h-29v55c-50 2 -93 21 -106 31c-5 13 -13 46 -18 91l26 8c11 -39 47 -89 98 -97v113l-15 5c-63 21 -101 51 -101 104c0 55 42 99 116 107v50h29v-49c25 0 55 -6 83 -20c6 -21 11 -46 15 -80l-28 -5
c-11 32 -30 66 -70 72v-104zM149 619v95c-32 -2 -51 -20 -51 -45c0 -29 22 -41 51 -50zM178 521v-104c28 3 50 19 50 50c0 22 -8 37 -50 54z" />
    <glyph glyph-name="cent.superior" unicode="&#xf6e0;" horiz-adv-x="324" 
d="M279 506l15 -22c-25 -35 -60 -56 -92 -62v-61h-29v58c-99 6 -146 72 -146 140c0 50 24 92 60 119c26 21 56 35 86 39v48h29v-47c3 1 6 1 8 1c22 0 47 -6 61 -15c10 -6 13 -15 13 -23c0 -20 -19 -32 -26 -32c-5 0 -9 2 -14 7c-13 12 -26 23 -42 27v-208c29 0 56 13 77 31z
M173 479v206c-23 -1 -64 -28 -64 -103c0 -66 34 -95 64 -103z" />
    <glyph glyph-name="hyphen.superior" unicode="&#xf6e6;" horiz-adv-x="259" 
d="M223 525h-188v58h188v-58z" />
    <glyph glyph-name="parenleft.superior" unicode="&#x207d;" horiz-adv-x="237" 
d="M201 293l-18 -21c-100 60 -148 166 -148 275v1c0 108 48 214 148 274l19 -21c-37 -39 -84 -136 -84 -254c0 -117 47 -214 83 -254z" />
    <glyph glyph-name="parenright.superior" unicode="&#x207e;" horiz-adv-x="237" 
d="M202 546c0 -108 -47 -214 -148 -274l-18 21c36 39 83 137 83 254c0 118 -48 214 -83 254l18 21c101 -60 148 -166 148 -276z" />
    <glyph glyph-name="zero.inferior" unicode="&#x2080;" horiz-adv-x="324" 
d="M163 260c101 0 138 -96 138 -182c0 -90 -37 -184 -139 -184c-103 0 -139 93 -139 184c0 86 36 182 140 182zM162 227c-37 0 -45 -97 -45 -149s8 -151 46 -151c36 0 44 99 44 151s-8 149 -45 149z" />
    <glyph glyph-name="one.inferior" unicode="&#x2081;" horiz-adv-x="324" 
d="M265 -98h-200v28c44 4 54 12 54 61v165c0 36 -1 41 -29 44l-24 3v26c43 5 96 16 146 31v-269c0 -49 10 -57 53 -61v-28z" />
    <glyph glyph-name="two.inferior" unicode="&#x2082;" horiz-adv-x="324" 
d="M273 8l25 -7c-11 -36 -16 -68 -23 -99h-246v23c53 46 149 126 149 202c0 45 -21 68 -56 68c-29 0 -52 -19 -72 -46l-21 19l33 46c23 28 59 46 97 46c64 0 115 -40 115 -108c0 -49 -32 -86 -104 -146l-42 -35v-1h88c33 0 40 4 57 38z" />
    <glyph glyph-name="three.inferior" unicode="&#x2083;" horiz-adv-x="324" 
d="M198 111c53 -9 89 -36 89 -85c0 -87 -123 -132 -175 -132c-28 0 -57 11 -69 20c-6 7 -11 18 -6 31c4 12 14 22 23 28c6 4 15 4 22 -1c16 -14 43 -37 69 -37c21 0 44 16 44 64c0 51 -33 72 -68 72c-13 0 -26 -3 -35 -6l-6 29c57 18 84 41 84 70c0 24 -18 38 -42 38
c-28 0 -50 -20 -66 -39l-19 19l33 41c16 18 48 36 86 36h1c63 0 101 -37 101 -78c0 -17 -9 -32 -19 -41c-9 -7 -22 -16 -47 -29z" />
    <glyph glyph-name="four.inferior" unicode="&#x2084;" horiz-adv-x="324" 
d="M305 -2h-52v-20c0 -36 9 -45 48 -49v-27h-194v27c50 4 59 12 59 49v20h-147v26c59 83 117 165 179 236h55v-220h52v-42zM166 40v130h-2c-29 -42 -56 -80 -88 -130h90z" />
    <glyph glyph-name="five.inferior" unicode="&#x2085;" horiz-adv-x="324" 
d="M112 183l-13 -71c23 7 52 15 69 15c79 0 118 -47 118 -94c0 -36 -20 -70 -60 -97c-33 -22 -79 -40 -115 -41c-24 0 -50 11 -61 19c-10 8 -14 19 -9 31c4 11 12 22 20 27c6 5 15 5 24 -2c12 -10 42 -33 67 -32c26 0 43 20 43 57c0 50 -33 81 -82 81c-19 0 -41 -5 -58 -10
l26 187h192l-15 -70h-146z" />
    <glyph glyph-name="six.inferior" unicode="&#x2086;" horiz-adv-x="324" 
d="M125 107l25 12c13 6 24 11 36 11c68 0 111 -45 111 -107c0 -71 -56 -128 -135 -128c-75 0 -135 53 -135 141c0 119 85 185 150 207c35 12 63 16 98 20l5 -31c-19 -3 -40 -9 -63 -20c-29 -13 -76 -43 -92 -105zM152 83c-9 0 -22 -2 -32 -7c-2 -13 -3 -21 -3 -39
c0 -70 28 -109 54 -109c29 0 39 34 39 72c0 47 -23 83 -58 83z" />
    <glyph glyph-name="seven.inferior" unicode="&#x2087;" horiz-adv-x="324" 
d="M287 252l6 -9c-56 -113 -112 -227 -164 -342l-62 -7l-5 10c59 94 115 187 164 279h-110c-40 0 -43 -3 -57 -37h-27c8 54 12 82 15 106h240z" />
    <glyph glyph-name="eight.inferior" unicode="&#x2088;" horiz-adv-x="324" 
d="M167 260c67 0 111 -39 111 -86c0 -14 -6 -30 -16 -42c-9 -9 -21 -19 -43 -31c36 -18 75 -47 75 -95c0 -74 -73 -111 -137 -111c-69 0 -128 34 -128 96c0 23 10 39 25 52c12 11 32 22 46 28c-30 20 -58 46 -58 87c0 56 49 102 125 102zM161 229h-2c-25 0 -41 -21 -41 -44
c0 -28 29 -49 74 -69c8 6 20 31 20 52c0 41 -28 61 -51 61zM166 -73c30 0 49 23 49 49c-1 36 -34 55 -88 81c-11 -10 -25 -32 -25 -59c0 -42 30 -71 64 -71z" />
    <glyph glyph-name="nine.inferior" unicode="&#x2089;" horiz-adv-x="324" 
d="M164 260c86 0 130 -69 130 -149c0 -95 -54 -166 -139 -199c-28 -11 -75 -20 -108 -21l-4 28c85 19 144 73 157 131l-26 -12c-14 -7 -23 -10 -32 -10c-72 0 -112 49 -112 105c0 57 45 127 134 127zM153 228c-23 0 -39 -30 -39 -71c0 -51 28 -82 62 -82c11 0 20 2 27 5
c2 21 3 31 3 43c0 48 -15 105 -53 105z" />
    <glyph glyph-name="period.inferior" unicode="&#xf6e7;" horiz-adv-x="187" 
d="M91 -114c-30 0 -60 25 -60 65c0 37 27 64 61 64c38 0 63 -30 63 -64c0 -38 -25 -65 -64 -65z" />
    <glyph glyph-name="comma.inferior" unicode="&#xf6e1;" horiz-adv-x="187" 
d="M75 37c36 0 89 -33 89 -103c0 -73 -67 -115 -128 -131l-13 32c42 18 64 42 64 74c0 27 -20 49 -52 56c-5 1 -12 11 -12 32c0 23 24 40 52 40z" />
    <glyph glyph-name="dollar.inferior" unicode="&#xf6e3;" horiz-adv-x="324" 
d="M178 121l14 -5c65 -20 107 -47 107 -108c-1 -65 -54 -102 -121 -111v-57h-29v55c-50 2 -93 21 -106 31c-5 13 -13 46 -18 91l26 8c11 -39 47 -89 98 -97v113l-15 5c-63 21 -101 51 -101 104c0 56 42 100 116 108v50h29v-49c25 0 55 -6 83 -20c6 -21 11 -47 15 -81l-28 -5
c-11 32 -30 67 -70 73v-105zM149 130v96c-32 -3 -51 -20 -51 -46c0 -29 22 -41 51 -50zM178 32v-104c28 3 50 19 50 50c0 22 -8 37 -50 54z" />
    <glyph glyph-name="cent.inferior" unicode="&#xf6df;" horiz-adv-x="324" 
d="M279 17l15 -22c-25 -35 -60 -56 -92 -62v-60h-29v57c-99 6 -146 72 -146 140c0 51 24 93 60 120c26 21 56 35 86 39v47h29v-47c3 1 6 1 8 1c22 0 47 -6 61 -15c10 -6 13 -15 13 -23c0 -20 -19 -32 -26 -32c-5 0 -9 2 -14 7c-13 12 -26 23 -42 27v-208c29 0 56 13 77 31z
M173 -11v207c-23 -1 -64 -28 -64 -103c0 -66 34 -96 64 -104z" />
    <glyph glyph-name="hyphen.inferior" unicode="&#xf6e5;" horiz-adv-x="259" 
d="M223 37h-188v58h188v-58z" />
    <glyph glyph-name="parenleft.inferior" unicode="&#x208d;" horiz-adv-x="237" 
d="M201 -195l-18 -21c-100 60 -148 166 -148 275v1c0 108 48 214 148 274l19 -21c-37 -39 -84 -136 -84 -254c0 -117 47 -214 83 -254z" />
    <glyph glyph-name="parenright.inferior" unicode="&#x208e;" horiz-adv-x="237" 
d="M202 58c0 -108 -47 -214 -148 -274l-18 21c36 39 83 137 83 254c0 118 -48 214 -83 254l18 21c101 -60 148 -166 148 -276z" />
    <glyph glyph-name="zero.numerator" unicode="&#xf661;" horiz-adv-x="324" 
d="M163 635c101 0 138 -96 138 -182c0 -89 -37 -183 -139 -183c-103 0 -139 93 -139 183c0 86 36 182 140 182zM162 602c-37 0 -45 -97 -45 -149s8 -150 46 -150c36 0 44 98 44 150s-8 149 -45 149z" />
    <glyph glyph-name="one.numerator" unicode="&#xf662;" horiz-adv-x="324" 
d="M265 278h-200v28c44 4 54 12 54 61v165c0 36 -1 41 -29 44l-24 3v26c43 5 96 15 146 30v-268c0 -49 10 -57 53 -61v-28z" />
    <glyph glyph-name="two.numerator" unicode="&#xf663;" horiz-adv-x="324" 
d="M273 383l25 -6c-11 -36 -16 -68 -23 -99h-246v23c53 46 149 126 149 202c0 44 -21 67 -56 67c-29 0 -52 -18 -72 -46l-21 19l33 46c23 29 59 46 97 46c64 0 115 -40 115 -108c0 -49 -32 -85 -104 -145l-42 -35v-1h88c33 0 40 4 57 37z" />
    <glyph glyph-name="three.numerator" unicode="&#xf664;" horiz-adv-x="324" 
d="M198 489v-2c53 -9 89 -36 89 -84c0 -87 -123 -132 -175 -132c-28 0 -57 11 -68 20c-7 7 -11 18 -7 30c4 13 14 23 24 29c5 4 14 4 21 -2c16 -13 43 -36 70 -36c20 0 43 16 43 63c0 52 -32 72 -67 72c-14 0 -27 -3 -36 -5l-6 28c57 19 84 41 84 70c0 24 -18 38 -42 38
c-28 0 -50 -20 -66 -39l-19 19l33 41c16 18 48 36 86 36h1c63 0 101 -37 101 -78c0 -16 -9 -31 -19 -40c-9 -8 -22 -16 -47 -28z" />
    <glyph glyph-name="four.numerator" unicode="&#xf665;" horiz-adv-x="324" 
d="M305 374h-52v-20c0 -36 9 -45 48 -49v-27h-194v27c50 4 59 12 59 49v20h-147v26c59 83 117 165 179 236h55v-220h52v-42zM166 416v130h-2c-29 -42 -56 -80 -88 -130h90z" />
    <glyph glyph-name="five.numerator" unicode="&#xf666;" horiz-adv-x="324" 
d="M112 558l-13 -70c23 7 52 15 69 15c79 0 118 -47 118 -94c0 -36 -20 -70 -60 -97c-33 -22 -79 -40 -115 -41c-24 0 -50 11 -61 19c-10 8 -14 19 -9 31c4 11 12 22 20 27c6 5 15 5 24 -2c12 -10 42 -33 67 -32c26 0 43 20 43 57c0 50 -33 81 -82 81c-19 0 -41 -5 -58 -10
l26 186h192l-15 -70h-146z" />
    <glyph glyph-name="six.numerator" unicode="&#xf667;" horiz-adv-x="324" 
d="M125 483l25 12c13 6 24 11 36 11c68 0 111 -45 111 -107c0 -71 -56 -128 -135 -128c-75 0 -135 53 -135 141c0 119 85 185 150 207c35 12 63 16 98 20l5 -31c-19 -3 -40 -9 -63 -20c-29 -13 -76 -43 -92 -105zM152 459c-9 0 -22 -2 -32 -7c-2 -13 -3 -21 -3 -39
c0 -70 28 -109 54 -109c29 0 39 34 39 72c0 47 -23 83 -58 83z" />
    <glyph glyph-name="seven.numerator" unicode="&#xf668;" horiz-adv-x="324" 
d="M287 628l6 -9c-56 -113 -112 -227 -164 -342l-62 -6l-5 9c59 94 115 187 164 279h-110c-40 0 -43 -3 -57 -37h-27c8 55 12 82 15 106h240z" />
    <glyph glyph-name="eight.numerator" unicode="&#xf669;" horiz-adv-x="324" 
d="M167 636c67 0 111 -39 111 -86c0 -14 -6 -30 -16 -42c-10 -9 -21 -19 -43 -31c36 -18 75 -47 75 -95c0 -74 -73 -111 -137 -111c-69 0 -128 34 -128 96c0 23 10 39 25 52c12 12 32 22 46 28c-30 20 -58 46 -58 87c0 56 49 102 125 102zM159 605c-25 0 -41 -21 -41 -44
c0 -28 29 -48 74 -69c8 6 20 31 20 52c0 41 -28 61 -53 61zM166 303c29 0 49 23 49 49c-2 36 -34 55 -88 81c-11 -10 -25 -32 -25 -59c0 -42 30 -71 64 -71z" />
    <glyph glyph-name="nine.numerator" unicode="&#xf66a;" horiz-adv-x="324" 
d="M164 635c86 0 130 -68 130 -148c0 -94 -54 -165 -139 -199c-28 -11 -75 -19 -108 -20l-4 28c85 18 144 73 157 130l-26 -12c-14 -7 -23 -10 -32 -10c-72 0 -112 50 -112 105c0 56 45 126 134 126zM153 603c-23 0 -39 -30 -39 -71c0 -50 28 -81 62 -81c11 0 20 2 27 5
c2 21 3 31 3 43c0 48 -15 104 -53 104z" />
    <glyph glyph-name="period.numerator" unicode="&#xf66c;" horiz-adv-x="187" 
d="M91 262c-30 0 -60 25 -60 65c0 37 27 64 61 64c38 0 63 -30 63 -64c0 -38 -25 -65 -64 -65z" />
    <glyph glyph-name="comma.numerator" unicode="&#xf66b;" horiz-adv-x="187" 
d="M75 413c36 0 89 -33 89 -103c0 -73 -67 -115 -128 -131l-13 32c42 18 64 42 64 74c0 27 -20 49 -52 56c-5 1 -12 11 -12 32c0 23 24 40 52 40z" />
    <glyph glyph-name="dollar.numerator" unicode="&#xf62f;" horiz-adv-x="324" 
d="M178 497l14 -5c65 -20 107 -47 107 -108c-1 -65 -54 -102 -121 -111v-57h-29v55c-50 2 -93 21 -106 31c-5 13 -13 46 -18 91l26 8c11 -39 47 -89 98 -97v113l-15 5c-63 21 -101 51 -101 104c0 56 42 101 116 108v50h29v-49c25 0 55 -6 83 -20c6 -21 11 -46 15 -81l-28 -5
c-11 32 -30 67 -70 73v-105zM149 506v96c-32 -2 -51 -20 -51 -46c0 -29 22 -41 51 -50zM178 408v-104c28 3 50 19 50 50c0 22 -8 37 -50 54z" />
    <glyph glyph-name="cent.numerator" unicode="&#xf62e;" horiz-adv-x="324" 
d="M279 393l15 -22c-25 -35 -60 -56 -92 -62v-60h-29v57c-99 6 -146 72 -146 140c0 51 24 92 60 120c26 20 56 34 86 38v48h29v-46c3 1 6 1 8 1c22 0 47 -6 61 -15c10 -6 13 -15 13 -23c0 -20 -19 -33 -26 -33c-5 0 -9 3 -14 8c-13 12 -26 23 -42 27v-209c29 0 56 13 77 31z
M173 365v207c-23 -1 -64 -28 -64 -103c0 -66 34 -96 64 -104z" />
    <glyph glyph-name="hyphen.numerator" unicode="&#xf630;" horiz-adv-x="259" 
d="M223 413h-188v58h188v-58z" />
    <glyph glyph-name="parenleft.numerator" unicode="&#xf631;" horiz-adv-x="237" 
d="M201 181l-18 -21c-100 60 -148 166 -148 275v1c0 108 48 214 148 274l19 -21c-37 -39 -84 -136 -84 -254c0 -117 47 -214 83 -254z" />
    <glyph glyph-name="parenright.numerator" unicode="&#xf632;" horiz-adv-x="237" 
d="M202 434c0 -108 -47 -214 -148 -274l-18 21c36 39 83 137 83 254c0 118 -48 214 -83 254l18 21c101 -60 148 -166 148 -276z" />
    <glyph glyph-name="zero.denominator" unicode="&#xf655;" horiz-adv-x="324" 
d="M163 358c101 0 138 -96 138 -183c0 -89 -37 -183 -139 -183c-103 0 -139 93 -139 183c0 87 36 183 140 183zM162 325c-37 0 -45 -97 -45 -150c0 -51 8 -150 46 -150c36 0 44 99 44 150c0 53 -8 150 -45 150z" />
    <glyph glyph-name="one.denominator" unicode="&#xf656;" horiz-adv-x="324" 
d="M265 0h-200v28c44 4 54 12 54 61v165c0 36 -1 41 -29 44l-24 3v26c43 5 96 16 146 31v-269c0 -49 10 -57 53 -61v-28z" />
    <glyph glyph-name="two.denominator" unicode="&#xf657;" horiz-adv-x="324" 
d="M273 106l25 -7c-11 -36 -16 -68 -23 -99h-246v24c53 45 149 125 149 201c0 45 -21 68 -56 68c-29 0 -52 -19 -72 -46l-21 19l33 46c23 28 59 46 97 46c64 0 115 -40 115 -108c0 -49 -32 -86 -104 -146l-42 -34v-2h88c33 0 40 4 57 38z" />
    <glyph glyph-name="three.denominator" unicode="&#xf658;" horiz-adv-x="324" 
d="M198 211v-2c53 -9 89 -36 89 -84c0 -88 -123 -133 -175 -133c-28 0 -57 11 -68 21c-7 6 -11 18 -7 30s14 22 24 28c5 4 14 4 21 -1c16 -13 43 -37 70 -37c20 0 43 17 43 64c0 52 -32 72 -68 72c-13 0 -26 -3 -35 -5l-6 28c57 19 84 41 84 70c0 24 -18 38 -42 38
c-28 0 -50 -20 -66 -39l-19 19l33 41c16 18 48 36 86 36h1c63 0 101 -37 101 -78c0 -16 -9 -31 -19 -40c-9 -8 -22 -16 -47 -28z" />
    <glyph glyph-name="four.denominator" unicode="&#xf659;" horiz-adv-x="324" 
d="M305 96h-52v-20c0 -36 9 -45 48 -49v-27h-194v27c50 4 59 12 59 49v20h-147v26c59 83 117 165 179 236h55v-220h52v-42zM166 138v130h-2c-29 -42 -56 -80 -88 -130h90z" />
    <glyph glyph-name="five.denominator" unicode="&#xf65a;" horiz-adv-x="324" 
d="M112 281l-13 -71c23 7 52 15 69 15c79 0 118 -47 118 -95c0 -36 -20 -69 -60 -97c-33 -22 -79 -40 -115 -41c-24 0 -50 11 -61 19c-10 8 -14 19 -9 31c4 11 12 22 20 28c6 4 15 5 24 -2c12 -11 42 -33 67 -33c26 0 43 20 43 58c0 50 -33 81 -82 81c-19 0 -41 -5 -58 -10
l26 187h192l-15 -70h-146z" />
    <glyph glyph-name="six.denominator" unicode="&#xf65b;" horiz-adv-x="324" 
d="M125 205l25 12c13 6 24 11 36 11c68 0 111 -45 111 -108c0 -71 -56 -128 -135 -128c-75 0 -135 53 -135 142c0 119 85 185 150 207c35 12 63 16 98 20l5 -31c-19 -3 -40 -9 -63 -20c-29 -13 -76 -43 -92 -105zM152 181c-9 0 -22 -2 -32 -7c-2 -13 -3 -21 -3 -39
c0 -71 28 -110 54 -110c29 0 39 34 39 72c0 48 -23 84 -58 84z" />
    <glyph glyph-name="seven.denominator" unicode="&#xf65c;" horiz-adv-x="324" 
d="M287 350l6 -9c-56 -113 -112 -227 -164 -341l-62 -7l-5 9c59 94 115 187 164 279h-110c-40 0 -43 -3 -57 -37h-27c8 54 12 82 15 106h240z" />
    <glyph glyph-name="eight.denominator" unicode="&#xf65d;" horiz-adv-x="324" 
d="M167 358c67 0 111 -39 111 -86c0 -14 -6 -30 -16 -42c-9 -9 -21 -19 -43 -31c36 -18 75 -47 75 -95c0 -74 -73 -111 -137 -111c-69 0 -128 34 -128 96c0 24 10 39 25 52c13 12 32 22 46 29c-30 19 -58 45 -58 86c0 55 49 102 125 102zM159 327c-25 0 -41 -21 -41 -44
c0 -28 29 -49 74 -69c8 6 20 31 20 52c0 40 -28 61 -53 61zM166 25c30 0 49 23 49 49c-1 37 -33 55 -88 81c-11 -9 -25 -32 -25 -59c0 -42 30 -71 64 -71z" />
    <glyph glyph-name="nine.denominator" unicode="&#xf65e;" horiz-adv-x="324" 
d="M164 358c86 0 130 -69 130 -149c0 -95 -54 -166 -139 -199c-28 -11 -75 -20 -108 -21l-4 28c85 19 144 73 157 131l-26 -12c-14 -7 -23 -10 -32 -10c-72 0 -112 49 -112 105c0 57 45 127 134 127zM153 326c-23 0 -39 -30 -39 -71c0 -51 28 -82 62 -82c11 0 20 2 27 5
c2 21 3 31 3 43c0 48 -15 105 -53 105z" />
    <glyph glyph-name="period.denominator" unicode="&#xf660;" horiz-adv-x="187" 
d="M91 -16c-30 0 -60 25 -60 65c0 37 27 64 61 64c38 0 63 -30 63 -64c0 -38 -25 -65 -64 -65z" />
    <glyph glyph-name="comma.denominator" unicode="&#xf65f;" horiz-adv-x="187" 
d="M75 135c36 0 89 -33 89 -103c0 -73 -67 -115 -128 -131l-13 32c42 18 64 42 64 74c0 27 -20 49 -52 56c-5 1 -12 11 -12 32c0 23 24 40 52 40z" />
    <glyph glyph-name="dollar.denominator" unicode="&#xf62a;" horiz-adv-x="324" 
d="M177 219l15 -5c65 -20 107 -47 107 -108c-1 -65 -54 -102 -121 -111v-57h-29v55c-50 2 -93 21 -106 30c-5 14 -13 47 -18 92l26 8c11 -39 47 -89 98 -97v113l-15 5c-63 21 -101 50 -101 104c0 56 42 100 116 108v50h28v-49c25 0 56 -6 84 -20c6 -21 11 -47 15 -81l-28 -5
c-11 32 -30 67 -71 73v-105zM149 228v96c-32 -3 -51 -20 -51 -46c0 -29 22 -41 51 -50zM178 130v-104c28 3 50 19 50 50c0 22 -8 37 -50 54z" />
    <glyph glyph-name="cent.denominator" unicode="&#xf629;" horiz-adv-x="324" 
d="M279 115l15 -22c-25 -35 -60 -56 -92 -62v-60h-29v57c-99 6 -146 72 -146 140c0 51 24 93 60 120c26 21 56 35 86 39v47h29v-47c3 1 6 1 8 1c22 0 47 -6 61 -15c10 -6 13 -15 13 -23c0 -20 -19 -32 -26 -32c-5 0 -9 2 -14 7c-13 12 -26 23 -42 27v-208c29 0 56 13 77 31z
M173 88v206c-23 -1 -64 -28 -64 -102c0 -66 34 -97 64 -104z" />
    <glyph glyph-name="hyphen.denominator" unicode="&#xf62b;" horiz-adv-x="259" 
d="M223 135h-188v58h188v-58z" />
    <glyph glyph-name="parenleft.denominator" unicode="&#xf62c;" horiz-adv-x="237" 
d="M201 -97l-18 -21c-100 60 -148 166 -148 275v1c0 108 48 214 148 274l19 -21c-37 -39 -84 -136 -84 -254c0 -117 47 -214 83 -254z" />
    <glyph glyph-name="parenright.denominator" unicode="&#xf62d;" horiz-adv-x="237" 
d="M202 156c0 -108 -47 -214 -148 -274l-18 21c36 39 83 137 83 254c0 118 -48 214 -83 254l18 21c101 -60 148 -166 148 -276z" />
    <glyph glyph-name="uni25B7" unicode="&#x25b7;" horiz-adv-x="606" 
d="M130 405l1 -295l311 150zM75 26c0 0 2 465 1 465h1l486 -230v-2l-486 -235z" />
    <glyph glyph-name="uni25C0" unicode="&#x25c0;" horiz-adv-x="606" 
d="M531 488c0 0 -2 -465 0 -465h-2l-486 229v2l486 236z" />
    <glyph glyph-name="uni25C1" unicode="&#x25c1;" horiz-adv-x="606" 
d="M476 110v295l-312 -150zM531 489c0 0 -2 -465 0 -465h-2l-485 229v2l485 236z" />
    <glyph glyph-name="uni25C9" unicode="&#x25c9;" horiz-adv-x="454" 
d="M229 451c102 0 182 -84 182 -188c0 -103 -80 -187 -183 -187c-105 0 -185 83 -185 187c0 105 80 188 186 188zM227 400c-73 0 -125 -63 -125 -137s52 -136 126 -136c73 0 124 63 124 136c0 74 -51 137 -125 137zM227 338c-40 0 -68 -35 -68 -75s28 -74 69 -74
c39 0 67 35 67 74c0 40 -28 75 -68 75z" />
    <glyph glyph-name="uni25C6" unicode="&#x25c6;" horiz-adv-x="469" 
d="M35 255l197 199l202 -205l-197 -199z" />
    <glyph glyph-name="uni25A0" unicode="&#x25a0;" horiz-adv-x="407" 
d="M61 398h284v-291h-284v291z" />
    <glyph glyph-name="Rho_uni0313" unicode="&#xe05c;" horiz-adv-x="554" 
d="M40 643h247c76 0 126 -11 165 -37c45 -30 72 -81 72 -148c0 -130 -91 -192 -196 -205c-15 -2 -25 -2 -35 -2l-58 16v-141c0 -82 6 -91 83 -97v-29h-283v29c67 6 74 15 74 97v386c0 83 -7 90 -69 98v33zM235 565v-260c13 -5 27 -9 46 -9c29 0 106 23 106 158
c0 117 -59 152 -110 152c-17 0 -26 -4 -32 -8c-8 -6 -10 -17 -10 -33zM-115 518l-12 31c24 11 52 29 52 53s-20 37 -54 37c-6 0 -15 11 -15 30c0 20 20 40 50 40c40 0 89 -29 89 -85c0 -71 -74 -98 -110 -106z" />
    <glyph glyph-name="uni1FBC.alt" unicode="&#xe0f8;" horiz-adv-x="633" 
d="M619 0h-263v33c54 7 59 19 43 68c-10 30 -21 70 -33 103h-172c-8 -25 -19 -58 -30 -97c-15 -54 -11 -65 56 -74v-33h-207v33c56 6 71 17 99 93l188 517l47 12c60 -174 113 -345 174 -517c31 -88 43 -99 98 -105v-33zM349 255l-67 217h-3c-26 -74 -46 -145 -70 -217h140z
M414 -135l10 -26c-18 -26 -54 -42 -88 -42c-47 0 -82 30 -82 87c0 27 5 44 14 66l68 29l13 -6c-5 -17 -9 -35 -9 -57c0 -33 15 -56 43 -56c12 0 21 2 31 5z" />
    <glyph glyph-name="uni1F88.alt" unicode="&#xe0e0;" horiz-adv-x="633" 
d="M619 0h-263v33c54 7 59 19 43 68c-10 30 -22 70 -34 103h-170c-9 -25 -19 -58 -30 -97c-16 -54 -12 -65 55 -74v-33h-206v33c56 6 71 17 98 93l187 517l48 12c60 -174 113 -345 174 -517c31 -88 43 -99 98 -105v-33zM349 255l-67 217h-3c-26 -74 -46 -145 -70 -217h140z
M415 -135l10 -27c-18 -25 -54 -41 -88 -41c-48 0 -83 30 -83 87c0 27 5 44 14 66l68 29l13 -6c-5 -17 -9 -35 -9 -57c0 -33 15 -56 43 -56c12 0 22 2 32 5zM87 518l-13 31c24 11 52 29 52 53s-20 37 -54 37c-6 0 -15 11 -15 30c0 20 20 40 50 40c40 0 89 -29 89 -85
c0 -71 -74 -98 -109 -106z" />
    <glyph glyph-name="uni1F89.alt" unicode="&#xe0e1;" horiz-adv-x="633" 
d="M619 0h-263v33c54 7 59 19 43 68c-10 30 -22 70 -34 103h-171c-8 -25 -19 -58 -30 -97c-15 -54 -11 -65 56 -74v-33h-206v33c56 6 71 17 99 93l186 518l48 11c60 -173 113 -344 174 -517c31 -88 43 -99 98 -105v-33zM349 255l-67 217h-3c-26 -74 -46 -145 -70 -217h140z
M415 -135l10 -27c-18 -25 -54 -41 -88 -41c-48 0 -83 30 -83 87c0 27 5 44 14 66l68 29l13 -6c-5 -17 -9 -35 -9 -57c0 -33 15 -56 43 -56c12 0 22 2 32 5zM177 550l-12 -32c-45 7 -109 32 -109 102c0 55 48 89 88 89c30 0 51 -20 51 -41c0 -18 -9 -30 -16 -30
c-34 1 -54 -14 -54 -38c0 -23 27 -38 52 -50z" />
    <glyph glyph-name="uni1F8A.alt" unicode="&#xe0e2;" horiz-adv-x="633" 
d="M619 0h-263v33c54 7 59 19 43 68c-10 30 -22 70 -34 103h-171c-8 -25 -19 -58 -30 -97c-15 -54 -11 -65 56 -74v-33h-207l1 33c56 6 71 17 98 93l187 517l48 12c60 -174 113 -344 174 -517c31 -88 43 -99 98 -105v-33zM349 255l-67 217h-3c-26 -74 -46 -145 -70 -217h140
zM415 -135l10 -27c-18 -25 -54 -41 -88 -41c-48 0 -83 30 -83 87c0 27 5 44 14 66l68 29l13 -6c-5 -17 -9 -35 -9 -57c0 -33 15 -56 43 -56c12 0 22 2 32 5zM186 525l-33 -6c-23 59 -44 115 -69 171l2 10c11 4 78 16 90 13c3 -62 7 -125 10 -188zM-42 519l-11 30
c23 11 50 30 50 53c0 25 -20 39 -52 38c-6 0 -16 12 -16 30c0 21 20 41 49 41c38 0 85 -32 85 -87c0 -71 -70 -98 -105 -105z" />
    <glyph glyph-name="uni1F8B.alt" unicode="&#xe0e3;" horiz-adv-x="633" 
d="M619 0h-263v33c54 7 59 19 43 68c-10 30 -22 70 -34 103h-171c-8 -25 -19 -58 -30 -97c-15 -54 -11 -65 56 -74v-33h-206v33c56 6 71 17 99 93l186 517l48 12c60 -174 113 -344 174 -517c31 -88 43 -99 98 -105v-33zM349 255l-67 217h-3c-26 -74 -46 -145 -70 -217h140z
M415 -135l10 -27c-18 -25 -54 -41 -88 -41c-48 0 -83 30 -83 87c0 27 5 44 14 66l68 29l13 -6c-5 -17 -9 -35 -9 -57c0 -33 15 -56 43 -56c12 0 22 2 32 5zM189 525l-32 -7c-25 56 -48 111 -77 166l3 10c10 5 81 18 92 16c5 -61 10 -123 14 -185zM37 549l-12 -31
c-34 6 -105 32 -105 103c0 55 48 88 86 88c28 0 49 -20 49 -40c0 -18 -9 -30 -16 -30c-33 0 -53 -15 -53 -40c0 -23 27 -40 51 -50z" />
    <glyph glyph-name="uni1F8C.alt" unicode="&#xe0e4;" horiz-adv-x="633" 
d="M619 0h-263v33c54 7 59 19 43 68c-10 30 -22 70 -34 103h-171c-8 -25 -19 -58 -30 -97c-15 -54 -11 -65 56 -74v-33h-207v33c56 6 71 17 99 93l187 517l48 12c60 -174 113 -344 174 -517c31 -88 43 -99 98 -105v-33zM349 255l-67 217h-3c-26 -74 -46 -145 -70 -217h140z
M415 -135l10 -26c-18 -26 -55 -42 -89 -42c-47 0 -82 30 -82 87c0 27 5 44 14 66l67 29l14 -6c-5 -17 -9 -35 -9 -57c0 -33 15 -56 43 -56c12 0 22 2 32 5zM234 693l-92 -178l-32 5c10 59 20 116 26 174c9 5 78 15 93 13zM-23 515l-11 29c24 11 51 30 51 54
c0 25 -20 39 -52 38c-7 0 -17 12 -18 30c0 20 20 40 49 40c38 0 86 -32 86 -88c0 -70 -71 -97 -105 -103z" />
    <glyph glyph-name="uni2767" unicode="&#x2767;" horiz-adv-x="1058" 
d="M222 478h2c9 45 43 71 77 71c39 0 75 -26 75 -74c0 -32 -18 -65 -38 -92c-7 -8 -16 -18 -32 -35c50 -42 127 -74 171 -76c-13 25 -17 47 -17 67c0 99 93 149 171 149c75 0 120 -35 140 -68c22 -37 28 -83 28 -148c0 -69 10 -111 19 -129c11 -22 30 -36 53 -36
c28 0 54 20 54 49c0 37 -13 53 -31 66c-10 6 -10 9 -4 16c7 9 21 18 39 18c34 0 69 -30 69 -79c0 -77 -81 -107 -140 -107c-19 0 -56 -17 -111 -47c-58 -30 -134 -62 -200 -62c-120 0 -186 103 -186 159c0 63 31 92 82 113v2c-41 12 -104 36 -160 83
c-11 -12 -32 -33 -50 -53c19 -6 38 -28 38 -53c0 -32 -18 -54 -38 -82c-29 -41 -40 -66 -40 -104c0 -24 8 -50 27 -65c11 -7 9 -17 -2 -16c-55 6 -120 38 -120 129c0 22 7 46 11 59c2 8 0 13 -10 13c-7 0 -23 -7 -28 -13c-4 -3 -10 -3 -10 6c0 76 77 129 125 131
c29 26 48 44 71 70c-50 46 -88 113 -88 196c0 108 74 165 123 165c30 0 41 -18 44 -37c9 -6 13 -13 15 -18c4 -12 -8 -15 -11 -22c-5 11 -15 16 -35 16c-29 0 -88 -31 -88 -117c0 -17 1 -33 5 -45zM325 465c0 27 -10 46 -34 46c-23 0 -50 -19 -50 -86c9 -20 24 -40 40 -56
c33 36 44 70 44 96z" />
    </font>
</defs>
</svg>
